<svg xmlns="http://www.w3.org/2000/svg" viewBox="0 0 48 48"><defs><style>.cls-1{fill:#4646ff;}.cls-2{fill:none;stroke:#4646ff;stroke-miterlimit:10;stroke-width:2px;}</style></defs><title>Risorsa 16</title><g id="Livello_2" data-name="Livello 2"><g id="Icone"><g id="impostazioni_button"><path class="cls-1" d="M24,2A22,22,0,1,1,2,24,22,22,0,0,1,24,2m0-2A24,24,0,1,0,48,24,24,24,0,0,0,24,0Z"/><path class="cls-2" d="M37.56,29.6a13.9,13.9,0,0,0,.71-2.18,15,15,0,0,0,.36-2.26L33.33,23c0-.32-.09-.64-.16-1l4.38-3.68a14.68,14.68,0,0,0-2.39-3.9l-5.27,2.24a8.75,8.75,0,0,0-.78-.58l.49-5.69a13.9,13.9,0,0,0-2.18-.71,15,15,0,0,0-2.26-.36L23,14.67c-.32,0-.64.09-1,.16l-3.68-4.38a14.68,14.68,0,0,0-3.9,2.39l2.24,5.27a8.75,8.75,0,0,0-.58.78l-5.69-.49a13.9,13.9,0,0,0-.71,2.18,15,15,0,0,0-.36,2.26L14.67,25c0,.32.09.64.16,1l-4.38,3.68a14.68,14.68,0,0,0,2.39,3.9l5.27-2.24a8.75,8.75,0,0,0,.78.58l-.49,5.69a13.9,13.9,0,0,0,2.18.71,15,15,0,0,0,2.26.36L25,33.33c.32,0,.64-.09,1-.16l3.68,4.38a14.68,14.68,0,0,0,3.9-2.39l-2.24-5.27a8.75,8.75,0,0,0,.58-.78Zm-14.74-.69a5,5,0,1,1,6.09-3.73A5,5,0,0,1,22.82,28.91Z"/></g></g></g></svg>