<?xml version="1.0" encoding="utf-8"?>
<!-- Generator: Adobe Illustrator 24.0.3, SVG Export Plug-In . SVG Version: 6.00 Build 0)  -->
<svg version="1.1" id="Livello_1" xmlns="http://www.w3.org/2000/svg" xmlns:xlink="http://www.w3.org/1999/xlink" x="0px" y="0px"
	 viewBox="0 0 379.9 269.2" style="enable-background:new 0 0 379.9 269.2;" xml:space="preserve">
<style type="text/css">
	.st0{fill:#4646FF;}
</style>
<title>Risorsa 1</title>
<g id="Livello_2_1_">
	<g id="Layer_1">
		<g id="Design_Network">
			<path class="st0" d="M326.4,269.2H191.9c-1.2,0-2.1-1-2.1-2.1v-28.7c0-27.7,5.4-42.9,19.8-55.8c11.8-10.4,28.1-15.5,50-15.5
				c20.3,0,36.9,5.1,49.3,15c14.9,12,19.6,24.3,19.6,50.9V267C328.5,268.2,327.6,269.2,326.4,269.2
				C326.4,269.2,326.4,269.2,326.4,269.2z M194,265h130.3v-32c0-25.4-4.2-36.5-18.1-47.6c-11.6-9.4-27.3-14.1-46.7-14.1
				c-20.8,0-36.2,4.7-47.2,14.4C199,197.7,194,212,194,238.4V265z M308.1,246.1h-98.5c-1.2,0-2.1-1-2.1-2.1v-14.6
				c0-13.1,3.5-20.9,12.5-27.6c10.7-8.1,26.5-9.2,41.9-9.2c33,0,48.4,11.5,48.4,36.2v15.2C310.3,245.1,309.3,246.1,308.1,246.1
				L308.1,246.1z M211.7,241.9H306v-13c0-22.1-13.6-32-44.1-32c-14.7,0-29.6,1-39.3,8.4c-7.9,5.9-10.8,12.5-10.8,24.2L211.7,241.9z"
				/>
			<path class="st0" d="M89.6,158.7l-8.6-13.1c-1.8-2.7-2.9-3-4.6-1.9c-1.6,1.3-2.6,3.1-3,5.1l9.4,14.3l-4.3,2.8L69,151.4
				c-1-1.6-2.3-3.1-3.8-4.2l3.3-3.7c1,0.5,1.9,1.4,2.6,2.3c1-3.2,2.2-5.4,4.4-6.8c3.1-2.1,6.5-1.6,8.9,2l9.7,14.7L89.6,158.7z"/>
			<path class="st0" d="M337.6,84.3c-3.6,0-6.5-2.9-6.5-6.5c0-2.9,1.9-5.5,4.7-6.3l-1.2,0.2c-1.2,0.2-2.3-0.6-2.5-1.7
				c0-0.1,0-0.3,0-0.4V38.8c0-1.2,0.9-2.1,2.1-2.1c0,0,0,0,0,0h6.8c1.2,0,2.1,0.9,2.1,2.1v29.7c0,1-0.7,1.9-1.8,2.1l-4.2,0.7h0.5
				c3.6,0,6.5,2.9,6.5,6.5C344.2,81.4,341.3,84.3,337.6,84.3z M337.8,75.5c-1.3,0-2.4,1-2.4,2.2c0,1.2,1,2.3,2.2,2.3c0,0,0,0,0.1,0
				c1.3,0,2.3-1,2.4-2.2c0,0,0,0,0-0.1C340,76.6,339,75.6,337.8,75.5C337.8,75.5,337.8,75.5,337.8,75.5z M336.5,41v26.2l2.5-0.5V41
				H336.5z"/>
			<path class="st0" d="M293.3,49.4c0-2,0.8-4,2.4-5.3c-0.7-0.1-1.4-0.3-2-0.6v-4.3c1,0.4,1.9,0.6,4.7,0.6h20
				c1.7,0.1,3.4-0.1,5.1-0.6l1.1,4.9c-1.4,0.2-2.8,0.4-4.2,0.3h-4.9c-0.7,0-1.3,0-2-0.1v0.2c1.3,1.4,2.1,3.2,2,5.2
				c0,5.2-4.1,8.5-10.8,8.5C297.9,58.1,293.3,54.5,293.3,49.4 M311.5,48.6c0-1.6-0.8-3.2-2.1-4.1H299c-1.1,1-1.8,2.5-1.8,4
				c0,3,2.1,4.3,7.4,4.3C308.4,52.7,311.5,51.9,311.5,48.6"/>
			<path class="st0" d="M152.4,62.5c-2.3-1.1-4.8-1.6-7.4-1.5c-7.4,0-13.8,3.2-19.9,9.9c-0.5-3-1.5-5.9-2.9-8.7
				c-0.5-0.9-1.4-1.3-2.4-1.1L103,65.5c-1.1,0.3-1.8,1.4-1.5,2.6c0,0.1,0,0.1,0.1,0.2c2,5.4,2.9,12.2,2.9,21.4v13.4H79.5V13.5
				c0-1.2-1-2.1-2.1-2.1H58.9c-1.2,0-2.1,0.9-2.1,2.1c0,0,0,0,0,0v106.3c0,1.2,0.9,2.1,2.1,2.1l0,0h45.4v25.8c0,1.2,0.9,2.1,2.1,2.1
				h18.4c1.2,0,2.1-0.9,2.2-2.1c0,0,0,0,0,0V92.4c1.8-6.1,7.4-10.3,13.7-10.3c1.5,0,2.9,0.4,4.3,1h0.1c0.5,0.2,1.1,0.2,1.6-0.1
				c0.5-0.3,0.9-0.7,1.1-1.2l5.7-16.6C153.8,64.1,153.4,63,152.4,62.5z M61,117.6v-102h14.2v89.6c0,1.2,0.9,2.1,2.1,2.1c0,0,0,0,0,0
				h27v10.3L61,117.6z M108.6,107.3h6.5l-2.1,10.3h-4.4L108.6,107.3z M144.5,78.4c-1.2-0.4-2.5-0.6-3.9-0.6
				c-8.4,0-15.8,5.7-17.9,13.8c0,0.2-0.1,0.3-0.1,0.5v53.5h-14.1v-23.7h6.1c1,0,1.9-0.7,2.1-1.7l3-14.6c0.2-1.1-0.5-2.3-1.6-2.5
				c-0.1,0-0.3,0-0.4,0h-9.1V89.7c0-8.5-0.8-15.1-2.4-20.6l13-3.3c1.4,3.3,2.2,6.9,2.2,10.5c0,1.2,0.9,2.1,2.1,2.1
				c0.7,0,1.3-0.3,1.7-0.9c6.4-8.5,12.5-12.3,19.8-12.3c1.3,0,2.6,0.1,3.8,0.4L144.5,78.4z"/>
			<path class="st0" d="M16.3,250c-0.5,0-1-0.2-1.4-0.5L0.8,237.6c-0.7-0.6-0.9-1.5-0.6-2.4c2.2-6,6.5-11.1,12.1-14.3
				c-7.6-7.9-11-16.7-11-28.3c0-23.6,12-37.1,33-37.1c17.2,0,37.8,9.4,37.8,54.2v4.9h3.3c11.2,0,15.9-1.7,15.9-12.4
				c0-14.3-11.2-30-11.4-30.2c-0.7-1-0.4-2.3,0.5-3c0,0,0,0,0,0l16-10.2c0.5-0.3,1.1-0.4,1.6-0.3c0.6,0.1,1,0.5,1.3,1
				c10.2,16.5,14.3,29.8,14.3,45.9c0,17.3-6.3,29.1-18.4,34c-3.9,1.6-8.3,1.9-16.3,1.9c-2.7,0-5.9,0-9.7-0.1L40,240.9h-2.5
				c-11.4,0-14.8,1.5-19.4,8.2c-0.3,0.5-0.9,0.8-1.5,0.9L16.3,250z M4.7,235.4l11.2,9.4c5.3-6.9,10.6-8.2,21.5-8.2h2.6l29.4,0.4
				c3.8,0,6.9,0.1,9.6,0.1c8.3,0,11.8-0.4,14.7-1.6c10.3-4.2,15.7-14.6,15.7-30.1c0-14.6-3.7-26.9-12.6-41.8l-12.3,7.9
				c3.1,4.8,10.9,18,10.9,30.8c0,15.4-9.5,16.7-20.2,16.7h-5.5c-1.2,0-2.1-0.9-2.1-2.1c0,0,0,0,0,0v-7.1c0-33.1-11.3-49.9-33.6-49.9
				c-18.5,0-28.7,11.7-28.7,32.8c0,11.6,3.6,19.8,11.9,27.4c0.9,0.8,0.9,2.1,0.1,3c-0.2,0.2-0.5,0.4-0.8,0.6
				C11.3,225.8,7,230,4.7,235.4z M54.7,218.6L54.7,218.6l-24.3-0.4c-0.4,0-0.8-0.1-1.2-0.4c-7.3-5.1-11.7-12.9-11.7-20.7
				c0-10.3,6.9-16.7,18-16.7c15.3,0,21.6,9.2,21.6,31.9c0,1.7-0.2,4.2-0.2,4.3C56.8,217.8,55.8,218.7,54.7,218.6L54.7,218.6z
				 M31,213.9l21.6,0.4c0-0.7,0.1-1.4,0.1-2c0-23-6.6-27.6-17.3-27.6c-8.7,0-13.7,4.5-13.7,12.4C21.7,203.3,25.2,209.6,31,213.9z"/>
			<path class="st0" d="M285,216.5c-0.1,0.2-0.1,0.4-0.1,0.6c0,0.9,0.6,1.8,1.5,2h7v2.3h-7.3c-0.9,0-1.9,0.1-2.8,0.4l-0.5-2.1
				c0.5-0.3,1.1-0.4,1.6-0.4c-1-0.6-1.6-1.6-1.6-2.7c0-0.3,0-0.6,0.2-0.8L285,216.5z"/>
			<path class="st0" d="M126.6,221.6c-0.8,0-1.5-0.4-1.9-1.1l-2.6-5c-0.5-1.1-0.1-2.3,1-2.9c0.1-0.1,0.2-0.1,0.4-0.1
				c3.6-1,5.8-2.2,7.5-6.1c-0.8-0.2-1.4-0.8-1.6-1.6c-0.9-3.5-2.1-6.9-3.1-9.9l-0.3-1l-8.4-24.2c-0.2-0.6-0.1-1.2,0.2-1.8
				c0.3-0.5,0.9-0.9,1.5-1l8.2-1.4c1-0.2,2.1,0.5,2.4,1.5l6.8,21.8c0,0.1,0.1,0.3,0.1,0.4l0.6-2l6.1-19.4c0.3-0.9,1.1-1.5,2-1.5h8.6
				c1.2,0,2.1,0.9,2.1,2.1c0,0.2,0,0.5-0.1,0.7l-13,36.7c-2.9,8.1-5.7,14.1-16,15.9C126.9,221.7,126.8,221.6,126.6,221.6z
				 M127.1,215.7l0.7,1.4c6.2-1.5,8.3-4.8,11.2-12.8l12-33.8h-4l-5.6,17.9c-1.3,4.3-2.7,9.6-2.7,9.6c-0.2,1-1.1,1.6-2.1,1.6
				c-1,0-1.8-0.7-2-1.6c0-0.1-1.4-5.9-2-8l-6.2-20l-3.8,0.6l7.9,22.8c0.9,2.6,1.9,5.6,2.8,8.7h0.9c1.2,0,2.1,1,2.1,2.1
				c0,0.2,0,0.4-0.1,0.6C134,211.4,131.1,214.1,127.1,215.7z"/>
			<path class="st0" d="M286.1,151.7l29.1,9.8l1.9-12.6l-22.6-7.6l1.9-2.4c0.6-0.7,1.5-1,2.3-0.7l21.4,7.2c1,0.3,1.6,1.3,1.4,2.3
				l-2.5,16.8c-0.1,0.6-0.5,1.2-1,1.5c-0.3,0.2-0.7,0.3-1.1,0.3c-0.2,0-0.5,0-0.7-0.1l-30.1-10.1c-0.7-0.2-1.2-0.8-1.4-1.4
				c-0.2-0.7-0.1-1.4,0.4-1.9L286.1,151.7z"/>
			<path class="st0" d="M350.6,98.4c-9.3,0-14.9,7.1-14.9,19c0,1.2,1,2.1,2.1,2.1h24.8c1.2,0,2.1-0.9,2.1-2.1
				C364.8,105.9,359.2,98.4,350.6,98.4z M340.1,115.3c0.4-5.5,2.4-12.7,10.5-12.7c5.6,0,9.3,4.8,9.9,12.7H340.1z"/>
			<path class="st0" d="M370.5,95c-5.6-5-11.9-7.2-19.8-7.2c-9.2,0-16.4,3.1-22.1,9.5c-6.2,6.9-8.9,15-8.9,27c0,12.2,4,22.1,11,28.4
				c-1.9,1.6-3.4,3.6-4.2,6c-1.1,3.3-0.9,6.9,0.6,10.1c1.5,3.1,4.1,5.5,7.4,6.6c1.3,0.5,2.8,0.7,4.2,0.7l0,0
				c5.6,0,10.5-3.6,12.3-8.9c0.7-2.1,0.9-4.4,0.5-6.6h1.2c9.3,0.1,18.3-3.1,25.5-9.1c0.8-0.7,1-1.9,0.4-2.8l-5.7-8.6
				c-0.3-0.5-0.9-0.8-1.5-0.9c-0.6-0.1-1.2,0.1-1.7,0.5c-4.2,3.8-9.7,5.9-15.3,5.9c-9.3,0-14.1-5.2-14.4-15.4h37.9
				c1.2,0,2.1-1,2.1-2.1l0,0v-3C379.9,109.8,377.1,100.9,370.5,95z M346.8,165.7c-1.2,3.6-4.5,6-8.2,6c-1,0-1.9-0.2-2.8-0.5
				c-2.2-0.7-3.9-2.3-4.9-4.4c-1-2.2-1.2-4.6-0.4-6.9c0.6-1.9,1.9-3.5,3.7-4.6c3.9,2.5,8.2,4.1,12.8,4.8
				C347.4,162,347.4,163.9,346.8,165.7L346.8,165.7z M375.7,125.8h-37.9c-1.2,0-2.1,0.9-2.1,2.1c0,0,0,0,0,0v1
				c0,13.2,6.8,20.7,18.7,20.7c5.9,0,11.5-1.9,16.2-5.5l3.3,5.1c-6.1,4.6-13.6,7.1-21.3,7c-1,0-1.9,0-2.9-0.1
				c-3.1-5.2-9.4-7.6-15.2-5.7c-6.8-5.5-10.7-14.6-10.7-26.3c0-10.9,2.3-18.1,7.8-24.1c4.9-5.5,11-8.1,19-8.1c6.8,0,12.2,2,17,6.2
				c5.6,5,8,13,8,26.8L375.7,125.8z"/>
			<path class="st0" d="M223.4,54.6c-8.2,0-12.9,4.5-12.9,12.5c0,8.1,4.6,12.6,12.9,12.6c8.1,0,12.9-4.7,12.9-12.7
				S231.6,54.6,223.4,54.6z M223.4,75.4c-6,0-8.6-2.6-8.6-8.3c0-5.5,2.8-8.2,8.6-8.2s8.6,2.7,8.6,8.1
				C232.1,72.6,229.2,75.4,223.4,75.4z"/>
			<path class="st0" d="M258.1,64.2c5,0,9.9,1.1,14.3,3.3l-1.8,3.8c-3.6-1.9-7.7-2.9-11.8-3c-4.7,0-8.2,2.2-9.5,5.6
				c0.7-2.3,1.1-4.6,1.1-7c0-0.5,0-1,0-1.4C252.9,64.6,255.5,64.2,258.1,64.2z M241,79.4c0-0.4-0.1-0.8-0.1-1.2
				c-0.1-4.1,1.9-8,5.2-10.5C246,72.2,244.2,76.3,241,79.4z M223.4,85.3c-3.9-0.1-7.9-0.7-11.6-1.8c-2.4-0.8-4.9-1.2-7.4-1.3
				c-3.9,0-7.7,1.2-10.9,3.4l-3.8-4.9c2.3-1.6,5.1-2.4,7.9-2.2c1.4,0,2.7,0.2,4.1,0.6c1.1,0.4,2.3-0.1,2.8-1.2
				c0.3-0.8,0.1-1.7-0.5-2.3c-2.2-2.6-3.4-5.8-3.5-9.2c0-9.9,8.7-16.5,21.6-16.5c0.2,0,0.5,0,0.7-0.1c4.5-1.6,9.8-4.2,9.8-7.8
				c0-4.7-3-4.7-17.7-4.7c-8.6,0-18.6-4-18.6-15.2s9.6-17.8,25.6-17.8c7.8,0,25.8,1.4,25.8,14.5c-0.1,1.5-0.3,2.9-0.7,4.4h-8.4
				c0.2-0.7,0.2-1.5,0.3-2.2c0-3.3-1.6-10.9-15.8-10.9c-12.5,0-17,6-17,11.6c0,9.7,10,10.6,19.4,10.6c18.4,0,18.4,4.1,18.4,7.1
				c0,3.9-2.7,6.1-10.3,8.4c-1.1,0.4-1.7,1.5-1.4,2.7c0.2,0.7,0.8,1.2,1.4,1.4c6.8,1.9,10.9,5.7,12.2,11.2c-5.6,3-9.1,8.9-9,15.3
				c0,1.3,0.2,2.7,0.5,4C232.9,84.4,228.1,85.5,223.4,85.3L223.4,85.3z M279.8,98.6c0-8.3-5-13.7-14.9-16.2l-6.5-1.6
				c-5.5-1.3-5.5-2.7-5.5-3.9c0-2.8,2.2-4.4,5.8-4.4c3.6,0,7,1,11.8,3.5c0.5,0.3,1.1,0.3,1.6,0.1c0.6-0.2,1-0.6,1.3-1.1l3.7-7.6
				c0.5-1,0.1-2.3-0.9-2.8c-5.6-3-11.8-4.6-18.2-4.6c-2.9,0-5.7,0.4-8.5,1.3c-1.4-5-4.9-9.2-9.6-11.4c4.4-2,7.9-5,7.9-10.5
				c0-9.5-8.6-11.4-22.6-11.4c-12.7,0-15.1-2.3-15.1-6.3c0-4.6,4.7-7.4,12.7-7.4c5.3,0,11.6,1.2,11.6,6.6c-0.1,1.2-0.4,2.4-0.8,3.5
				c-0.4,1.1,0.1,2.3,1.1,2.8c0.3,0.1,0.6,0.2,0.9,0.2h12.8c0.9,0,1.7-0.6,2-1.4c0.8-2.3,1.2-4.7,1.4-7.2c0-11.9-10.9-18.7-30-18.7
				C203.4,0,192,8.5,192,22.1c0,13.4,11.5,19.4,22.9,19.4c5.1,0,11.4,0,13.3,0.4c-0.5,0.7-2.5,2.2-6.5,3.6
				c-15,0.1-25.4,8.6-25.4,20.7c0,2.7,0.6,5.4,1.8,7.9h-0.4c-4.5-0.1-8.9,1.5-12.2,4.5c-0.9,0.7-1,2-0.3,2.9l6.3,8.3
				c0.3,0.5,0.9,0.8,1.4,0.8h0.3c0.5,0,1-0.2,1.3-0.5c2.8-2.4,6.3-3.7,10-3.8c2.1,0.1,4.2,0.5,6.3,1.2c4.1,1.2,8.4,1.9,12.7,2
				c5.3,0.1,10.6-1.1,15.4-3.5c2.3,4,6.5,6.9,12.1,8.1l6.3,1.3c6.2,1.3,6.7,3.2,6.7,5v2.4h4.1v-4.2c-1-4.8-5.7-6.4-9.9-7.3l-6.3-1.4
				c-4.5-0.9-7.7-3.1-9.4-6.2c3.2-2.4,5.6-5.7,6.9-9.5c-0.2,0.8-0.4,1.7-0.4,2.6c0,5.2,4.1,7,8.6,8.1l6.5,1.6
				c10.4,2.6,11.6,8.1,11.6,12v4.2h4.3L279.8,98.6z"/>
			<path class="st0" d="M153.2,140.4v-15c0-3.1-0.7-3.9-2.6-3.9c-1.9,0.2-3.6,1.1-4.9,2.5v16.4h-4.8v-16.6c0.1-1.8-0.2-3.7-0.9-5.4
				l4.5-1.2c0.5,1,0.8,2.1,0.8,3.2c2.4-2.1,4.5-3.1,6.9-3.1c3.5,0,5.9,2.1,5.9,6.2v16.9H153.2z"/>
			<path class="st0" d="M168.6,130.4v0.4c0,3.1,1.2,6.4,5.6,6.4c2.1,0,4.1-0.8,5.6-2.2l1.9,3c-2.3,2-5.1,3-8.1,3
				c-6.4,0-10.4-4.6-10.4-11.8c0-4,0.9-6.6,2.8-8.8c1.7-2,4.3-3.1,6.9-3c2.3-0.1,4.5,0.8,6.2,2.3c2,1.8,3,4.6,3,9.8v1L168.6,130.4z
				 M172.9,121c-2.8,0-4.3,2.2-4.3,5.8h8.3C177,123.2,175.4,121,172.9,121L172.9,121z"/>
			<path class="st0" d="M192.3,117.8h5.4l-1.3,3.4h-4.1v12.7c0,2.8,0.6,3.6,2.8,3.6c0.7,0,1.4-0.2,2.1-0.4l0.6,2.9
				c-1.4,0.7-2.9,1-4.4,1c-4.4,0-5.9-2.6-5.9-5.8v-14h-2.5v-3.4h2.5c0-1.9,0-3.7,0.2-5.6l5-1.2C192.4,113.3,192.3,115.5,192.3,117.8
				z"/>
			<path class="st0" d="M223.3,140.5h-4.6l-2.7-10.4c-0.7-2.7-1.5-6.2-1.5-6.2h-0.1c0,0-0.4,2.2-1.5,6.4l-2.7,10.2h-4.6l-6.2-22.4
				l4.9-0.7l2.5,10.9c0.6,2.8,1.2,5.9,1.2,5.9h0.1c0.3-2,0.8-4.1,1.3-6.1l2.9-10.4h4.8l2.5,10.2c0.9,3.7,1.4,6.4,1.4,6.4h0.1
				c0,0,0.5-3.4,1.1-6.1l2.3-10.5h5.1L223.3,140.5z"/>
			<path class="st0" d="M252,129.2c0,7.3-3.9,11.8-10,11.8s-10-4.6-10-11.8c0-7.2,3.9-11.9,9.9-11.9
				C248.3,117.3,252,122.1,252,129.2z M237.5,128.8c0,6.6,1.6,8.5,4.6,8.5s4.5-2.4,4.5-8c0-6.4-1.8-8.3-4.6-8.3
				C238.8,121,237.5,123.3,237.5,128.8L237.5,128.8z"/>
			<path class="st0" d="M267.8,122.1c-0.4-0.2-0.9-0.3-1.4-0.3c-2,0-3.7,1.4-4.2,3.3v15.3h-4.9v-15.9c0.1-2.1-0.2-4.1-0.8-6.1
				l4.5-1.2c0.6,1.1,0.9,2.3,0.9,3.6c1.8-2.5,3.6-3.6,5.8-3.6c0.6,0,1.2,0.1,1.7,0.4L267.8,122.1z"/>
			<path class="st0" d="M272.7,140.4v-26.3c0-1.8-0.1-3.7-0.5-5.4l4.9-1.2c0.3,2,0.5,4,0.5,6v27L272.7,140.4z M286.5,140.4
				l-8.5-12.8l6.7-9.8h5.9l-7.7,9.6l9.5,13L286.5,140.4z"/>
		</g>
	</g>
</g>
</svg>
