<?xml version="1.0" encoding="utf-8"?>
<!-- Generator: Adobe Illustrator 24.0.3, SVG Export Plug-In . SVG Version: 6.00 Build 0)  -->
<svg version="1.1" id="Livello_1" xmlns="http://www.w3.org/2000/svg" xmlns:xlink="http://www.w3.org/1999/xlink" x="0px" y="0px"
	 viewBox="0 0 236.1 167.5" style="enable-background:new 0 0 236.1 167.5;" xml:space="preserve">
<style type="text/css">
	.st0{fill-rule:evenodd;clip-rule:evenodd;fill:#4646FF;}
	.st1{fill:#4646FF;}
</style>
<title>Risorsa 3</title>
<g id="Livello_2_1_">
	<g id="Layer_1">
		<g id="Ktu_Design_Center">
			<polygon class="st0" points="28.3,67.1 28.3,115.1 36.5,115.1 36.5,104.3 41.2,99.1 51,115.1 60.2,115.1 46.7,93.9 59.1,77.8 
				50.2,77.8 36.5,96 36.5,67.1 28.3,67.1 			"/>
			<path class="st0" d="M83.4,79.2h-8.4v-8.5h-5.7L67.1,79l-4.9,0.4v5.2l4.5,1.2V104c0,7.5,2.9,11.6,9.9,11.6
				c2.4,0.1,4.7-0.5,6.8-1.6l-0.7-5.1c-1,0.4-2.1,0.6-3.2,0.6c-2.8,0-4.6-1.5-4.6-5.1v-19h8.4C83.4,85.5,83.4,79.2,83.4,79.2z"/>
			<path class="st0" d="M110.6,105.7c-1.7,2.2-4.3,3.5-7.1,3.5c-4.2,0-6.2-2.6-6.2-7.5V77.8H89v23.8c0,8.7,4.2,14.1,11.8,14.1
				c3.9,0.1,7.6-1.4,10.3-4.2l0.4,3.5h7.3V77.8h-8.1L110.6,105.7L110.6,105.7z"/>
			<path class="st0" d="M19.6,137.2c-0.3,2.2-0.7,2.6-2.3,2.6h-1.2v2.1h2.8v9.6H22v-14.3H19.6z"/>
			<path class="st0" d="M26.1,147.5l-1.9,1.1c0.5,1.9,2.4,3.2,4.4,3.1c2.5,0.2,4.6-1.6,4.8-4.1c0-0.2,0-0.5,0-0.7v-5.2
				c0.1-2.4-1.7-4.4-4-4.5c-0.2,0-0.4,0-0.6,0c-3.1,0-4.8,1.7-4.8,4.8s1.6,4.3,4.1,4.3c0.8,0,1.7-0.2,2.4-0.7v1.6
				c0,1.4-0.7,2.1-2,2.1C27.4,149.2,26.4,148.5,26.1,147.5L26.1,147.5z M28.7,143.7c-1.1,0-1.6-0.4-1.6-2s0.5-2.1,1.7-2.1
				s1.7,0.5,1.7,1.8v1.2C30.5,143.4,29.5,143.7,28.7,143.7L28.7,143.7z"/>
			<path class="st0" d="M39.6,137.1c-2.3,0-4.3,1.6-4.8,3.9l2.3,0.8c0.3-1.4,1.2-2.1,2.2-2.1s1.7,0.6,1.7,1.5c0,2.8-5.9,4.4-6.1,9
				v1.3H44V149h-5.7c0.8-2.9,5.8-3.2,5.8-8C44,138.9,42.8,137.1,39.6,137.1L39.6,137.1z"/>
			<path class="st0" d="M50.2,137.1c-2.3,0-4.3,1.6-4.8,3.9l2.3,0.8c0.3-1.4,1.2-2.1,2.2-2.1s1.7,0.6,1.7,1.5c0,2.8-5.9,4.4-6.1,9
				v1.3h9.1V149h-5.7c0.8-2.9,5.8-3.2,5.8-8C54.6,138.9,53.3,137.1,50.2,137.1L50.2,137.1z"/>
			<path class="st0" d="M227.9,78.7c0.6-0.8,1.6-1.3,2.6-1.3c1.5,0,2.3,0.9,2.3,2.8v8.7h3v-8.7c0-3.2-1.5-5.2-4.4-5.2
				c-1.4-0.1-2.8,0.5-3.7,1.6l-0.1-1.3h-2.7v13.7h3L227.9,78.7L227.9,78.7z"/>
			<path class="st0" d="M191.9,82.2v-2.4c0.2-2.6-1.8-4.9-4.5-5.1c-0.2,0-0.4,0-0.6,0c-3.4,0-5.2,2.2-5.2,4.9v4.2c0,2.9,1.9,5,5.3,5
				c2.7,0,4.3-1.2,5.1-3.5l-2.1-0.8c-0.3,1.2-1.4,2-2.6,2c-1.7,0-2.6-1-2.6-2.8v-1.6H191.9z M184.5,79.6c0-1.6,0.7-2.6,2.3-2.6
				c1.2-0.1,2.3,0.8,2.4,2c0,0.2,0,0.3,0,0.5v0.9h-4.7V79.6z"/>
			<path class="st0" d="M223.4,100.9c-0.5-0.2-1-0.4-1.5-0.3c-1.4,0-2.6,0.7-3.4,2.5l-0.2-2.3h-2.6v13.7h3v-7.6
				c0.2-2.2,1.2-3.5,3-3.5c0.5,0,0.9,0.1,1.3,0.3L223.4,100.9L223.4,100.9z"/>
			<path class="st0" d="M203.3,77.8c-0.7-1.9-2.5-3.1-4.5-3c-3,0-4.7,1.7-4.7,3.9c0,4.5,6.5,3.6,6.5,6.3c0,1.1-0.6,1.8-1.9,1.8
				c-1.3,0-2.4-0.8-2.9-1.9l-1.9,1c0.8,1.9,2.7,3.2,4.8,3c2.7,0,4.7-1.8,4.7-4.1c0-4.6-6.5-3.8-6.5-6.3c0-0.9,0.6-1.5,1.9-1.5
				c1.1-0.1,2.2,0.6,2.6,1.7L203.3,77.8L203.3,77.8z"/>
			<path class="st0" d="M205.7,75.7v13.1h3V75.7H205.7z M205.9,71.2v2.6h2.6v-2.6H205.9z"/>
			<path class="st0" d="M216.6,83.4c3.5,0,5.1-1.4,5.1-4.1c0-0.8-0.1-1.5-0.5-2.2c0.7-0.6,1.2-1.5,1.4-2.5l-1.4-0.6
				c-0.3,0.7-0.9,1.3-1.5,1.6c-1-0.4-2-0.6-3.1-0.6c-3.4,0-4.9,1.4-4.9,4.2c-0.1,1.2,0.4,2.3,1.2,3.1c-1,0.3-1.7,1.2-1.7,2.3
				c0,0.9,0.5,1.7,1.3,2.1c-0.6,0.5-1,1.3-1,2.2c0,1.8,1.4,3.1,5.2,3.1s5.9-1.5,5.9-4c0-1.9-1.2-3.2-4.5-3.2h-3.1
				c-1.1,0-1.4-0.3-1.4-0.8c0-0.3,0.3-0.7,0.8-0.9C215,83.4,215.8,83.4,216.6,83.4L216.6,83.4z M214.5,79.3c0-1.6,0.5-2.1,2.1-2.1
				s2.2,0.5,2.2,2.1s-0.5,2.1-2.2,2.1S214.5,80.9,214.5,79.3z M217.9,87.2c1.6,0,2,0.3,2,1.2s-0.5,1.7-3.2,1.7
				c-1.9,0-2.8-0.4-2.8-1.4c0-0.6,0.2-1.1,0.7-1.4H217.9z"/>
			<path class="st0" d="M177.1,103.7c-0.7-2-2.6-3.4-4.8-3.3c-2.6-0.2-4.9,1.7-5.1,4.3c0,0.2,0,0.5,0,0.7v4.2
				c-0.1,2.6,1.9,4.9,4.5,5c0.2,0,0.5,0,0.7,0c2.2,0.1,4.2-1.3,4.9-3.4l-2.1-0.8c-0.3,1.1-1.3,1.9-2.4,1.8c-1.6,0-2.4-0.9-2.4-2.8
				v-4c0-1.9,0.9-2.7,2.4-2.7c1.1,0,2.1,0.6,2.4,1.7L177.1,103.7z"/>
			<path class="st0" d="M189.8,107.8v-2.4c0.2-2.6-1.9-4.9-4.5-5.1c-0.2,0-0.4,0-0.6,0c-3.4,0-5.2,2.2-5.2,5v4.2c0,2.9,1.9,5,5.3,5
				c2.7,0,4.3-1.2,5.1-3.5l-2.1-0.8c-0.3,1.2-1.4,2.1-2.6,2c-1.7,0-2.6-1-2.6-2.8v-1.6L189.8,107.8z M182.5,105.2
				c0-1.6,0.7-2.6,2.3-2.6c1.2-0.1,2.3,0.8,2.4,2c0,0.2,0,0.3,0,0.5v0.9h-4.7C182.5,106.1,182.5,105.2,182.5,105.2z"/>
			<path class="st0" d="M235,107.8v-2.4c0.2-2.6-1.9-4.9-4.5-5.1c-0.2,0-0.4,0-0.6,0c-3.4,0-5.2,2.2-5.2,5v4.2c0,2.9,1.9,5,5.3,5
				c2.7,0,4.3-1.2,5.1-3.5l-2.1-0.8c-0.3,1.2-1.4,2.1-2.6,2c-1.7,0-2.6-1-2.6-2.8v-1.6L235,107.8z M227.7,105.2
				c0-1.6,0.7-2.6,2.3-2.6c1.2-0.1,2.3,0.8,2.4,2c0,0.2,0,0.3,0,0.5v0.9h-4.7C227.7,106.1,227.7,105.2,227.7,105.2z"/>
			<path class="st0" d="M195.4,104.3c0.6-0.8,1.6-1.3,2.6-1.3c1.5,0,2.3,0.9,2.3,2.8v8.7h3v-8.7c0-3.2-1.5-5.2-4.4-5.2
				c-1.4-0.1-2.8,0.5-3.7,1.6l-0.1-1.3h-2.7v13.7h3L195.4,104.3L195.4,104.3z"/>
			<path class="st0" d="M212.9,101.1h-3.1V98h-2.1l-0.8,3l-1.8,0.1v1.9l1.6,0.4v6.7c0,2.7,1.1,4.2,3.6,4.2c0.9,0,1.7-0.2,2.5-0.6
				l-0.3-1.9c-0.4,0.1-0.8,0.2-1.2,0.2c-1,0-1.7-0.6-1.7-1.9v-7h3.1L212.9,101.1L212.9,101.1z"/>
			<path class="st1" d="M236.1,123.5h-89.3V0H0v167.5h146.8v-40H236L236.1,123.5z M138.7,159.5H8.1V8.1h130.6v115.4H28v4h110.7
				L138.7,159.5z"/>
			<path class="st0" d="M172.8,75c-3,0-4.5,2-4.5,5.2v3.8c0,3.2,1.5,5.2,4.3,5.2c1.4,0.1,2.8-0.5,3.7-1.5l0.2,1.3h2.7V71.2h-3v5
				C175.2,75.4,174,75,172.8,75z M176.1,85.4c-0.6,0.8-1.6,1.3-2.6,1.3c-1.5,0-2.3-1-2.3-2.7v-3.7c0-1.9,0.8-2.8,2.3-2.8
				c1,0,1.9,0.4,2.5,1.2V85.4L176.1,85.4z"/>
		</g>
	</g>
</g>
</svg>
