<?xml version="1.0" encoding="utf-8"?>
<!-- Generator: Adobe Illustrator 24.0.3, SVG Export Plug-In . SVG Version: 6.00 Build 0)  -->
<svg version="1.1" id="Livello_1" xmlns="http://www.w3.org/2000/svg" xmlns:xlink="http://www.w3.org/1999/xlink" x="0px" y="0px"
	 viewBox="0 0 187.7 145.1" style="enable-background:new 0 0 187.7 145.1;" xml:space="preserve">
<style type="text/css">
	.st0{fill:#4646FF;}
</style>
<title>Risorsa 2</title>
<g id="Livello_2_1_">
	<g id="Layer_1">
		<g id="Siam">
			<path class="st0" d="M23.7,74.2c0.5-0.4,2.2-0.6,4.9-0.6H32c1.2,0,1.8-0.4,1.8-1.1s-0.5-1-1.5-1H17.2l-5.7,0.1
				c-3.5-0.1-6-0.1-7.5-0.1c-1,0-1.4,0.3-1.4,0.8c0,0.8,0.7,1.2,2.1,1.2c4.4-0.1,7,0.1,7.8,0.5s1.3,1.8,1.3,4v35.6
				c0,1.9-0.3,3.1-0.9,3.7c-0.9,0.6-1.9,0.8-3,0.8c-3.8,0.1-6,0.2-6.7,0.2s-1,0.4-1,0.9s0.5,0.9,1.5,0.9h28.7c1,0.1,1.5-0.2,1.5-1
				s-0.5-1.2-1.5-1.1h-2.5c-3.3,0.2-5.3,0-6-0.4s-1-1.7-1-3.9V77.8C22.9,75.8,23.2,74.6,23.7,74.2"/>
			<path class="st0" d="M71.9,64.5c0,10.7-3.3,16.1-9.8,16.1c-7.3,0-10.9-5.2-10.9-15.7c0-1.4,0.1-2.7,0.2-4.1h-10
				c-0.3,1.3-0.4,2.7-0.4,4c0,9.4,5.9,14.9,17.6,16.6l0.1,0.4c-5.3,1-9.4,2.6-12.3,4.8c-5.4,3.9-8.1,9-8.1,15.3
				c0,5.5,2.3,10.1,7,13.8c4.7,3.7,10.5,5.6,17.5,5.6c5.9,0.2,11.6-1.9,16.1-5.8c4.2-3.6,6.6-8.8,6.6-14.4c0-5.5-2.4-10.2-7.1-13.8
				c-2.9-2.3-7.3-4.1-13-5.3l0.1-0.3c11.1-2.9,16.6-8.4,16.6-16.7c0-1.4-0.1-2.8-0.4-4.1h-9.9C71.9,61.9,71.9,63.2,71.9,64.5
				 M71.7,87.6c2.4,3.2,3.6,7.5,3.6,13.1c0,5.8-1.1,10.4-3.3,13.6c-2,3.2-5.6,5-9.3,4.9c-4,0.1-7.9-1.7-10.4-4.8
				c-2.7-3.2-4-7.4-4-12.6c0-5.4,1.3-9.9,3.9-13.5c2.6-3.6,5.8-5.4,9.6-5.4C65.7,82.7,69.4,84.4,71.7,87.6"/>
			<path class="st0" d="M125.7,106.3c-3.3-2.1-7.9-3.1-13.6-3.2l0.1-0.3c6.1-0.6,10.9-2.4,14.6-5.5c3.5-2.8,5.5-7.1,5.5-11.5
				c0.1-4.4-2-8.5-5.5-11.1c-3.6-2.9-8.5-4.3-14.6-4.3c-5.3,0-9.7,1.2-13,3.6c-3.1,2-5,5.5-5,9.3c0,1.8,0.6,3.4,1.8,4.7
				c1.1,1.3,2.8,2,4.5,2c1.3,0,2.6-0.4,3.5-1.3c0.9-0.9,1.4-2.1,1.4-3.3c0-2.4-1.4-3.9-4.2-4.5c-1.8-0.4-2.8-0.9-2.8-1.7
				c0-1,0.8-2.2,2.3-3.4c1.9-1.6,4.7-2.3,8.4-2.3c2.7-0.1,5.4,0.6,7.8,2c3.5,2.5,5.2,6.2,5.2,11c0,4.2-1,7.6-2.9,10.2
				c-1.3,1.6-2.9,2.9-4.8,3.8c-1.9,1-4,1.7-6.2,2c-1.9,0.2-2.9,0.6-2.9,1.2s1.3,1.1,3.8,1.1c4.1,0.1,7.1,1,9.1,2.7
				c3.8,3.4,5.8,8,5.8,13.9c0,7.1-1.9,12.8-5.6,17.1c-2.7,3.2-6.8,5-11,4.9c-2,0-4-0.4-5.9-1.2c-2.1-0.8-3.1-1.6-3.1-2.3
				c0-0.4,0.3-0.8,0.6-1.1c2.1-2.1,3.1-3.9,3.1-5.4c0-3.2-1.8-4.9-5.3-4.9c-1.6-0.1-3.1,0.5-4.3,1.6c-1.1,1-1.7,2.5-1.7,4
				c0,3.2,1.7,5.9,5,8.1c3.6,2.3,7.7,3.5,12,3.4c6.9,0.2,13.7-2.3,18.9-6.9c5.2-4.6,7.8-10.1,7.8-16.6
				C134.6,115.2,131.6,110,125.7,106.3"/>
			<path class="st0" d="M174.1,64.5c0,10.7-3.3,16.1-9.9,16.1c-7.2,0-10.9-5.2-10.9-15.7c0-1.4,0.1-2.7,0.2-4.1h-10
				c-0.3,1.3-0.4,2.7-0.4,4c0,9.4,5.9,14.9,17.6,16.6l0.1,0.4c-5.3,1-9.4,2.6-12.3,4.8c-5.4,3.9-8.1,9-8.1,15.3
				c0,5.5,2.4,10.1,7.1,13.8c4.7,3.7,10.5,5.6,17.5,5.6c5.9,0.2,11.6-1.9,16.1-5.8c4.2-3.6,6.6-8.8,6.5-14.4
				c0-5.5-2.4-10.2-7.1-13.8c-2.9-2.3-7.3-4.1-13-5.3l0.1-0.3c11.1-2.9,16.6-8.4,16.6-16.7c0-1.4-0.1-2.8-0.4-4.1H174
				C174.1,62,174.2,63.3,174.1,64.5 M174,87.6c2.4,3.2,3.6,7.5,3.6,13.1c0,5.8-1.1,10.4-3.3,13.6c-2,3.2-5.6,5-9.3,4.9
				c-4,0.1-7.9-1.7-10.4-4.8c-2.7-3.2-4-7.4-4-12.6c-0.2-4.8,1.2-9.5,3.9-13.5c2.6-3.6,5.8-5.4,9.6-5.4
				C168,82.7,171.7,84.4,174,87.6"/>
			<path class="st0" d="M39.4,41.7c0-20.3-27-14.2-27-25.7c0-3.4,3-7.1,9.5-7.1c4.1,0.1,8,1.8,10.9,4.8l6.5-6.5
				C34.4,2.4,27.9-0.2,21.1,0c-13.2,0-20,8-20,16.6c0,20,27,13.9,27,25.5c0,4.6-3.9,8.5-9.8,8.5c-4.4,0.1-8.7-1.7-11.8-4.8L0,52.3
				c0.6,0.6,1.2,1.1,1.9,1.6h32.6C37.7,50.7,39.5,46.3,39.4,41.7"/>
			<rect x="48.7" y="1.1" class="st0" width="10.9" height="52.8"/>
			<path class="st0" d="M82.5,45.1h22l3,8.8H119L99.4,1.1H87.7L68,53.9h11.5L82.5,45.1z M93.5,13.4l7.9,22.8H85.6L93.5,13.4z"/>
			<polygon class="st0" points="137.5,12.1 149.9,53.9 164.6,53.9 176.9,12.1 176.9,53.9 187,53.9 187,1.1 171,1.1 157.2,47.4 
				143.5,1.1 127.5,1.1 127.5,53.9 137.5,53.9 			"/>
		</g>
	</g>
</g>
</svg>
