<?xml version="1.0" encoding="utf-8"?>
<!-- Generator: Adobe Illustrator 24.0.3, SVG Export Plug-In . SVG Version: 6.00 Build 0)  -->
<svg version="1.1" id="Livello_1" xmlns="http://www.w3.org/2000/svg" xmlns:xlink="http://www.w3.org/1999/xlink" x="0px" y="0px"
	 viewBox="0 0 348.6 58.8" style="enable-background:new 0 0 348.6 58.8;" xml:space="preserve">
<style type="text/css">
	.st0{fill:#4646FF;}
</style>
<title>Risorsa 5</title>
<g id="Livello_2_1_">
	<g id="Layer_1">
		<g id="Design_Friedns">
			<path class="st0" d="M26.5,40.4c-3.6,4.7-7.4,6.1-15.5,6.1H0.2V3h9c8.2,0,13,1.5,17.1,6.2c3.2,3.7,4.7,8.9,4.7,15.7
				C31,31.5,29.4,36.7,26.5,40.4z M20.2,12.5c-2-2.8-4.3-3.8-8.2-3.8H7.5v31.9h4.8c7.7,0,10.8-5.1,10.8-15
				C23,20.1,22.5,15.6,20.2,12.5z"/>
			<path class="st0" d="M42.6,32.5V33c0,4.4,1.6,9.1,7.9,9.1c2.9,0,5.8-1.1,7.9-3.2l2.7,4.2c-3.2,2.8-7.2,4.3-11.5,4.2
				c-9,0-14.6-6.5-14.6-16.7c0-5.6,1.2-9.3,4-12.5c2.4-2.8,6-4.4,9.7-4.2c3.2-0.1,6.4,1.1,8.7,3.3c2.8,2.5,4.2,6.4,4.2,13.8v1.4
				L42.6,32.5z M48.7,19.2c-3.9,0-6,3.1-6,8.2h11.7C54.4,22.3,52.2,19.2,48.7,19.2z"/>
			<path class="st0" d="M76,47.4c-4.3-0.1-8.5-1.3-12.2-3.5l2.5-5c2.8,1.6,6.7,3.3,10.3,3.3c3,0,5.2-1.8,5.2-4.5
				c0-2.5-1.6-3.7-5.2-4.5l-3.8-0.8c-4.8-1-7.6-4.3-7.6-8.7c0-6,4.8-10.1,11.8-10.1c3.7,0,7.3,1,10.5,2.8l-2.3,4.8
				c-2.4-1.4-5-2.2-7.8-2.3c-3,0-4.8,1.6-4.8,4.1c0,2,1.1,3,4.3,3.8l4,1c6.4,1.6,8.1,5.2,8.1,8.9C88.9,43,83.7,47.4,76,47.4z"/>
			<path class="st0" d="M93,5.4c0-2.5,2.1-4.6,4.6-4.5c2.5,0,4.6,2.1,4.5,4.6c0,2.5-2.1,4.6-4.6,4.5c0,0,0,0,0,0C95,10,93,8,93,5.4
				C93,5.5,93,5.4,93,5.4z M94,46.5V15.2l7-1.2v32.5H94z"/>
			<path class="st0" d="M132.8,19.8c-0.8,0-1.7-0.1-2.4-0.4c1.3,1.6,2.1,3.5,2.1,5.6c0,5.5-4.6,9.7-12.1,9.7c-2.3,0.8-4.3,2-4.3,3
				c0,1.2,0.4,1.3,7.9,1.3c5.1,0,10.6,2.6,10.6,9.1c0,6.8-5.6,10.4-14.1,10.4c-8.2,0-14.2-2.7-14.2-8.7c0.1-1.2,0.3-2.3,0.6-3.4h6.5
				c-0.3,0.7-0.5,1.5-0.5,2.3c0,3,2.5,4.6,7,4.6c4.9,0,7.6-2,7.6-5c0-3.5-2.9-4.4-8.8-4.4c-8.6,0-10.4-1.7-10.4-4.8s2.6-4.4,6-5.5
				c-4.8-1.4-7.2-4.5-7.2-9c0-6.4,5.1-10.7,12.7-10.7c4.5,0,7.1,1.6,9.7,1.6c2.1,0,4.2-0.8,5.8-2.2l3.2,4.3
				C136.8,19.2,134.8,19.9,132.8,19.8z M114.1,24.7c0,3.6,2.1,5.3,5.5,5.3c3.6,0,5.5-1.9,5.5-5.4s-1.8-5.5-5.5-5.5
				S114.1,21.1,114.1,24.7z"/>
			<path class="st0" d="M157.6,46.5V25.4c0-4.3-1-5.5-3.6-5.5c-2,0-4.9,1.5-7,3.6v23.1h-6.8V23.1c0.1-2.6-0.3-5.1-1.2-7.5l6.3-1.8
				c0.8,1.4,1.2,2.9,1.1,4.5c3.4-2.9,6.4-4.4,9.7-4.4c4.9,0,8.3,2.9,8.3,8.8v23.8H157.6z"/>
			<path class="st0" d="M194.6,9h-14.9v11.8h12.1v5.8h-12.1v19.9h-7.2V3h23L194.6,9z"/>
			<path class="st0" d="M213.6,20.8c-0.6-0.3-1.3-0.4-2-0.5c-2.8,0-5.3,2-6,4.7v21.5h-6.9V24.1c0.1-2.9-0.3-5.8-1.1-8.5l6.4-1.6
				c0.8,1.6,1.2,3.3,1.2,5c2.5-3.5,5-5.1,8.1-5.1c0.8,0,1.7,0.1,2.4,0.5L213.6,20.8z"/>
			<path class="st0" d="M217.3,5.4c0-2.5,2.1-4.6,4.6-4.5c2.5,0,4.6,2.1,4.5,4.6c0,2.5-2.1,4.6-4.6,4.5c0,0-0.1,0-0.1,0
				C219.2,10,217.2,7.9,217.3,5.4C217.3,5.4,217.3,5.4,217.3,5.4z M218.3,46.5V15.2l7-1.2v32.6H218.3z"/>
			<path class="st0" d="M238.1,32.5V33c0,4.4,1.6,9.1,7.9,9.1c2.9,0,5.8-1.1,7.9-3.2l2.7,4.2c-3.2,2.8-7.2,4.3-11.4,4.2
				c-9,0-14.6-6.5-14.6-16.7c0-5.6,1.2-9.3,4-12.5c2.4-2.8,6-4.4,9.7-4.2c3.2-0.1,6.4,1,8.8,3.2c2.8,2.5,4.1,6.4,4.1,13.8v1.4H238.1
				z M244.2,19.2c-3.9,0-6,3.1-6,8.2H250C250,22.3,247.7,19.2,244.2,19.2L244.2,19.2z"/>
			<path class="st0" d="M280.1,46.5V25.4c0-4.3-1-5.5-3.6-5.5c-2,0-4.9,1.5-7,3.6v23.1h-6.8V23.1c0.1-2.6-0.3-5.1-1.2-7.5l6.3-1.8
				c0.8,1.4,1.1,2.9,1.1,4.5c3.4-2.9,6.4-4.4,9.8-4.4c4.9,0,8.3,2.9,8.3,8.8v23.8H280.1z"/>
			<path class="st0" d="M313.4,46.5c-0.3-0.8-0.5-1.6-0.6-2.5c-2,2.1-4.9,3.2-7.8,3.1c-8.1,0-13-6.3-13-16.3s5.5-16.8,13.2-16.8
				c2.6-0.1,5.1,1,6.9,2.9c0,0-0.2-2.5-0.2-5.2V0.2l6.9,1.1v34.2c0,6.3,0.4,9.5,1,11.1H313.4z M311.9,22.3c-1.5-1.7-3.6-2.6-5.8-2.6
				c-4.4,0-6.4,3.5-6.4,11.2c0,7,1.4,10.6,6.6,10.6c2.3,0,4.4-1.1,5.6-3V22.3z"/>
			<path class="st0" d="M335.5,47.4c-4.3-0.1-8.5-1.3-12.2-3.5l2.5-5c2.8,1.6,6.7,3.3,10.3,3.3c3,0,5.1-1.8,5.1-4.5
				c0-2.5-1.6-3.7-5.1-4.5l-3.8-0.8c-4.8-1-7.6-4.3-7.6-8.7c0-6,4.8-10.1,11.8-10.1c3.7,0,7.3,1,10.5,2.8l-2.3,4.8
				c-2.4-1.4-5-2.2-7.8-2.3c-3,0-4.8,1.6-4.8,4.1c0,2,1.1,3,4.3,3.8l4,1c6.4,1.6,8.1,5.2,8.1,8.9C348.4,43,343.2,47.4,335.5,47.4z"
				/>
		</g>
	</g>
</g>
</svg>
