<svg xmlns="http://www.w3.org/2000/svg" xmlns:xlink="http://www.w3.org/1999/xlink" viewBox="0 0 382.53 419.13"><defs><style>.cls-1,.cls-3,.cls-4{fill:none;}.cls-2{fill:#4646ff;}.cls-3,.cls-4{stroke:#4646ff;stroke-miterlimit:10;}.cls-3{stroke-width:1.42px;}.cls-4{stroke-width:1.98px;}.cls-5{fill:#61ff72;}.cls-6{clip-path:url(#clip-path);}.cls-7{fill:url(#Sfumatura_senza_nome_112);}.cls-8{clip-path:url(#clip-path-2);}.cls-9{fill:url(#Sfumatura_senza_nome_112-2);}.cls-10{clip-path:url(#clip-path-3);}.cls-11{fill:url(#Sfumatura_senza_nome_112-3);}.cls-12{clip-path:url(#clip-path-4);}.cls-13{fill:url(#Sfumatura_senza_nome_112-4);}.cls-14{clip-path:url(#clip-path-5);}.cls-15{fill:url(#Sfumatura_senza_nome_112-5);}.cls-16{clip-path:url(#clip-path-6);}.cls-17{fill:url(#Sfumatura_senza_nome_112-6);}.cls-18{clip-path:url(#clip-path-7);}.cls-19{fill:url(#Sfumatura_senza_nome_112-7);}.cls-20{clip-path:url(#clip-path-8);}.cls-21{fill:url(#Sfumatura_senza_nome_112-8);}.cls-22{clip-path:url(#clip-path-9);}.cls-23{fill:url(#Sfumatura_senza_nome_112-9);}.cls-24{clip-path:url(#clip-path-10);}.cls-25{fill:url(#Sfumatura_senza_nome_112-10);}.cls-26{clip-path:url(#clip-path-11);}.cls-27{fill:url(#Sfumatura_senza_nome_112-11);}.cls-28{clip-path:url(#clip-path-12);}.cls-29{fill:url(#Sfumatura_senza_nome_112-12);}.cls-30{clip-path:url(#clip-path-13);}.cls-31{fill:url(#Sfumatura_senza_nome_112-13);}.cls-32{clip-path:url(#clip-path-14);}.cls-33{fill:url(#Sfumatura_senza_nome_112-14);}.cls-34{clip-path:url(#clip-path-15);}.cls-35{fill:url(#Sfumatura_senza_nome_112-15);}.cls-36{clip-path:url(#clip-path-16);}.cls-37{fill:url(#Sfumatura_senza_nome_112-16);}.cls-38{clip-path:url(#clip-path-17);}.cls-39{fill:url(#Sfumatura_senza_nome_112-17);}.cls-40{clip-path:url(#clip-path-18);}.cls-41{fill:url(#Sfumatura_senza_nome_112-18);}.cls-42{clip-path:url(#clip-path-19);}.cls-43{fill:url(#Sfumatura_senza_nome_112-19);}.cls-44{clip-path:url(#clip-path-20);}.cls-45{fill:url(#Sfumatura_senza_nome_112-20);}.cls-46{clip-path:url(#clip-path-21);}.cls-47{fill:url(#Sfumatura_senza_nome_112-21);}.cls-48{clip-path:url(#clip-path-22);}.cls-49{fill:url(#Sfumatura_senza_nome_112-22);}.cls-50{clip-path:url(#clip-path-23);}.cls-51{fill:url(#Sfumatura_senza_nome_112-23);}.cls-52{clip-path:url(#clip-path-24);}.cls-53{fill:url(#Sfumatura_senza_nome_112-24);}.cls-54{clip-path:url(#clip-path-25);}.cls-55{fill:url(#Sfumatura_senza_nome_112-25);}.cls-56{clip-path:url(#clip-path-26);}.cls-57{fill:url(#Sfumatura_senza_nome_112-26);}.cls-58{clip-path:url(#clip-path-27);}.cls-59{fill:url(#Sfumatura_senza_nome_112-27);}.cls-60{clip-path:url(#clip-path-28);}.cls-61{fill:url(#Sfumatura_senza_nome_112-28);}.cls-62{clip-path:url(#clip-path-29);}.cls-63{fill:url(#Sfumatura_senza_nome_112-29);}.cls-64{clip-path:url(#clip-path-30);}.cls-65{fill:url(#Sfumatura_senza_nome_112-30);}.cls-66{clip-path:url(#clip-path-31);}.cls-67{fill:url(#Sfumatura_senza_nome_112-31);}.cls-68{clip-path:url(#clip-path-32);}.cls-69{fill:url(#Sfumatura_senza_nome_112-32);}.cls-70{clip-path:url(#clip-path-33);}.cls-71{fill:url(#Sfumatura_senza_nome_112-33);}.cls-72{clip-path:url(#clip-path-34);}.cls-73{fill:url(#Sfumatura_senza_nome_112-34);}.cls-74{clip-path:url(#clip-path-35);}.cls-75{fill:url(#Sfumatura_senza_nome_112-35);}.cls-76{clip-path:url(#clip-path-36);}.cls-77{fill:url(#Sfumatura_senza_nome_112-36);}.cls-78{clip-path:url(#clip-path-37);}.cls-79{fill:url(#Sfumatura_senza_nome_112-37);}.cls-80{clip-path:url(#clip-path-38);}.cls-81{fill:url(#Sfumatura_senza_nome_112-38);}.cls-82{clip-path:url(#clip-path-39);}.cls-83{fill:url(#Sfumatura_senza_nome_112-39);}.cls-84{clip-path:url(#clip-path-40);}.cls-85{fill:url(#Sfumatura_senza_nome_112-40);}.cls-86{clip-path:url(#clip-path-41);}.cls-87{fill:url(#Sfumatura_senza_nome_112-41);}.cls-88{clip-path:url(#clip-path-42);}.cls-89{fill:url(#Sfumatura_senza_nome_112-42);}.cls-90{clip-path:url(#clip-path-43);}.cls-91{fill:url(#Sfumatura_senza_nome_112-43);}.cls-92{clip-path:url(#clip-path-44);}.cls-93{fill:url(#Sfumatura_senza_nome_112-44);}.cls-94{clip-path:url(#clip-path-45);}.cls-95{fill:url(#Sfumatura_senza_nome_112-45);}.cls-96{clip-path:url(#clip-path-46);}.cls-97{fill:url(#Sfumatura_senza_nome_112-46);}.cls-98{clip-path:url(#clip-path-47);}.cls-99{fill:url(#Sfumatura_senza_nome_112-47);}.cls-100{clip-path:url(#clip-path-48);}.cls-101{fill:url(#Sfumatura_senza_nome_112-48);}.cls-102{clip-path:url(#clip-path-49);}.cls-103{fill:url(#Sfumatura_senza_nome_112-49);}.cls-104{clip-path:url(#clip-path-50);}.cls-105{fill:url(#Sfumatura_senza_nome_112-50);}.cls-106{clip-path:url(#clip-path-51);}.cls-107{fill:url(#Sfumatura_senza_nome_112-51);}.cls-108{clip-path:url(#clip-path-52);}.cls-109{fill:url(#Sfumatura_senza_nome_112-52);}.cls-110{clip-path:url(#clip-path-53);}.cls-111{fill:url(#Sfumatura_senza_nome_112-53);}.cls-112{clip-path:url(#clip-path-54);}.cls-113{fill:url(#Sfumatura_senza_nome_112-54);}.cls-114{clip-path:url(#clip-path-55);}.cls-115{fill:url(#Sfumatura_senza_nome_112-55);}.cls-116{clip-path:url(#clip-path-56);}.cls-117{fill:url(#Sfumatura_senza_nome_112-56);}.cls-118{clip-path:url(#clip-path-57);}.cls-119{fill:url(#Sfumatura_senza_nome_112-57);}.cls-120{clip-path:url(#clip-path-58);}.cls-121{fill:url(#Sfumatura_senza_nome_112-58);}.cls-122{clip-path:url(#clip-path-59);}.cls-123{fill:url(#Sfumatura_senza_nome_112-59);}.cls-124{clip-path:url(#clip-path-60);}.cls-125{fill:url(#Sfumatura_senza_nome_112-60);}.cls-126{clip-path:url(#clip-path-61);}.cls-127{fill:url(#Sfumatura_senza_nome_112-61);}.cls-128{clip-path:url(#clip-path-62);}.cls-129{fill:url(#Sfumatura_senza_nome_112-62);}.cls-130{clip-path:url(#clip-path-63);}.cls-131{fill:url(#Sfumatura_senza_nome_112-63);}.cls-132{clip-path:url(#clip-path-64);}.cls-133{fill:url(#Sfumatura_senza_nome_112-64);}.cls-134{clip-path:url(#clip-path-65);}.cls-135{fill:url(#Sfumatura_senza_nome_112-65);}.cls-136{clip-path:url(#clip-path-66);}.cls-137{fill:url(#Sfumatura_senza_nome_112-66);}.cls-138{clip-path:url(#clip-path-67);}.cls-139{fill:url(#Sfumatura_senza_nome_112-67);}.cls-140{clip-path:url(#clip-path-68);}.cls-141{fill:url(#Sfumatura_senza_nome_112-68);}.cls-142{clip-path:url(#clip-path-69);}.cls-143{fill:url(#Sfumatura_senza_nome_112-69);}.cls-144{clip-path:url(#clip-path-70);}.cls-145{fill:url(#Sfumatura_senza_nome_112-70);}.cls-146{clip-path:url(#clip-path-71);}.cls-147{fill:url(#Sfumatura_senza_nome_112-71);}.cls-148{clip-path:url(#clip-path-72);}.cls-149{fill:url(#Sfumatura_senza_nome_112-72);}.cls-150{clip-path:url(#clip-path-73);}.cls-151{fill:url(#Sfumatura_senza_nome_112-73);}.cls-152{clip-path:url(#clip-path-74);}.cls-153{fill:url(#Sfumatura_senza_nome_112-74);}.cls-154{clip-path:url(#clip-path-75);}.cls-155{fill:url(#Sfumatura_senza_nome_112-75);}.cls-156{clip-path:url(#clip-path-76);}.cls-157{fill:url(#Sfumatura_senza_nome_112-76);}.cls-158{clip-path:url(#clip-path-77);}.cls-159{fill:url(#Sfumatura_senza_nome_112-77);}.cls-160{clip-path:url(#clip-path-78);}.cls-161{fill:url(#Sfumatura_senza_nome_112-78);}.cls-162{clip-path:url(#clip-path-79);}.cls-163{fill:url(#Sfumatura_senza_nome_112-79);}.cls-164{clip-path:url(#clip-path-80);}.cls-165{fill:url(#Sfumatura_senza_nome_112-80);}.cls-166{clip-path:url(#clip-path-81);}.cls-167{fill:url(#Sfumatura_senza_nome_112-81);}.cls-168{clip-path:url(#clip-path-82);}.cls-169{fill:url(#Sfumatura_senza_nome_112-82);}.cls-170{clip-path:url(#clip-path-83);}.cls-171{fill:url(#Sfumatura_senza_nome_112-83);}.cls-172{clip-path:url(#clip-path-84);}.cls-173{fill:url(#Sfumatura_senza_nome_112-84);}.cls-174{clip-path:url(#clip-path-85);}.cls-175{fill:url(#Sfumatura_senza_nome_112-85);}.cls-176{clip-path:url(#clip-path-86);}.cls-177{fill:url(#Sfumatura_senza_nome_112-86);}.cls-178{clip-path:url(#clip-path-87);}.cls-179{fill:url(#Sfumatura_senza_nome_112-87);}.cls-180{clip-path:url(#clip-path-88);}.cls-181{fill:url(#Sfumatura_senza_nome_112-88);}.cls-182{clip-path:url(#clip-path-89);}.cls-183{fill:url(#Sfumatura_senza_nome_112-89);}.cls-184{clip-path:url(#clip-path-90);}.cls-185{fill:url(#Sfumatura_senza_nome_112-90);}.cls-186{clip-path:url(#clip-path-91);}.cls-187{fill:url(#Sfumatura_senza_nome_112-91);}.cls-188{clip-path:url(#clip-path-92);}.cls-189{fill:url(#Sfumatura_senza_nome_112-92);}.cls-190{clip-path:url(#clip-path-93);}.cls-191{fill:url(#Sfumatura_senza_nome_112-93);}.cls-192{clip-path:url(#clip-path-94);}.cls-193{fill:url(#Sfumatura_senza_nome_112-94);}.cls-194{clip-path:url(#clip-path-95);}.cls-195{fill:url(#Sfumatura_senza_nome_112-95);}.cls-196{clip-path:url(#clip-path-96);}.cls-197{fill:url(#Sfumatura_senza_nome_112-96);}.cls-198{clip-path:url(#clip-path-97);}.cls-199{fill:url(#Sfumatura_senza_nome_112-97);}.cls-200{clip-path:url(#clip-path-98);}.cls-201{fill:url(#Sfumatura_senza_nome_112-98);}.cls-202{clip-path:url(#clip-path-99);}.cls-203{fill:url(#Sfumatura_senza_nome_112-99);}.cls-204{clip-path:url(#clip-path-100);}.cls-205{fill:url(#Sfumatura_senza_nome_112-100);}.cls-206{clip-path:url(#clip-path-101);}.cls-207{fill:url(#Sfumatura_senza_nome_112-101);}.cls-208{clip-path:url(#clip-path-102);}.cls-209{fill:url(#Sfumatura_senza_nome_112-102);}.cls-210{clip-path:url(#clip-path-103);}.cls-211{fill:url(#Sfumatura_senza_nome_112-103);}.cls-212{clip-path:url(#clip-path-104);}.cls-213{fill:url(#Sfumatura_senza_nome_112-104);}.cls-214{clip-path:url(#clip-path-105);}.cls-215{fill:url(#Sfumatura_senza_nome_112-105);}.cls-216{clip-path:url(#clip-path-106);}.cls-217{fill:url(#Sfumatura_senza_nome_112-106);}.cls-218{clip-path:url(#clip-path-107);}.cls-219{fill:url(#Sfumatura_senza_nome_112-107);}.cls-220{clip-path:url(#clip-path-108);}.cls-221{fill:url(#Sfumatura_senza_nome_112-108);}.cls-222{clip-path:url(#clip-path-109);}.cls-223{fill:url(#Sfumatura_senza_nome_112-109);}.cls-224{clip-path:url(#clip-path-110);}.cls-225{fill:url(#Sfumatura_senza_nome_112-110);}.cls-226{clip-path:url(#clip-path-111);}.cls-227{fill:url(#Sfumatura_senza_nome_112-111);}</style><clipPath id="clip-path" transform="translate(104.63 53.03)"><path class="cls-1" d="M78.24,246.53a1.91,1.91,0,0,1-.12-.68,5.92,5.92,0,0,0,0-1.46c-.19-.69.09-1,.77-1.35,0,.28,0,.51,0,.73,0,.71,0,1.41-.06,2.11a1.63,1.63,0,0,1-.12.67s-.11,0-.21,0-.25,0-.27-.06M79,235l.18-.08c.57.65,1.16,1.3,1.69,2,.09.11,0,.43-.08.58-.34.54-.71,1-1.1,1.61-.23-1.37-.46-2.72-.69-4.08m-.58-30.32c-.43-.73-.76-1.52-1.2-2.42a19.13,19.13,0,0,1,2.1-.33c.64,0,.64.43.53.9s-.25,1.08-.4,1.6a4.51,4.51,0,0,1-.26.64c-.27-.12-.65-.18-.77-.39m33.33-3.54a38.08,38.08,0,0,1,.78-3.77c0,.5.06.74.09,1a14.57,14.57,0,0,0,.35,2.08c.37,1.15.3,1.56-.81,2.61a6.14,6.14,0,0,1-.41-1.9m-1.79-9.22q.88-2.5,1.8-5l.37,0c.07.26.25.57.17.76-.39.93-.86,1.82-1.29,2.71-.26.54-.51,1.08-.76,1.62l-.29-.11m-40.11-9.67c.35,1.33,1.1,2.36.82,3.67a2.07,2.07,0,0,0,0,.82c.17,1,.36,2,.55,3l-.26.05a11.39,11.39,0,0,1-1.14-7.51m43.69,7.65c.15-1,.31-2,.53-2.94a6.27,6.27,0,0,0,.3-2.78,6.56,6.56,0,0,1,.56-2.53l.23,0c0,1,0,2,0,3l1,.14-.5,1.84-.34-.09c0-.35,0-.7,0-1.05-.62,1.63-.26,3.54-1.69,5.06a2.73,2.73,0,0,1-.11-.71m-44-24.32.32-.13c.26.69.53,1.37.79,2.06l-.33.11-.78-2m8.58,9.29a28.6,28.6,0,0,1-1-3.17c-.48-1.57-.89-3.17-1.44-4.71-.2-.54-.8-.93-1.14-1.45a4.72,4.72,0,0,1-.39-1.15l.37-.21a3.66,3.66,0,0,1,.74.79,19.9,19.9,0,0,0,3.21,4.74c1.74,2,1.64,4.41,1.38,6.82l-.4.17a10.35,10.35,0,0,1-1.3-1.83m2.19-12.23a11.92,11.92,0,0,1-.11-1.33l.2,0c.16.41.35.82.47,1.25,0,.15-.11.34-.16.51-.14-.13-.37-.24-.4-.39m35.8,2.62c.56-1.5,1.21-2.95,1.84-4.46a1.23,1.23,0,0,1-.08,1.82,1.78,1.78,0,0,0-.44,2.1,1.29,1.29,0,0,1,0,.8c-.27,1.15-.53,2.29-.86,3.42a8.36,8.36,0,0,1-.72,1.35c-.12-.07-.25-.12-.37-.18l.51-1.55-.87.21c.37-1.31.62-2.44,1-3.51m-37.54,2.93a14,14,0,0,1-1.18-2.51c-.63-2-1.14-4-1.69-6a1.12,1.12,0,0,1,.13-.87,17.15,17.15,0,0,0,3,7l.44-.1c0-.59,0-1.18,0-1.76l.15-.06a10.16,10.16,0,0,1,.34,1.48,22.38,22.38,0,0,1,0,2.59c0,.23-.28.65-.41.65a1,1,0,0,1-.74-.43m-.91-8.11c0-.34-.06-.69-.1-1.17.67-.25.67-.25.18,2.21,0-.34,0-.69-.08-1m.18-3.39.38-.38c.29.19.8.33.85.57.29,1.34.46,2.69.68,4l-.49.12c-.47-1.45-.95-2.9-1.42-4.35m-1.31-1.19.41-.09.42,2.5L77,158c-.15-.83-.31-1.66-.47-2.49M71.92,158c-.21-.54-.21-1.15-.42-1.69s-.1-.87.62-1.1c.27,1.75,1.1,3.28,1.31,5l-.48.17c-.35-.78-.73-1.54-1-2.34m41.31-4.56,1-4.06c.63,1,.4,2.26-.7,4.1l-.3,0m-44.44-6c1.2.39,1.71,1.47,1.18,2.33-.43-.85-.8-1.59-1.18-2.33m3.88-.61c.86,3.87,2.88,7.38,3.4,11.48-1.74-1.92-3.88-8.52-3.4-11.48M76,144.8s.14,0,.15.07a8.72,8.72,0,0,0,.28,1.71c.16.47.65.83.79,1.31.4,1.39.69,2.82,1,4.23-1.86-1-2.94-5-2.25-7.32m-12,4.25c-.38-1.25-.73-2.5-1.06-3.76a1.76,1.76,0,0,1,.11-.66c.24.05.52,0,.68.16a4.07,4.07,0,0,1,.76,3.52l-.51-.73c.17.7.28,1.2.4,1.7,1.15-.68,1.09-.66,1.61.53s1.21,2.36,1.81,3.54c.44.88.88,1.77,1.31,2.66a5.5,5.5,0,0,0,.45.91c1.47,1.89,1.66,4.15,1.93,6.41a9.39,9.39,0,0,0,.86,2.31c.29.7.7,1.36.94,2.08.68,2,1.29,4.07,1.93,6.09l.25-.06-1.2-5.09.34-.13a8.58,8.58,0,0,1,.48,1.18A44.72,44.72,0,0,1,76.46,175a50.52,50.52,0,0,1,.29,5.91,5.85,5.85,0,0,1-.27,1.41l-.44,0A7.25,7.25,0,0,1,75,180.22a19.91,19.91,0,0,0-1.76-5.37,24.47,24.47,0,0,1-1.38-6,37.63,37.63,0,0,0-1.37-4.9,4.59,4.59,0,0,0-.29-.69c-.43-1-.85-2-1.29-2.93-.22-.46-.5-.88.13-1.28a.69.69,0,0,0,.15-.65,23.35,23.35,0,0,0-1.31-2.83c-.36,3.09,1.18,5.84,1.32,8.87a3.33,3.33,0,0,1-.28-.48l-2.94-9.22a1.51,1.51,0,0,1,.19-1.63c.67-.82.08-2.72-1.05-3.44l-.35,1.06c-.26-.67-.5-1.19-.66-1.72m-.81-8.77a5.85,5.85,0,0,1,2.31,4.28c-.75-1.39-1.49-2.78-2.31-4.28m48-2.07.3.1c-.27.74-.49,1.51-.8,2.23a1.75,1.75,0,0,0-.24,1.44,1.59,1.59,0,0,1-.91,1.83c.77-1.8-.13-4.13,1.65-5.6m-16.16-1.83.33,0c.53.95.49,1.51-.33,2.08v-2.1M117.47,135c-.57,3.21-1.17,6.47-1.79,9.87.66.85-.18,1.85-.22,2.87l-.23,0,.33-2.23-.22-.06-.54,1.47-.44-.78-.25.17c-.24,1.27-.41,2.56-.75,3.8-.22.79-.11,1.66-1,2.35-.57.41-.42,1.79-.63,2.72s-.48,1.78-.78,2.83c-1.15-1.33-1.34-3.8-.58-4.89,0,0,.05-.12.11-.15.26-.14.73-.23.77-.42.25-1.05.4-2.12.56-3.19,0-.15-.14-.35-.1-.51.32-1.25.68-2.49,1-3.75a15.6,15.6,0,0,1,.58-2.38,13.38,13.38,0,0,1,1.31-2l.18.51.28,0,.51-2.33-.29-.08c-.16.32-.31.63-.46.95l-.26-.08c.36-1.36.72-2.73,1.11-4.08,0-.14.29-.27.47-.32.45-.14.91-.23,1.38-.34m-3-2.38c0-.2.16-.53.27-.54,1.16-.11,1.18-1.1,1.5-1.86a3,3,0,0,1,.42-.53c.35,1.77-1.33,5.93-2.74,6.35.18-1.15.35-2.28.55-3.42m-8.1-9.84a3.64,3.64,0,0,1-.65,3.58c.86,1.69-.73,2.86-.76,4.33h-.3c-.25-1-.51-2.11-.75-3.14l.93.33c.05-.31.13-.62.16-.93.07-1,.12-2,.18-3l.36,0c0,.59-.06,1.16-.1,1.74.78-.82.61-1.92.93-3m17.46-.15.86-2.72.32.13-.9,2.68-.28-.09m-53.51-4.85c.37,1.11.75,2.23,1.13,3.34l-.27.12a3.44,3.44,0,0,1-.86-3.46m10.06-1.11c.43,1.8.85,3.6,1.32,5.57-.79-.56-1.34-2.82-1.32-5.57m-1.93-.24.4-.08c.19,1.09.37,2.16.55,3.25l-.19,0c-.25-1.06-.5-2.13-.76-3.2m3.1-.08.35-.06.63,3.85-.35.07c-.69-1.2-.22-2.61-.63-3.86m39,8a38.07,38.07,0,0,1,3.19-8.87l.27.1q-1.56,4.44-3.11,8.9l-.35-.13m4-9c.34.82-.06,2.42-.94,3.64.29-1.14.59-2.27.94-3.64m-74.37-.07c1.18.75,4.69,10.18,4.53,12.13a37,37,0,0,1-4.53-12.13m72.5,17.92a26.63,26.63,0,0,1,1.39-6.64c1.17-3.66,2.18-7.38,3.26-11.08.06-.19.14-.39.21-.58.21,1.65-1,3.16-.24,5.1.71-1.54,1.32-2.86,2-4.25.1.19.19.28.17.35-.31,1.48-.52,3-1,4.43-.9,2.87-2,5.69-2.87,8.56a6.42,6.42,0,0,0,.07,1.79,7.65,7.65,0,0,1-.14,1.66,9,9,0,0,1-.7,1.81c-.39.77-.85,1.5-1.41,2.46a7,7,0,0,1-.74-3.61m-16.76-13a15.14,15.14,0,0,1,.3-2.76c.09-.45-.14-1.13.7-1.26.13,0,.19-.66.24-1,.23-1.68.44-3.38.66-5.07l.49,0-1.68,12.22-.42,0a12.53,12.53,0,0,1-.29-2.18m.26-12.46c.94,2.14.88,2.47-.73,4.15-.12-.51-.22-1-.35-1.49l1.16-.42-1.46-.76a6.63,6.63,0,0,0,.06,4.25c.06.19.56.35.86.33a.7.7,0,0,1,.81.87c-.33,1.12-.83,2.18-1.27,3.27,0,0-.11,0-.3.07-.06-.57-.11-1.12-.19-1.88a4.79,4.79,0,0,0-.3,4.72l.78.09c-.33,1.67-.66,3.3-1,4.93h-.16c.08-1.06.15-2.13.23-3.2-.1,0-.2-.08-.3-.12-.13.28-.37.55-.38.84,0,1,0,2.06,0,3.09,0,.74-.12,1.48-.19,2.35-.77.15-.81.92-.81,1.72,0,1.11,0,2.23,0,3.34a1.35,1.35,0,0,1-.42.88c-.3-2.54.27-5,.51-7.52l-.25,0c-.12.52-.24,1-.37,1.62-.16-.15-.24-.18-.24-.22.15-1.88.25-3.76.48-5.64,0-.43.65-.81.69-1.24a5.49,5.49,0,0,0-.26-3.32c-.15-.29,0-.76.08-1.15,0-.16.18-.34.15-.48-.18-1-.26-1.85.65-2.52.14-.1.17-.39.17-.6,0-1.11,0-2.24.11-3.34a12.93,12.93,0,0,1,.38-1.83h.26c.11.18.23.36.39.6.42-.45.84-.88,1.27-1.33m28,5.23a6.34,6.34,0,0,1,1.75-3.61,6.77,6.77,0,0,0,1-1.73l.45.23c-.62,1.85-1.17,3.71-1.88,5.51-.2.52-.83.88-1.27,1.31a7.55,7.55,0,0,1,0-1.71m-42-10.42c0,.81,0,1.62-.07,2.43l-.35,0c0-.82,0-1.63.06-2.45h.36m10.18,6.57c.09-2.33.16-4.66.33-7a4.77,4.77,0,0,1,.67-1.53l.22.08-.25,5.1a2.42,2.42,0,0,1,.2.87c-.06,1.13-.19,2.25-.3,3.4h-.12c-.54,0-.78-.37-.75-.94m-3.72,1c-.07-3.32-.13-6.64-.2-10l.26,0c.19.84.75,1.81.51,2.51-.45,1.32,0,2.44.11,3.66a20.94,20.94,0,0,1-.35,3.84H98.6M98,98.53c-.08,1.24-.18,2.47-.27,3.71l-.31,0c.09-1.23.17-2.45.26-3.68H98M94.47,102l-.06-4.58h.42c0,1.83.07,3.66.12,5.56l-.76-.26c-.07,1.38-.12,2.66-.18,4h-.25c-.05-.82-.11-1.64-.17-2.57-.13-.15-1.24-.07-.24-.82.14-.1-.07-.69-.15-1.25,0-.72,0-1.68.07-2.62l.28,0,.63,2.65.29,0m-53.8-4.89c1.53,1.13,2.64,4.08,2,5.36l-2-5.36m35.15-.58.36-.05.24,2.29-.31,0c-.1-.76-.19-1.52-.29-2.28m-3.33,3.4c-.79-4.4-1.6-8.8-2.28-13.22a12.85,12.85,0,0,1,.19-4c.39,2.43.7,4.88,1.22,7.29s1.26,4.69,1.91,7l-.09.05a11,11,0,0,0,0,1.62c.11.71.35,1.39.47,2.09a5.14,5.14,0,0,1-.12,1.2,2.85,2.85,0,0,1-1.3-2.12m67.85-24.37a2.9,2.9,0,0,1-.1-2.53c.41-.92.77-1.86,1.15-2.79.06-.16.13-.32.29-.72.42,2.14-1.19,11.14-2.23,12.92-.51-1.64,0-5.6.89-6.88M61.67,55.79l.22-.06a2,2,0,0,0,.31.69c.17.16.47.17.77.27.28,2.56.56,5.18.83,7.8h-.07c-.69-2.9-1.37-5.8-2.06-8.7m-7.73-2c.84,1.29,1.7,2.57,2.51,3.88a1.72,1.72,0,0,1,.18.78c.13,1.67.19,3.35.38,5a4.19,4.19,0,0,0,.71,1.69c.59.9.59,1.54-.34,2.69-1.66-4.66-2.44-9.39-3.44-14m3.48-1.2.18-3.28.29.07L57.8,52.6l-.38,0m9.47,1.73A29.2,29.2,0,0,0,66,51.16c-.39-1.45-1.18-3-.31-4.65A7.2,7.2,0,0,0,66,45.38c.57,1.38,1.15,2.46,1,3.87a10.48,10.48,0,0,0,.37,3c.16,1,.41,1.94.57,2.92a4.27,4.27,0,0,1,0,.94l-.39.09a13.58,13.58,0,0,1-.62-1.9m-.42-11.24.41,0c.05.58.1,1.17.16,1.75l-.42.07-.15-1.79M53.19,44.9a3,3,0,0,1-.14-1.28c0-.24.25-.48.39-.71.32.19.86.35.91.59.3,1.78.51,3.57.75,5.35l-.13,0c-.6-1.33-1.22-2.66-1.78-4m2.72-2.74.55,0c.06,1,.12,2,.17,3l-.44,0c-.09-1-.19-2-.28-3M49,6.28c.66,3.4,1.3,6.81,2,10.2,1.11,5.29,2.28,10.57,3.38,15.86.39,1.85.53,3.75,1,5.58A10.11,10.11,0,0,1,55.47,42c0,.21,0,.42,0,.64L55,42.43A20.28,20.28,0,0,0,54,39.89a37,37,0,0,1-3.89-10.83c-.3-1.49-.69-3-1.06-4.44a5.68,5.68,0,0,0-.41-.95l-.29.06a5.18,5.18,0,0,0,.07.89c.12.42.34.81.44,1.23.69,2.9,1.57,5.77,2,8.72.54,3.61.55,7.3,1.08,10.92.65,4.51,1.52,9,2.44,13.45.5,2.46,1.37,4.83,1.48,7.39,0,1.17.15,2.45,1.43,3.14a.94.94,0,0,1,.33.55c.81,2.74,1.71,5.47,2.39,8.25.83,3.37,1.23,6.84,2.66,10.06.11.25.25.49.34.74s.23.69.33,1l-.22.1c.41.88.88,1.73,1.23,2.64a33.92,33.92,0,0,1,1.76,5c.56,2.64.76,5.35,1.28,8a41.65,41.65,0,0,1,.76,8.41,8,8,0,0,0,.22,1.82c.14.62.4,1.21.54,1.83.29,1.17.47,2.37.8,3.52.38,1.34,1.06,2.61,1.31,4a69.24,69.24,0,0,0,3,11.41,29.16,29.16,0,0,1,1.11,4.49,1.51,1.51,0,0,1-.55,1.66c-1.46-1-1.42-2.55-1.62-4l-.34.08c.18,1.36.35,2.72.54,4.3-1-1.35-8.64-25.35-8.5-26.36.25.46.5.92.74,1.38l.38-.13c-2-7.93-4.3-15.8-5.07-24A6.78,6.78,0,0,0,60.44,93c0-.08-.17-.12-.42-.26.33,2.35.61,4.55.94,6.75s.69,4.31,1,6.46l-.33.08c-.28-.51-.56-1-.85-1.53l-.21.09c.22.6.46,1.18.62,1.79.44,1.64.83,3.29,1.23,4.94a2,2,0,0,1,0,1.2A4.6,4.6,0,0,0,63,115c.12.36.61.59.72,1q1.35,4.44,2.61,8.93c.81,2.86,1.54,5.75,2.38,8.61,1.11,3.82,2.3,7.61,3.44,11.42.1.32.13.67.2,1l-.3.08c-.53-1.43-1.08-2.86-1.62-4.29l-.2.08c.46,2,.93,3.94,1.39,5.91a1.16,1.16,0,0,1-.46-.56c-.48-1.15-1-2.29-1.42-3.44-1.9-4.76-3.81-9.52-5.69-14.28q-1.14-2.85-2.2-5.73c-.81-2.21-1.55-4.44-2.37-6.65a8.83,8.83,0,0,0-.75-1.29l-.24.12c.28.76.56,1.53.85,2.29,1.18,3.16,2.39,6.31,3.56,9.48.37,1,.66,2,1,3.06l-.23.07c-.64-1.47-1.27-3-2-4.67a3.6,3.6,0,0,0,0,.81c.92,2.63.44,5.51,1.62,8.11.49,1.07.32,1.19,1.56.91.2.84.39,1.69.6,2.53.14.59.48.74,1,.4q-.6-2-1.2-4.05l.44-.13q1.66,5,3.34,10.09c-.88.37-1.24,0-1.32-.76,0-.34,0-.69-.08-1-.25-1-.52-2-.79-3l-.21.07c.19,1.49.37,3,.55,4.47l-.28.07c-.2-.27-.41-.53-.59-.8-1-1.54-2-3.09-3-4.61-.14-.21-.53-.26-.81-.38a2,2,0,0,0,0,.8c.31.77.71,1.51,1.05,2.27.69,1.53,1.36,3.07,2,4.6l-.24.14a2.11,2.11,0,0,1-.37-.36c-1-2-2.09-4-3-6.06-.66-1.5-1.06-3.11-1.64-4.65-1.16-3.11-2.38-6.2-3.55-9.3q-.61-1.66-1.11-3.36a4.14,4.14,0,0,1-.06-1.27,6.67,6.67,0,0,0,.05-1.72c-.93-3.41-1.92-6.81-2.9-10.2,0-.11-.19-.2-.49-.49a8.64,8.64,0,0,0,.11,1.1c.36,1.36.74,2.7,1.1,4,.29,1.12.87,2.24.18,3.42a.5.5,0,0,0,0,.27q1.05,3.2,2.1,6.36c.6,1.8,1.18,3.58,1.77,5.38,0,0-.06.08-.14.2q-4.78-11.33-9.55-22.56l-.33.14q1.38,3.42,2.76,6.87l-.37.13c-.12-.25-.26-.52-.37-.78-1.46-3.39-2.88-6.8-4.38-10.17C43.57,100,42.07,96.44,40.23,93c-2.76-5.09-4.16-10.7-6.35-16-.77-1.87-1.32-3.81-2-5.7-1.56-4.16-3.18-8.29-4.73-12.45-.82-2.19-1.56-4.42-2.34-6.62a2.56,2.56,0,0,0-.3-.53l-.22.11c.45,1.35.89,2.7,1.36,4,1.47,4.22,2.94,8.44,4.44,12.66,1,2.92,2.05,5.85,3.16,8.74.79,2,1.84,4,2.55,6.07,1.55,4.52,3.12,9.05,4.39,13.66a121.48,121.48,0,0,0,5.92,17.35,34.85,34.85,0,0,0,3,4.86,18.82,18.82,0,0,1,1.81,2.52,47.94,47.94,0,0,1,1.42,4.64c.56-.58.63,0,.74.32.26.75.41,1.55.67,2.31,1.24,3.74,2.51,7.47,3.73,11.21a16.72,16.72,0,0,1,.44,2.26l-.28.06-.93-2.42-.23.1c0,.17.09.35.15.51a28.64,28.64,0,0,1,1.48,4.09c.4,2.07,1.73,3.68,2.45,5.57.46,1.21,1,2.39,1.53,3.58.29.68.6,1.35.92,2,0,0,0,0,.08,0h.06c0-.26,0-.52,0-.87l.57.73.28-.15c-.49-1.36-1-2.73-1.48-4.07-.33-.86-.84-1.64-1.15-2.5-.59-1.66-1.08-3.37-1.65-5-.49-1.47-1-2.92-1.56-4.38-.22-.6-.42-1.21-.68-1.79s-.69-1.41-1-2.12l.3-.33.29.71.34-.33-3.54-8,.27-.12a3,3,0,0,1,.19.3c1.73,3.87,3.65,7.68,5.14,11.65,2.15,5.72,4,11.57,6,17.33a28.06,28.06,0,0,0,1.75,3.46,5.46,5.46,0,0,1,.46.9c.47,1.58,1,3.15,1.31,4.76s.57,3.47.8,5.21c.12,1,.18,2.07.26,3.11a60.24,60.24,0,0,1-3.19-6.71c-1.18-3-2.34-6-2.14-9.36,0-.18-.14-.37-.22-.56l-.25.05c0,.31,0,.63-.1,1.19l-.73-1.91a3.92,3.92,0,0,0,0,.64c.17.93.4,1.85.51,2.79.26,2.09.45,4.19.72,6.28,0,.45.19,1.13.48,1.25,1.05.41,1.1,1.34,1.4,2.18s.7,1.79,1.16,2.93l.48-1.15a6.24,6.24,0,0,1,.33.73c.81,2.82,1.63,5.64,2.4,8.46a7.08,7.08,0,0,1,0,1.53c-.93-1.54-1-3.33-2-4.76a2,2,0,0,1-.22.09l.57,1.65-.18.09c-.44-.75-.88-1.5-1.31-2.26-.16.78.67,1.45-.16,2.31-.9-1.94-1.74-3.79-2.66-5.76l.61.41.23-.13c-.52-1.18-1-2.35-1.54-3.53l-.3.11c.29.82.57,1.63.85,2.45A23.23,23.23,0,0,1,62.62,170c-1.18-2.36-2.32-4.74-3.49-7.09a4.48,4.48,0,0,0-.57-.73l-.29.19a122.58,122.58,0,0,1,7.57,16.87c-1.07-2-2.13-4-3.21-5.94l-.28.15c1.2,2.45,2.4,4.91,3.6,7.35l.31,0c0-.2,0-.41,0-.6,1.24,2.82,2.36,5.48,3.37,8.17.64,1.69,1.13,3.45,1.66,5.18,0,.17-.09.41-.16.61a2.35,2.35,0,0,0-.24.6c0,1.26-.09,2.52-.06,3.78,0,1.94.14,3.89.21,5.83l-.14.07c-.4-.91-.82-1.82-1.23-2.74l-.16.05c-.06.35-.11.7-.17,1.11l-.74-.48a1.35,1.35,0,0,0,.23,1.72,3.22,3.22,0,0,1,.56,1.32,5.4,5.4,0,0,1,.19,1.38,21.7,21.7,0,0,1-.18,2.8c0,.35-.35.66-.65,1.18l-1.06-2.12-.25.07a3.21,3.21,0,0,0,0,.7c1.15,3.64,1.11,7.46,1.68,11.19a7.23,7.23,0,0,1-.1.91,9,9,0,0,0,.08,2.38c.13.5.7,1.21,1.11,1.23.75.05.75-.81.73-1.36a21.48,21.48,0,0,0-.41-2.4c1.49-.06,3.25-1.58,3.2-3-.07-1.77.51-3.6-.37-5.32a.68.68,0,0,1,0-.54,4.69,4.69,0,0,0-.56-4.52s.06-.09,0,0c.69,0,1.45.27,1.83,0,.69-.52,1.57-1.06,1.38-2.27a10.13,10.13,0,0,1,.19-2.24l.3-.06c.41,1.39.83,2.78,1.29,4.33.15-.46.24-.7.33-1l.42,0a20.64,20.64,0,0,1,.94,3.37c.18,1.58,0,3.2.14,4.8.41,4.77-.72,9.45-.89,14.19a2.68,2.68,0,0,1-1.28,2.14c-.31-1.32-.58-2.45-.85-3.59l-.27.06c.18,1.13.36,2.26.56,3.38s1.22,1.92,2.11,2.71c-.76.32-1.23.69-.85,1.56a2.88,2.88,0,0,1,.13,1.28c0,1.06-.57,1.47-1.62,1.28a18,18,0,0,1-.49,1.78c-.79,2.06-.27,4.05.34,6,.55,1.75,1.25,3.45,1.78,5.19a11.85,11.85,0,0,1,.88,4.42c-.19,2.46,0,4.94,0,7.42,0,.18,0,.36,0,.55a8.09,8.09,0,0,0,0,2.46,36.7,36.7,0,0,0,1.76,3.9c.7,1.5,1.46,3,.77,4.75a7.54,7.54,0,0,0-.26,2.39,3,3,0,0,0,1,2.61,1.8,1.8,0,0,0,1.41.36c1.32-.43,1.62-.9,1.51-2.31a13,13,0,0,0-.55-2.6,17.8,17.8,0,0,0-.72-1.83l.22-.19c1,.72,2,1.38,2.85,2.16s1.23.76,2,.12c1.34-1.11,2.62-2.28,4.57-2.18a1.49,1.49,0,0,0,1.46-1.25,6.8,6.8,0,0,1-1.1.11c-.49,0-.72-.28-.41-.73.5-.73,1-1.43,1.6-2.18.13.16.2.27.28.36l1,.95c.29-.43.59-.86.84-1.32.09-.18,0-.45.09-.64a3.43,3.43,0,0,1,.58-1.18c.57-.55,1.25-1,1.88-1.51l.8-.67c0-.09-.07-.17-.1-.26-.9-.1-1.78-.42-2.7.2-.66.44-1.37.06-1.21-.68A15.72,15.72,0,0,1,98,260.36c.82-1.71,1.92-3.28,2.18-5.22a1.64,1.64,0,0,1,.49-1,1.89,1.89,0,0,0,.74-2.05,1.51,1.51,0,0,1,.22-1.09,3.1,3.1,0,0,0,.14-3.68,3.4,3.4,0,0,1,.44-4.14,2.88,2.88,0,0,0,.21.82,9,9,0,0,0,.83,1,10.7,10.7,0,0,0,.88-.9c.14-.18.14-.52.31-.66,1.14-.9,1.11-2.07,1-3.37a3.47,3.47,0,0,1,.73-1.91,3,3,0,0,1,1.2-.84,1.36,1.36,0,0,1,.79-.1,1.87,1.87,0,0,0,2,1.51c.33,0,.65.39,1,.63a3,3,0,0,0,.39-3.44l-.75.45c-.15-.35-.25-.63-.35-.88l-1-.07c.06-1.1.1-2.14.14-3.2l-1.94,1.58c-.56-.48-.8-1-.23-1.51a5,5,0,0,0,1.58-4.37c0-.63.21-1.27.25-1.9.09-1.65.63-3.31-.1-4.95a1.82,1.82,0,0,1,0-.7l.29,0a7.5,7.5,0,0,0,.3.95c.34.74.74,1.48,1.65,1.62a1.81,1.81,0,0,0,1.85-1,22.45,22.45,0,0,0,1.59-2.93c1.07-2.43.52-5,.33-7.45-.13-1.76-.77-3.53.46-5.16a3,3,0,0,0,.3-.88c-1-.11-1.18-.81-1.31-1.58s-.26-1.41-.34-2.11a.87.87,0,0,1,.17-.66c2.22-2.19,1.5-4.88,1.31-7.48a9,9,0,0,1,0-1.87,4.24,4.24,0,0,1,.45-1.23c.29-.59.14-.89-.46-1.14-.26-.11-.6-.49-.59-.73a5.65,5.65,0,0,1,.39-1.49,24.35,24.35,0,0,0,1.06-3,11.67,11.67,0,0,0,0-2.44l-.3,0c-.24.57.2,1.47-.84,1.75a12.57,12.57,0,0,1-.07-3.34c.69-2.62,1.61-5.18,2.45-7.77.09-.28.24-.54.36-.82l.2.05c-.12.71-.25,1.42-.38,2.14l.38.08c.17-.75.31-1.51.52-2.25a1.71,1.71,0,0,1,.5-.72c.3-.25.84-.35,1-.64.45-1.12.76-2.29,1.11-3.44l-.38-.13-1.5,3.34-.12,0c0-.35.07-.7.1-1.09-.56.22-.56,1.25-1.4.79a24.24,24.24,0,0,1,2.4-5.09l.29.06c.14.56.26,1.11.4,1.67h.24c.4-1,.82-2,1.19-3,.91-2.47,1.73-5,2.73-7.42.47-1.15,1.34-2.15,1.91-3.27,2.06-4,3.18-8.37,5.77-12.09,0-.07,0-.2,0-.48l-1.31,1.94-.25-.1c.18-.61.32-1.23.53-1.82.53-1.46,1.12-2.9,1.64-4.36.92-2.61,1.78-5.23,2.73-7.82.68-1.89,1.5-3.74,2.2-5.63,1.41-3.78,2.78-7.58,4.15-11.37.12-.35.19-.72.28-1.07a41.6,41.6,0,0,0-2.45,5.14c-1.23,3.19-2.33,6.43-3.59,9.61-.81,2-1.79,4-2.7,5.94a4.15,4.15,0,0,1-.61.93,1.7,1.7,0,0,1-.61.27,2,2,0,0,1-.26-.71,1.9,1.9,0,0,1,.22-.7c.59-1.6,1.2-3.2,1.79-4.81.08-.25.14-.51.21-.77l-.19-.06-2.28,5-.26-.1a12.63,12.63,0,0,1,.83-5.08c.68-1.63,1.38-3.26,1.95-4.94,1.28-3.69,2.78-7.32,3-11.31a8.69,8.69,0,0,1,.64-2.23c.52-1.46,1.08-2.91,1.62-4.37,1.41-3.77,2.83-7.54,4.23-11.3,1.29.25,3.3-4,2.84-6-.56,1-1,1.91-1.51,2.79l-.24-.11c.46-1.34.92-2.67,1.37-4l-.31-.12c-.2.46-.43.91-.61,1.38-.92,2.5-1.81,5-2.74,7.53-.27.72-.67,1.4-1,2.1a2.22,2.22,0,0,0-.32-.14l5.35-15.24-.28-.13a3.85,3.85,0,0,0-.36.62c-1,2.87-2,5.75-3.05,8.61A50,50,0,0,1,141,94.78c-1.32,2.37-1.7,5.19-3.61,7.27-.45.48-.41,1.4-.6,2.14l.76,0a19.87,19.87,0,0,0-4.52,8.9l-.45-.18c.74-2.31,1.15-4.79,2.26-6.91a53.24,53.24,0,0,0,5.09-14.94,45,45,0,0,1,1.22-4.37c.31-1,.69-1.94,1-2.9l-.31-.12c-.54,1.28-1.07,2.56-1.6,3.84l-.29,0c0-.53,0-1.06.09-1.58a48.84,48.84,0,0,1,2.37-9.09c2.21-6.68,4.35-13.39,6.51-20.09a2.49,2.49,0,0,0,.09-.6,2.27,2.27,0,0,0-.25-.06c-.27.85-.53,1.7-.82,2.54-1.05,3.11-2.07,6.24-3.17,9.33a4.72,4.72,0,0,1-1.8,2.31,8.25,8.25,0,0,0-.21-1.93,5.1,5.1,0,0,1-.07-3.09c.54-2.32,1.48-4.47,1.74-6.91a85,85,0,0,1,2.12-9.63c.07-.3.08-.6.12-.9l-.32-.07c-.15.51-.32,1-.45,1.53-1.33,5.36-2.55,10.75-4,16.08-.95,3.5-2.22,6.91-3.36,10.36-.31.94-.63,1.89-1,2.79-.85,1.9-1.74,3.77-2.63,5.65-.13.28-.3.53-.45.79l-.21-.1c.3-2.37.61-4.74.91-7.11a24.06,24.06,0,0,0-1.65,3.13,27.36,27.36,0,0,0-2.25,8c-.09.78,0,1.42,1.06,1.5-5.47,12-9.4,24.53-14,36.78l.69-5.2-.25,0q-.75,2.46-1.51,4.93l-.19,0c.23-1.34.48-2.66.71-4l-.24-.05c-.67,2.59-1.35,5.18-2,7.78a2.37,2.37,0,0,0-.36-.09l1.65-7.32-.26-.06-.4.79c.37-3.59.89-7.11,1.47-10.61.08-.46.64-.85.67-1.29a24.28,24.28,0,0,0-.12-2.82,16.31,16.31,0,0,0-.92,3.29c-1.13,6-2.17,12-3.39,18a19.9,19.9,0,0,1-1.73,4.28,2.8,2.8,0,0,1-1,1.05c-.45.3-.86.24-.83-.46,0-.43.26-1.08.06-1.25-.74-.67-.53-1.49-.45-2.23.61-5.16.77-10.37,1.73-15.51,1-5.54,1.65-11.17,2.41-16.77a3.52,3.52,0,0,0-.27-1.19h-.34q-1.45,10.84-2.91,21.7l-.32,0v-1.83h-.29c0,.75-.73,1.53.23,2.25a.55.55,0,0,1,.1.41c-.15,1.66-.22,3.34-.5,5-.68,3.94-1.47,7.87-2.22,11.81a3.47,3.47,0,0,1-.2.5l-.35-.06c.1-1.09.23-2.18.29-3.27.09-1.73.16-3.46.19-5.18s-.15-3.72,0-5.56c.36-4,.85-8.06,1.33-12.09.12-1,.42-1.89.69-3.09.35.69.57,1.12.76,1.51.25-5.39.4-10.8.79-16.19s1-10.71,1.57-16.07l-.29,0c0,.29-.1.59-.13.88-.48,4.23-.88,8.46-1.46,12.67s-1.28,8.15-2,12.22a22.12,22.12,0,0,1-.81,3c-.06.2-.38.31-.58.47a2.59,2.59,0,0,1-.25-.63c0-.39,0-.79,0-1.2,0-.07-.07-.14-.13-.25l-.43.38c-.2-.64-.61-.8-1-.47a3.79,3.79,0,0,1-1.19-4s0-.12,0-.18c.06-2.57.13-5.13.19-7.71,0-.39,0-.78,0-1.17h-.35c-.13,2.49-.26,5-.4,7.54a2.32,2.32,0,0,1-1.46-2.81,11.54,11.54,0,0,0,.18-1.76c0-1,0-1.91,0-2.86l-.27,0a29.65,29.65,0,0,1-1.34,6.47,40.39,40.39,0,0,1-.88-5.28c-.14-1.72-.1-3.46-.14-5.2l-.12-5.16h-.42q.11,8.27.2,16.54l-.4.12a4.78,4.78,0,0,1-.48-1,4.27,4.27,0,0,1,0-1c0-2.85-.1-5.7-.18-8.56A7.59,7.59,0,0,0,98,87.94l-.34.08c.05.42.13.83.14,1.25a12.07,12.07,0,0,1-.11,1.32c-1.87-5.21-.27-10.43-1-15.54-.53,3.76-.19,7.54-.46,11.32l-.59-.08c0,3,0,5.94-.06,8.89l-.29,0c-.07-.39,0-1-.22-1.14-1-.55-.88-1.57-.92-2.37-.1-1.85,0-3.72,0-5.58,0-1.53.29-3.06.3-4.59s-.23-3-.25-4.53c0-3.12,0-6.26,0-9.39a5.12,5.12,0,0,1,.33-1.13,7.5,7.5,0,0,0,.51-2.18c-.07-1.49-.42-3-.54-4.47-.15-1.7-.17-3.4-.25-5.1,0,0-.1,0-.25-.09a6.46,6.46,0,0,0-.12,1.55,18.61,18.61,0,0,1-.06,4.09q-.08,3.52-.06,7c0,5.18-.19,10.36-.23,15.53a35.74,35.74,0,0,1-.9,9.34,9.74,9.74,0,0,1-.56,1.34l-.3-.08-.54-8.39L91,85a6,6,0,0,0-.36,1.26c-.06.77,0,1.54,0,2.31A12.73,12.73,0,0,0,90.68,90c.18,1.59.47,3.17.53,4.76.13,3,.11,6,.14,9,0,.13-.09.25-.2.52-.24-.41-.4-.67-.69-1.18-.11.73-.18,1.22-.25,1.71l-.18,0c-.16-.7-.33-1.4-.52-2.24-.61.61-.61,1-.24,1.58a6,6,0,0,1,.89,2.24,21.63,21.63,0,0,1,0,2.79c.07,1.89.15,3.78.3,5.65,0,.59-.07,1.41,1.08,1.39a4,4,0,0,0-.57,1.42c0,1.73.15,3.46.28,5.18a9.67,9.67,0,0,1,.29,1.54,4.82,4.82,0,0,1-.51,1.36c.21.33.53.59.53.86,0,3.38-.08,6.76-.15,10.14a7.9,7.9,0,0,1-.29,1.25,5.8,5.8,0,0,0-.62-1.14c-.43-.44-.49-.82,0-1.27a.75.75,0,0,0,.21-.47,44.93,44.93,0,0,0,.06-4.64c-.15-2.16-.58-4.31-.74-6.47-.1-1.34.09-2.7.12-4,0-.55,0-1.09-.05-1.64h-.23c-.06.25-.12.51-.21.84-.16-.26-.24-.41-.36-.59,0,1.82-.08,3.55-.12,5.28h-.29c0-.29,0-.59-.07-.88q-.51-5-1-10.08c-.16-1.55-.37-3.08-.52-4.63a1.24,1.24,0,0,1,.19-.86,1.81,1.81,0,0,0-.13-2.47c0,.59,0,1.12,0,1.65h-.22c0-.51-.1-1-.16-1.54l-.37,0c1,10,1.66,20,1.72,30.07a2.94,2.94,0,0,1-.3-1c-.32-1.21-.27-2.47-1-3.61a2.44,2.44,0,0,1-.34-2.65c-.3-1.22-.54-2.23-.77-3.24l-.43,0c-.65,2.29,0,4.66-.14,7-1.08-5.23-2.39-10.42-2.33-15.84-.09.22-.18.43-.26.64l-.18,0-1-6.82.2-.05c.15.62.29,1.25.44,1.88l.35-.08c-.24-1.26-.47-2.51-.71-3.77l-.19,0-.19.51a45.71,45.71,0,0,1-.93-5.72c-.13-1.17-.46-2.39.32-3.51a1.11,1.11,0,0,0,.07-.73q-.48-3.18-1-6.35h-.24c-.09.44-.17.87-.27,1.4-.18-.27-.27-.43-.38-.59.07,2.14.42,4.22.57,6.31s.56,4.16.11,6.26a3.68,3.68,0,0,0,0,.81l.21.08c0-.22,0-.44.08-.67.88,1.31,1.76,7.31,1.34,8.34-.17-1.67-.33-3.18-.48-4.7l-.26,0c0,1,.09,2,.14,2.94l-.26,0c-.48-1.6-.39-3.31-1-4.92s-.43-3.58-1.08-5.37c-1.06-3-1.7-6.08-2.47-9.14-.39-1.54-.71-3.09-1-4.64-.33-1.71-.59-3.42-.9-5.14-.27-1.51-.6-3-.85-4.54a1.38,1.38,0,0,1,.28-.79c.32-.54.87-1,1-1.6a13.39,13.39,0,0,0,.42-3.77c-.24-3.59-.5-7.19-1.07-10.74A42.08,42.08,0,0,0,71.7,53.8c-.84-2.36-2-4.56-2.06-7.18,0-1.87-.71-3.73-.81-5.61A61.7,61.7,0,0,0,67,28.12a17.18,17.18,0,0,1-.49-2.37Q65.39,17,64.28,8.2A3.19,3.19,0,0,0,64,7.55l-.27.06a5.08,5.08,0,0,0,0,.78c.59,4.24,1.2,8.47,1.77,12.71.34,2.46.7,4.93.93,7.39s.16,4.85.41,7.24c.36,3.43.89,6.84,1.32,10.25a8.5,8.5,0,0,1,0,1.33,11.54,11.54,0,0,1-.74-2.58q-.64-4.09-1.19-8.19c-.5-3.75-.94-7.52-1.42-11.27-.07-.47-.22-.94-.33-1.41l-.25.06a1.12,1.12,0,0,0-.1.43c.31,3.34.64,6.67.92,10,.15,1.76.55,3.51,0,5.28-.12.4-.12,1-.73.82-.25-.07-.44-.56-.56-.89a14.93,14.93,0,0,1-.37-1.5l-.25,0a1.05,1.05,0,0,0-.08.35,12.13,12.13,0,0,1,.06,1.48,1.68,1.68,0,0,1-.29,1c-.9,1.05-.85,1.9.33,2.61A1.68,1.68,0,0,1,64,45c.16,1.45.39,2.89.63,4.33.28,1.71.64,3.41.89,5.13.44,3,1.19,6,1.13,9.12a4.81,4.81,0,0,0,.77,2.83,4.07,4.07,0,0,1,.76,2.56c0,.65.12,1.3.11,1.94,0,1.74-.06,3.47-.09,5.2,0,.15,0,.31-.06.58-1.6-1.83-2-2.58-2.75-5.83-.37-1.62-.23-3.34-.59-5A77.16,77.16,0,0,1,63.22,53a5.42,5.42,0,0,0-.19-.87l-.27,0,.12,3.46h-.17l-1.14-6.56-.31,0c.21,1.62.42,3.23.66,5a17.87,17.87,0,0,1-1.65-3q-1.58-5-2.9-10.13c-.65-2.56-1.06-5.16-1.65-7.73-.77-3.35-1.62-6.67-2.4-10C52,17.51,50.67,11.73,49.35,6a1.76,1.76,0,0,0-.17-.37.88.88,0,0,0-.17.7"/></clipPath><linearGradient id="Sfumatura_senza_nome_112" x1="-546.4" y1="1324.84" x2="-545.4" y2="1324.84" gradientTransform="matrix(226.52, 0, 0, -226.52, 123744, 300248.77)" gradientUnits="userSpaceOnUse"><stop offset="0" stop-color="#4646ff"/><stop offset="0.13" stop-color="#4646ff"/><stop offset="0.21" stop-color="#4e7ad7"/><stop offset="0.34" stop-color="#58c1a1"/><stop offset="0.43" stop-color="#5fee7f"/><stop offset="0.48" stop-color="#61ff72"/><stop offset="0.6" stop-color="#8fff4c"/><stop offset="0.78" stop-color="#d3ff16"/><stop offset="0.87" stop-color="#edff00"/><stop offset="1" stop-color="#edff00"/></linearGradient><clipPath id="clip-path-2" transform="translate(104.63 53.03)"><path class="cls-1" d="M129.28,84.68l-.66,2.88c-.61-.71-.28-2.13.66-2.88m1.51-7.09a4.32,4.32,0,0,0,.45.12c-.85,1.66-.17,3.74-1.84,5.39.5-2,.95-3.74,1.39-5.51m3-10.59c-2.06,6.11-4.08,12.24-6.18,18.34-1.42,4.11-2.94,8.2-3.54,12.53-.27,2-.41,3.94-.52,5.92,0,.43.33.89.51,1.34.35-.22.7-.45,1.05-.65,0,0,.11,0,.22,0,0,.35,0,.7-.07,1l.5.1c3-12.94,5.44-26,8.56-38.93l-.33-.1a1.82,1.82,0,0,0-.2.36"/></clipPath><linearGradient id="Sfumatura_senza_nome_112-2" x1="-546.4" y1="1324.92" x2="-545.4" y2="1324.92" gradientTransform="matrix(37.33, 0, 0, -37.33, 20507.12, 49544.11)" xlink:href="#Sfumatura_senza_nome_112"/><clipPath id="clip-path-3" transform="translate(104.63 53.03)"><path class="cls-1" d="M75.74,3.73a8.63,8.63,0,0,0-.18,1.21c-.11,2.46-.15,4.9-.44,7.37-.37,3,0,6.17,0,9.26a15.37,15.37,0,0,1-.22,2.95c-.57,3.24-1.14,6.5-.57,9.78a16.34,16.34,0,0,0,1.46,4.27c.55,1.15,1.6,1.07,2.2,0a4.59,4.59,0,0,0,.48-1.39,25.66,25.66,0,0,0-1.64-13.59,17.33,17.33,0,0,1-.79-2.37c-.3-1.43-.54-2.87-.73-4.32a2.85,2.85,0,0,1,.52-2.71c.13-.12.14-.41.15-.61q.09-4.5.15-9A3.84,3.84,0,0,0,76,3.73h-.27"/></clipPath><linearGradient id="Sfumatura_senza_nome_112-3" x1="-546.4" y1="1324.89" x2="-545.4" y2="1324.89" gradientTransform="matrix(28.89, 0, 0, -28.89, 15848.4, 38300.02)" xlink:href="#Sfumatura_senza_nome_112"/><clipPath id="clip-path-4" transform="translate(104.63 53.03)"><path class="cls-1" d="M22.91,78.05c.06.18.11.37.19.55.57,1.21,1.2,2.39,1.69,3.62.22.57,0,1.29.25,1.86.54,1.42,1.18,2.8,1.81,4.18.3.65.67,1.27,1,1.91l.22-.11-2.13-5a9.19,9.19,0,0,1,1.59,2.61q1.86,4.88,3.57,9.82c.49,1.4.74,2.88,1.22,4.29a29.06,29.06,0,0,0,1.51,3.38c.16.31.54.52.82.78l.29-.11a3.14,3.14,0,0,0,0-1.19c-.67-1.48-1.4-3-2.15-4.4-.49-.94-1-1.86-1.57-2.79l.18-.13,1,.57.29-.15a9.82,9.82,0,0,0-.4-1.64c-.6-1.4-1.23-2.78-1.93-4.13-.86-1.65-1.88-3.21-2.7-4.88-1.37-2.79-2.62-5.62-3.94-8.43a5.38,5.38,0,0,0-.53-.75l-.2.13"/></clipPath><linearGradient id="Sfumatura_senza_nome_112-4" x1="-546.4" y1="1324.89" x2="-545.4" y2="1324.89" gradientTransform="matrix(16.33, 0, 0, -16.33, 8946.14, 21734.01)" xlink:href="#Sfumatura_senza_nome_112"/><clipPath id="clip-path-5" transform="translate(104.63 53.03)"><path class="cls-1" d="M121.85,203.56a11.45,11.45,0,0,1-1,2.93,8.49,8.49,0,0,0-1.49,6.35,2,2,0,0,0,1.09,1.33c.25.11,1-.43,1.24-.85a7.6,7.6,0,0,0,.78-6.36,4.22,4.22,0,0,1-.14-2.69,11.82,11.82,0,0,0,.23-1.45l-.45-.07c-.07.27-.12.55-.21.81"/></clipPath><linearGradient id="Sfumatura_senza_nome_112-5" x1="-546.4" y1="1324.93" x2="-545.4" y2="1324.93" gradientTransform="matrix(10.54, 0, 0, -10.54, 5873.16, 14168.81)" xlink:href="#Sfumatura_senza_nome_112"/><clipPath id="clip-path-6" transform="translate(104.63 53.03)"><path class="cls-1" d="M149.44,129.08l-.15-.11.27-1.22a1.06,1.06,0,0,1-.25-.09c-2.86,5-6.74,9.42-8.88,14.87,1.14-.51,10.36-14.08,10.51-15.45-.59.8-1.05,1.4-1.5,2"/></clipPath><linearGradient id="Sfumatura_senza_nome_112-6" x1="-546.4" y1="1324.88" x2="-545.4" y2="1324.88" gradientTransform="matrix(18.68, 0, 0, -18.68, 10340.43, 24877.33)" xlink:href="#Sfumatura_senza_nome_112"/><clipPath id="clip-path-7" transform="translate(104.63 53.03)"><path class="cls-1" d="M131.09,164.2c-.47.77-.84,1.6-1.28,2.38-.13.24-.28.59-.49.65-.81.26-.89.92-1.06,1.59a5.89,5.89,0,0,1-.59,1.45c-2.3,4.16-4.62,8.3-6.93,12.46a7.79,7.79,0,0,0-.37,1l.31.15c5.13-8.62,10-17.37,14.76-26.21l-.25-.15c-1.37,2.24-2.75,4.48-4.1,6.73"/></clipPath><linearGradient id="Sfumatura_senza_nome_112-7" x1="-546.4" y1="1324.9" x2="-545.4" y2="1324.9" gradientTransform="matrix(30, 0, 0, -30, 16503.46, 39914.33)" xlink:href="#Sfumatura_senza_nome_112"/><clipPath id="clip-path-8" transform="translate(104.63 53.03)"><path class="cls-1" d="M105.45,270a25.93,25.93,0,0,0-1.33,2.35,1.63,1.63,0,0,0-.71.14,3,3,0,0,0-1,3.17,1.75,1.75,0,0,0,1,.88,1.24,1.24,0,0,0,1-.56,14.14,14.14,0,0,0,.66-2.2c1.26-.08,1.95-.64,1.94-1.88a5.35,5.35,0,0,0-.47-1.77c-.15-.36-.37-.54-.6-.54a.78.78,0,0,0-.6.41"/></clipPath><linearGradient id="Sfumatura_senza_nome_112-8" x1="-546.4" y1="1324.92" x2="-545.4" y2="1324.92" gradientTransform="matrix(7.33, 0, 0, -7.33, 4105.84, 9983.93)" xlink:href="#Sfumatura_senza_nome_112"/><clipPath id="clip-path-9" transform="translate(104.63 53.03)"><path class="cls-1" d="M52.31,154.55c.92,2.11,2.87,3.76,2.5,6.46-.16,1.09.41,2.29.71,3.42a4,4,0,0,0,.52.89l.32-.16c-.33-1.42-.66-2.83-1-4.23,1.4,2.1,1.71,4.73,3.57,6.58a1.88,1.88,0,0,0-.11-1.14c-.8-1.68-1.62-3.34-2.44-5-1.6-3.25-3.67-6.27-4.74-9.78a1.39,1.39,0,0,0-.22-.37c-.21,1.29.44,2.28.89,3.34"/></clipPath><linearGradient id="Sfumatura_senza_nome_112-9" x1="-546.4" y1="1324.9" x2="-545.4" y2="1324.9" gradientTransform="matrix(9.05, 0, 0, -9.05, 4993.01, 12143.65)" xlink:href="#Sfumatura_senza_nome_112"/><clipPath id="clip-path-10" transform="translate(104.63 53.03)"><path class="cls-1" d="M33,56a32.13,32.13,0,0,0,1.24,3.7,7.39,7.39,0,0,0,1.05,1.43c.12,0,.24-.07.36-.09a7.19,7.19,0,0,0,.15-1.29,10.06,10.06,0,0,0-1.89-4.88,34.07,34.07,0,0,1-1.62-3.12L32,51.12A43,43,0,0,0,33,56"/></clipPath><linearGradient id="Sfumatura_senza_nome_112-10" x1="-546.4" y1="1324.88" x2="-545.4" y2="1324.88" gradientTransform="matrix(6.3, 0, 0, -6.3, 3472.77, 8402.62)" xlink:href="#Sfumatura_senza_nome_112"/><clipPath id="clip-path-11" transform="translate(104.63 53.03)"><path class="cls-1" d="M44.68,3.64a7.16,7.16,0,0,0,0,.8c.3,1.65.66,3.28.91,4.93.37,2.44,1.41,4.74,1.13,7.35-.16,1.46.61,3,1,4.51,0,.19.35.32.54.47a5.25,5.25,0,0,0,.31-.63.78.78,0,0,0-.06-.36C47.74,16.79,46.9,12.88,46.08,9c-.22-1.09-.37-2.2-.58-3.3C45.37,5,45.17,4.26,45,3.56l-.33.08"/></clipPath><linearGradient id="Sfumatura_senza_nome_112-11" x1="-546.4" y1="1324.89" x2="-545.4" y2="1324.89" gradientTransform="matrix(12.97, 0, 0, -12.97, 7125.46, 17192.63)" xlink:href="#Sfumatura_senza_nome_112"/><clipPath id="clip-path-12" transform="translate(104.63 53.03)"><path class="cls-1" d="M66.45,249.48a4,4,0,0,0,.65,2,1.23,1.23,0,0,0,1,.55,1.44,1.44,0,0,0,.81-.95,3.86,3.86,0,0,0-.79-3.4c-.33-.41-.63-.84-1.12-1.5a23.26,23.26,0,0,0-.57,3.33"/></clipPath><linearGradient id="Sfumatura_senza_nome_112-12" x1="-546.4" y1="1324.87" x2="-545.4" y2="1324.87" gradientTransform="matrix(4.38, 0, 0, -4.38, 2461.09, 6058.02)" xlink:href="#Sfumatura_senza_nome_112"/><clipPath id="clip-path-13" transform="translate(104.63 53.03)"><path class="cls-1" d="M88.73,89.59c0,2.2,0,4.4.09,6.59a9.32,9.32,0,0,0,.52,2l.34,0c.18-.32.5-.63.51-1a19.11,19.11,0,0,0-.1-3.3c-.3-1.86-.74-3.7-1.13-5.55,0-.1-.14-.19-.37-.49.06.74.13,1.22.14,1.71"/></clipPath><linearGradient id="Sfumatura_senza_nome_112-13" x1="-546.4" y1="1324.87" x2="-545.4" y2="1324.87" gradientTransform="matrix(8.03, 0, 0, -8.03, 4474.22, 10735.3)" xlink:href="#Sfumatura_senza_nome_112"/><clipPath id="clip-path-14" transform="translate(104.63 53.03)"><path class="cls-1" d="M114.05,117.19c-.52,2.32-1.06,4.64-1.51,7a4.18,4.18,0,0,0,.32,1.45l.21,0c-.09.72-.19,1.44-.28,2.16l.36,0q.84-6.14,1.69-12.26l-.29-.06c-.17.58-.37,1.15-.5,1.73"/></clipPath><linearGradient id="Sfumatura_senza_nome_112-14" x1="-546.4" y1="1324.91" x2="-545.4" y2="1324.91" gradientTransform="matrix(11.19, 0, 0, -11.19, 6222.3, 14947.29)" xlink:href="#Sfumatura_senza_nome_112"/><clipPath id="clip-path-15" transform="translate(104.63 53.03)"><path class="cls-1" d="M67.1,133.08c-.3-4.7-3-8.54-4.57-12.78,1.4,4.3,2.3,8.79,4.57,12.78"/></clipPath><linearGradient id="Sfumatura_senza_nome_112-15" x1="-546.4" y1="1324.9" x2="-545.4" y2="1324.9" gradientTransform="matrix(7.85, 0, 0, -7.85, 4350.97, 10529.18)" xlink:href="#Sfumatura_senza_nome_112"/><clipPath id="clip-path-16" transform="translate(104.63 53.03)"><path class="cls-1" d="M138.22,159.83a1.94,1.94,0,0,0-.49.67c-1.49,3.09-2.79,6.27-4.86,9.05a.92.92,0,0,0-.09.25.81.81,0,0,1,.14.12,2.76,2.76,0,0,0,.3-.29c.8-1.23,1.43-2.61,2.9-3.27a.93.93,0,0,0,.4-.5q1.22-2.76,2.38-5.53a.6.6,0,0,0-.12-.54.36.36,0,0,0-.22-.06.57.57,0,0,0-.34.1"/></clipPath><linearGradient id="Sfumatura_senza_nome_112-16" x1="-546.4" y1="1324.9" x2="-545.4" y2="1324.9" gradientTransform="matrix(11.66, 0, 0, -11.66, 6501.91, 15615.33)" xlink:href="#Sfumatura_senza_nome_112"/><clipPath id="clip-path-17" transform="translate(104.63 53.03)"><path class="cls-1" d="M55.71,29.47a3.18,3.18,0,0,0,0,.69q1.38,6.42,2.8,12.82a3.62,3.62,0,0,0,.47.89l.39-.14c-.86-4.82-2.36-9.49-3.28-14.3l-.38,0"/></clipPath><linearGradient id="Sfumatura_senza_nome_112-17" x1="-546.4" y1="1324.9" x2="-545.4" y2="1324.9" gradientTransform="matrix(10.17, 0, 0, -10.17, 5610.32, 13513.32)" xlink:href="#Sfumatura_senza_nome_112"/><clipPath id="clip-path-18" transform="translate(104.63 53.03)"><path class="cls-1" d="M57.73,0A1.77,1.77,0,0,0,56.38,1.8a1.64,1.64,0,0,0,2,1c.79-.19,1.52-1.12,1.37-1.73A1.78,1.78,0,0,0,58.08,0a1.34,1.34,0,0,0-.35,0"/></clipPath><linearGradient id="Sfumatura_senza_nome_112-18" x1="-546.4" y1="1324.87" x2="-545.4" y2="1324.87" gradientTransform="matrix(3.12, 0, 0, -3.12, 1762.35, 4137.72)" xlink:href="#Sfumatura_senza_nome_112"/><clipPath id="clip-path-19" transform="translate(104.63 53.03)"><path class="cls-1" d="M45.25,204.23a1.31,1.31,0,0,0,.3,1c1,1,2.3.94,3.56.94.47,0,.6-.35.23-.68A13.43,13.43,0,0,0,47.47,204a6.26,6.26,0,0,0-1.56-.45c-.26.27-.62.47-.66.73"/></clipPath><linearGradient id="Sfumatura_senza_nome_112-19" x1="-546.4" y1="1324.92" x2="-545.4" y2="1324.92" gradientTransform="matrix(2.19, 0, 0, -2.19, 1241.54, 3103.78)" xlink:href="#Sfumatura_senza_nome_112"/><clipPath id="clip-path-20" transform="translate(104.63 53.03)"><path class="cls-1" d="M72,281.7c.18.7.58,1.28,1.29,1.22s1-.81,1-1.48a3.41,3.41,0,0,0-1.6-2.75,3.63,3.63,0,0,0-.68,3"/></clipPath><linearGradient id="Sfumatura_senza_nome_112-20" x1="-546.4" y1="1324.93" x2="-545.4" y2="1324.93" gradientTransform="matrix(3.35, 0, 0, -3.35, 1903.27, 4723.38)" xlink:href="#Sfumatura_senza_nome_112"/><clipPath id="clip-path-21" transform="translate(104.63 53.03)"><path class="cls-1" d="M139.76,137.36c2-3.29,4.11-6.52,5.22-10.27a59.38,59.38,0,0,0-5.22,10.27"/></clipPath><linearGradient id="Sfumatura_senza_nome_112-21" x1="-546.4" y1="1324.9" x2="-545.4" y2="1324.9" gradientTransform="matrix(11.41, 0, 0, -11.41, 6371.19, 15249.48)" xlink:href="#Sfumatura_senza_nome_112"/><clipPath id="clip-path-22" transform="translate(104.63 53.03)"><path class="cls-1" d="M100.19,273.18c.16.38.59.91.87.89a1.47,1.47,0,0,0,1.09-.79c.63-1.75.75-1.71-.89-3.07a2.7,2.7,0,0,0-1.07,3"/></clipPath><linearGradient id="Sfumatura_senza_nome_112-22" x1="-546.4" y1="1324.9" x2="-545.4" y2="1324.9" gradientTransform="matrix(3.34, 0, 0, -3.34, 1926.05, 4701.16)" xlink:href="#Sfumatura_senza_nome_112"/><clipPath id="clip-path-23" transform="translate(104.63 53.03)"><path class="cls-1" d="M41.13,37.34c.53-1.34-.51-4.63-1.71-5.5C39,33.53,40,37,41.13,37.34"/></clipPath><linearGradient id="Sfumatura_senza_nome_112-23" x1="-546.4" y1="1324.89" x2="-545.4" y2="1324.89" gradientTransform="matrix(3.55, 0, 0, -3.55, 1980.7, 4744.18)" xlink:href="#Sfumatura_senza_nome_112"/><clipPath id="clip-path-24" transform="translate(104.63 53.03)"><path class="cls-1" d="M74.42,218.94c0,1.29,0,2.58,0,3.87a6.08,6.08,0,0,0,.07,1.66c.11.37.58.62.88.93.21-.33.59-.68.58-1a9.28,9.28,0,0,0-.37-2.07c-.23-.89-.51-1.75-.76-2.63-.08-.27-.13-.54-.2-.81a1.27,1.27,0,0,1-.18.06"/></clipPath><linearGradient id="Sfumatura_senza_nome_112-24" x1="-546.4" y1="1324.86" x2="-545.4" y2="1324.86" gradientTransform="matrix(4.91, 0, 0, -4.91, 2753.3, 6722.26)" xlink:href="#Sfumatura_senza_nome_112"/><clipPath id="clip-path-25" transform="translate(104.63 53.03)"><path class="cls-1" d="M113.64,97.81a1.15,1.15,0,0,0,.32-.64c.2-1.48.37-3,.58-4.42a6.77,6.77,0,0,1,.48-2.34c.7-1.23.36-2.45.2-3.7-.61,3.69-1.63,7.31-1.58,11.1"/></clipPath><linearGradient id="Sfumatura_senza_nome_112-25" x1="-546.4" y1="1324.88" x2="-545.4" y2="1324.88" gradientTransform="matrix(10, 0, 0, -10, 5571.1, 13335.22)" xlink:href="#Sfumatura_senza_nome_112"/><clipPath id="clip-path-26" transform="translate(104.63 53.03)"><path class="cls-1" d="M77,223.71a17.51,17.51,0,0,0-.47-4.54l-.44.26c-.12-.35-.21-.67-.33-1-.78,1.54,0,4.67,1.24,5.31"/></clipPath><linearGradient id="Sfumatura_senza_nome_112-26" x1="-546.4" y1="1324.97" x2="-545.4" y2="1324.97" gradientTransform="matrix(3.65, 0, 0, -3.65, 2068.26, 5055.91)" xlink:href="#Sfumatura_senza_nome_112"/><clipPath id="clip-path-27" transform="translate(104.63 53.03)"><path class="cls-1" d="M129.48,155l.36.15a30.78,30.78,0,0,0,3.9-8l-.31-.15q-2,4-4,8"/></clipPath><linearGradient id="Sfumatura_senza_nome_112-27" x1="-546.4" y1="1324.9" x2="-545.4" y2="1324.9" gradientTransform="matrix(8.9, 0, 0, -8.9, 4989.21, 11940.56)" xlink:href="#Sfumatura_senza_nome_112"/><clipPath id="clip-path-28" transform="translate(104.63 53.03)"><path class="cls-1" d="M53.81,147.27c.14.6.28,1.2.43,1.79.71,3,1.42,6,2.15,9,.15.61.32,1.26,1,1.36L54,147.21l-.16.06"/></clipPath><linearGradient id="Sfumatura_senza_nome_112-28" x1="-546.4" y1="1324.9" x2="-545.4" y2="1324.9" gradientTransform="matrix(8.12, 0, 0, -8.12, 4489.88, 10915.35)" xlink:href="#Sfumatura_senza_nome_112"/><clipPath id="clip-path-29" transform="translate(104.63 53.03)"><path class="cls-1" d="M54.69,168c1.08,3.86,2.21,7.71,3.56,11.49l.37-.15Q56.79,173.63,55,167.9l-.29.1"/></clipPath><linearGradient id="Sfumatura_senza_nome_112-29" x1="-546.4" y1="1324.89" x2="-545.4" y2="1324.89" gradientTransform="matrix(7.62, 0, 0, -7.62, 4214.33, 10264.35)" xlink:href="#Sfumatura_senza_nome_112"/><clipPath id="clip-path-30" transform="translate(104.63 53.03)"><path class="cls-1" d="M146.45,151.89c1.71-1.39,4.29-5.07,4.31-6.2-1.46,2.17-3.48,3.76-4.31,6.2"/></clipPath><linearGradient id="Sfumatura_senza_nome_112-30" x1="-546.4" y1="1324.91" x2="-545.4" y2="1324.91" gradientTransform="matrix(7.55, 0, 0, -7.55, 4271.9, 10156.1)" xlink:href="#Sfumatura_senza_nome_112"/><clipPath id="clip-path-31" transform="translate(104.63 53.03)"><path class="cls-1" d="M18.32,28.72c.31,1.34.61,2.68,1,4a2.78,2.78,0,0,0,.57,1c.11.14.42.32.5.27s.39-.39.35-.55a7.83,7.83,0,0,0-.58-1.62c-.43-.91-.91-1.8-1.38-2.7a5.08,5.08,0,0,0-.27-.43.69.69,0,0,1-.15.07"/></clipPath><linearGradient id="Sfumatura_senza_nome_112-31" x1="-546.4" y1="1324.86" x2="-545.4" y2="1324.86" gradientTransform="matrix(3.35, 0, 0, -3.35, 1850.44, 4475.07)" xlink:href="#Sfumatura_senza_nome_112"/><clipPath id="clip-path-32" transform="translate(104.63 53.03)"><path class="cls-1" d="M77.35,216.75c0,.88-.06,1.76-.09,2.64l.45,0c0-.33.06-.67.11-1.13.81-.22.71-.88.55-1.54s-.37-1.55-.58-2.32a3.32,3.32,0,0,0-.35-.62c0,1.12-.06,2-.09,2.95"/></clipPath><linearGradient id="Sfumatura_senza_nome_112-32" x1="-546.4" y1="1324.83" x2="-545.4" y2="1324.83" gradientTransform="matrix(4.68, 0, 0, -4.68, 2634.13, 6420.92)" xlink:href="#Sfumatura_senza_nome_112"/><clipPath id="clip-path-33" transform="translate(104.63 53.03)"><path class="cls-1" d="M71.85,134.82c.36-1.95-.64-3.58-1.29-5.29.46,1.76.06,3.73,1.29,5.29"/></clipPath><linearGradient id="Sfumatura_senza_nome_112-33" x1="-546.4" y1="1324.85" x2="-545.4" y2="1324.85" gradientTransform="matrix(3.6, 0, 0, -3.6, 2035.48, 4899.21)" xlink:href="#Sfumatura_senza_nome_112"/><clipPath id="clip-path-34" transform="translate(104.63 53.03)"><path class="cls-1" d="M67.52,194.53a7.67,7.67,0,0,0,1,2.2,3.08,3.08,0,0,1,.66,2.36c-.06.77-.17.76.73,1.31l-1-5.64-.32,0c.06.46.13.93.19,1.4l-.14,0-.81-1.82-.31.12"/></clipPath><linearGradient id="Sfumatura_senza_nome_112-34" x1="-546.4" y1="1324.9" x2="-545.4" y2="1324.9" gradientTransform="matrix(4.09, 0, 0, -4.09, 2304.04, 5622.04)" xlink:href="#Sfumatura_senza_nome_112"/><clipPath id="clip-path-35" transform="translate(104.63 53.03)"><path class="cls-1" d="M13.85,74.47c1.4,1.75,1.74,4,3,5.86l.46-.24c-.71-2.1-2.25-3.79-3-5.89l-.52.27"/></clipPath><linearGradient id="Sfumatura_senza_nome_112-35" x1="-546.4" y1="1324.9" x2="-545.4" y2="1324.9" gradientTransform="matrix(3.57, 0, 0, -3.57, 1966.01, 4810.79)" xlink:href="#Sfumatura_senza_nome_112"/><clipPath id="clip-path-36" transform="translate(104.63 53.03)"><path class="cls-1" d="M106.44,100.07c-.08,1.14-.12,2.29-.12,3.43a2.51,2.51,0,0,0,.25.76c.18-.25.49-.49.49-.74,0-1.47,0-2.94,0-4.41l-.26-.14a5.08,5.08,0,0,0-.32,1.1"/></clipPath><linearGradient id="Sfumatura_senza_nome_112-36" x1="-546.4" y1="1324.89" x2="-545.4" y2="1324.89" gradientTransform="matrix(4.48, 0, 0, -4.48, 2550.47, 6032.57)" xlink:href="#Sfumatura_senza_nome_112"/><clipPath id="clip-path-37" transform="translate(104.63 53.03)"><path class="cls-1" d="M72.07,12.11c.66-.7.57-2.47-.23-3.71a3.14,3.14,0,0,0,.23,3.71"/></clipPath><linearGradient id="Sfumatura_senza_nome_112-37" x1="-546.4" y1="1324.91" x2="-545.4" y2="1324.91" gradientTransform="matrix(2.92, 0, 0, -2.92, 1663.27, 3872.41)" xlink:href="#Sfumatura_senza_nome_112"/><clipPath id="clip-path-38" transform="translate(104.63 53.03)"><path class="cls-1" d="M59.53,210.4a.83.83,0,0,0,.68.34.8.8,0,0,0,.37-.64,2.55,2.55,0,0,0-1.22-2.33,2.91,2.91,0,0,0,.17,2.63"/></clipPath><linearGradient id="Sfumatura_senza_nome_112-38" x1="-546.4" y1="1324.9" x2="-545.4" y2="1324.9" gradientTransform="matrix(2.1, 0, 0, -2.1, 1207.66, 2995.25)" xlink:href="#Sfumatura_senza_nome_112"/><clipPath id="clip-path-39" transform="translate(104.63 53.03)"><path class="cls-1" d="M135.92,135.29l.46.17,2-4.92-.32-.13c-.78,1.6-1.81,3.08-2.11,4.88"/></clipPath><linearGradient id="Sfumatura_senza_nome_112-39" x1="-546.4" y1="1324.91" x2="-545.4" y2="1324.91" gradientTransform="matrix(5.28, 0, 0, -5.28, 3017.82, 7124.26)" xlink:href="#Sfumatura_senza_nome_112"/><clipPath id="clip-path-40" transform="translate(104.63 53.03)"><path class="cls-1" d="M68.37,187.65c.18,1.41.36,2.82.52,4.18l1.94.33c-1.44-1.35-2.26-2.78-2-4.65l-.45.14"/></clipPath><linearGradient id="Sfumatura_senza_nome_112-40" x1="-546.4" y1="1324.91" x2="-545.4" y2="1324.91" gradientTransform="matrix(3.5, 0, 0, -3.5, 1979.37, 4825.73)" xlink:href="#Sfumatura_senza_nome_112"/><clipPath id="clip-path-41" transform="translate(104.63 53.03)"><path class="cls-1" d="M60.66,158.56l3.06,6.95.37-.17-3.16-6.9-.27.12"/></clipPath><linearGradient id="Sfumatura_senza_nome_112-41" x1="-546.4" y1="1324.89" x2="-545.4" y2="1324.89" gradientTransform="matrix(4.19, 0, 0, -4.19, 2349.11, 5711.9)" xlink:href="#Sfumatura_senza_nome_112"/><clipPath id="clip-path-42" transform="translate(104.63 53.03)"><path class="cls-1" d="M129,201.18c-.11.3.19.75.3,1.13.27-.28.71-.52.78-.84a22.57,22.57,0,0,0,.28-2.62l-.2,0a22.55,22.55,0,0,0-1.16,2.37"/></clipPath><linearGradient id="Sfumatura_senza_nome_112-42" x1="-546.4" y1="1324.95" x2="-545.4" y2="1324.95" gradientTransform="matrix(3.44, 0, 0, -3.44, 2009.64, 4763.49)" xlink:href="#Sfumatura_senza_nome_112"/><clipPath id="clip-path-43" transform="translate(104.63 53.03)"><path class="cls-1" d="M115,112.87c.1,0,.2,0,.3.06q.69-3.62,1.39-7.24l-.38-.08c-.44,2.43-.87,4.84-1.31,7.26"/></clipPath><linearGradient id="Sfumatura_senza_nome_112-43" x1="-546.4" y1="1324.89" x2="-545.4" y2="1324.89" gradientTransform="matrix(6.84, 0, 0, -6.84, 3850.8, 9173.87)" xlink:href="#Sfumatura_senza_nome_112"/><clipPath id="clip-path-44" transform="translate(104.63 53.03)"><path class="cls-1" d="M64.38,97.66c.39-1.4-.14-2.49-.54-3.79a3.77,3.77,0,0,0,.54,3.79"/></clipPath><linearGradient id="Sfumatura_senza_nome_112-44" x1="-546.4" y1="1324.92" x2="-545.4" y2="1324.92" gradientTransform="matrix(2.79, 0, 0, -2.79, 1589.82, 3798.8)" xlink:href="#Sfumatura_senza_nome_112"/><clipPath id="clip-path-45" transform="translate(104.63 53.03)"><path class="cls-1" d="M171.33,271.84a1,1,0,0,0-.44.82,1.08,1.08,0,0,0,1.37.79c.25,0,.46-.41.59-.54a1.49,1.49,0,0,0-1.26-1.13.58.58,0,0,0-.26.06"/></clipPath><linearGradient id="Sfumatura_senza_nome_112-45" x1="-546.4" y1="1324.9" x2="-545.4" y2="1324.9" gradientTransform="matrix(1.58, 0, 0, -1.58, 1032.94, 2362.53)" xlink:href="#Sfumatura_senza_nome_112"/><clipPath id="clip-path-46" transform="translate(104.63 53.03)"><path class="cls-1" d="M117.53,121.93l.42.14c.44-2,.89-4,1.33-6.07l-.33-.08q-.72,3-1.42,6"/></clipPath><linearGradient id="Sfumatura_senza_nome_112-46" x1="-546.4" y1="1324.9" x2="-545.4" y2="1324.9" gradientTransform="matrix(5.87, 0, 0, -5.87, 3321.03, 7891.8)" xlink:href="#Sfumatura_senza_nome_112"/><clipPath id="clip-path-47" transform="translate(104.63 53.03)"><path class="cls-1" d="M109.52,229.42c0,.18.24.48.34.47a.85.85,0,0,0,.57-.35,2.42,2.42,0,0,0-.08-2.33,2,2,0,0,0-.83,2.21"/></clipPath><linearGradient id="Sfumatura_senza_nome_112-47" x1="-546.4" y1="1324.95" x2="-545.4" y2="1324.95" gradientTransform="matrix(2.49, 0, 0, -2.49, 1470.67, 3530.91)" xlink:href="#Sfumatura_senza_nome_112"/><clipPath id="clip-path-48" transform="translate(104.63 53.03)"><path class="cls-1" d="M122.07,169.64l.43.26q1.13-2,2.27-3.89c-.12-.07-.23-.15-.35-.21q-1.19,1.92-2.35,3.84"/></clipPath><linearGradient id="Sfumatura_senza_nome_112-48" x1="-546.4" y1="1324.9" x2="-545.4" y2="1324.9" gradientTransform="matrix(4.52, 0, 0, -4.52, 2593.08, 6161.6)" xlink:href="#Sfumatura_senza_nome_112"/><clipPath id="clip-path-49" transform="translate(104.63 53.03)"><path class="cls-1" d="M4.1,70.38a2.74,2.74,0,0,0-1.52-2.84A3.78,3.78,0,0,0,4.1,70.38"/></clipPath><linearGradient id="Sfumatura_senza_nome_112-49" x1="-546.4" y1="1324.81" x2="-545.4" y2="1324.81" gradientTransform="matrix(1.49, 0, 0, -1.49, 816.46, 2042.11)" xlink:href="#Sfumatura_senza_nome_112"/><clipPath id="clip-path-50" transform="translate(104.63 53.03)"><path class="cls-1" d="M119.36,242.8l.24.38,3.87-2.56c-.08-.11-.15-.23-.24-.35l-3.87,2.53"/></clipPath><linearGradient id="Sfumatura_senza_nome_112-50" x1="-546.4" y1="1324.89" x2="-545.4" y2="1324.89" gradientTransform="matrix(4.46, 0, 0, -4.46, 2557.11, 6153.31)" xlink:href="#Sfumatura_senza_nome_112"/><clipPath id="clip-path-51" transform="translate(104.63 53.03)"><path class="cls-1" d="M84.38,112c-.42,1.71.24,3.36.27,5l.28,0c-.1-1.67-.21-3.34-.31-5l-.24,0"/></clipPath><linearGradient id="Sfumatura_senza_nome_112-51" x1="-546.4" y1="1324.94" x2="-545.4" y2="1324.94" gradientTransform="matrix(4.12, 0, 0, -4.12, 2335.33, 5577.26)" xlink:href="#Sfumatura_senza_nome_112"/><clipPath id="clip-path-52" transform="translate(104.63 53.03)"><path class="cls-1" d="M82.34,284a.85.85,0,0,0,.49.44.65.65,0,0,0,.48-.33,1.4,1.4,0,0,0-.38-1.84,1.52,1.52,0,0,0-.59,1.73"/></clipPath><linearGradient id="Sfumatura_senza_nome_112-52" x1="-546.4" y1="1324.92" x2="-545.4" y2="1324.92" gradientTransform="matrix(1.87, 0, 0, -1.87, 1103.55, 2760.63)" xlink:href="#Sfumatura_senza_nome_112"/><clipPath id="clip-path-53" transform="translate(104.63 53.03)"><path class="cls-1" d="M22.83,55.76c-.09,1.43.37,2.38,1.6,2.75l-1.29-2.84-.31.09"/></clipPath><linearGradient id="Sfumatura_senza_nome_112-53" x1="-546.4" y1="1324.93" x2="-545.4" y2="1324.93" gradientTransform="matrix(1.72, 0, 0, -1.72, 963.38, 2337.87)" xlink:href="#Sfumatura_senza_nome_112"/><clipPath id="clip-path-54" transform="translate(104.63 53.03)"><path class="cls-1" d="M95.43,80.14l.12,5h.37c0-1.68-.11-3.37-.16-5.05h-.33"/></clipPath><linearGradient id="Sfumatura_senza_nome_112-54" x1="-546.4" y1="1324.9" x2="-545.4" y2="1324.9" gradientTransform="matrix(4.26, 0, 0, -4.26, 2421.29, 5727.07)" xlink:href="#Sfumatura_senza_nome_112"/><clipPath id="clip-path-55" transform="translate(104.63 53.03)"><path class="cls-1" d="M51.34,110.79c.55,1.66,1.1,3.31,1.64,5l.33-.11q-.83-2.49-1.64-5l-.33.11"/></clipPath><linearGradient id="Sfumatura_senza_nome_112-55" x1="-546.4" y1="1324.9" x2="-545.4" y2="1324.9" gradientTransform="matrix(3.41, 0, 0, -3.41, 1913.39, 4630.03)" xlink:href="#Sfumatura_senza_nome_112"/><clipPath id="clip-path-56" transform="translate(104.63 53.03)"><path class="cls-1" d="M102.94,247.85c0,.23.29.51.46.77.2-.25.56-.49.57-.74a8.28,8.28,0,0,0-.26-1.62l-.31,0a8.83,8.83,0,0,0-.46,1.63"/></clipPath><linearGradient id="Sfumatura_senza_nome_112-56" x1="-546.4" y1="1324.9" x2="-545.4" y2="1324.9" gradientTransform="matrix(2.11, 0, 0, -2.11, 1252.89, 3036.94)" xlink:href="#Sfumatura_senza_nome_112"/><clipPath id="clip-path-57" transform="translate(104.63 53.03)"><path class="cls-1" d="M61.76,13.59A2.09,2.09,0,0,0,61.33,11a2.06,2.06,0,0,0,.43,2.61"/></clipPath><linearGradient id="Sfumatura_senza_nome_112-57" x1="-546.4" y1="1324.89" x2="-545.4" y2="1324.89" gradientTransform="matrix(1.89, 0, 0, -1.89, 1092.84, 2515.21)" xlink:href="#Sfumatura_senza_nome_112"/><clipPath id="clip-path-58" transform="translate(104.63 53.03)"><path class="cls-1" d="M114.08,82.83l.3,0a4.06,4.06,0,0,0,.53-3.06l-.4,0c-.14,1-.29,2-.43,3.06"/></clipPath><linearGradient id="Sfumatura_senza_nome_112-58" x1="-546.4" y1="1324.86" x2="-545.4" y2="1324.86" gradientTransform="matrix(2.95, 0, 0, -2.95, 1722.65, 3984.1)" xlink:href="#Sfumatura_senza_nome_112"/><clipPath id="clip-path-59" transform="translate(104.63 53.03)"><path class="cls-1" d="M61.21,155.76a7.78,7.78,0,0,0,1.55,3.45l.27-.12c-.5-1.16-1-2.32-1.49-3.48-.11,0-.22.09-.33.15"/></clipPath><linearGradient id="Sfumatura_senza_nome_112-59" x1="-546.4" y1="1324.9" x2="-545.4" y2="1324.9" gradientTransform="matrix(2.25, 0, 0, -2.25, 1291.5, 3141.01)" xlink:href="#Sfumatura_senza_nome_112"/><clipPath id="clip-path-60" transform="translate(104.63 53.03)"><path class="cls-1" d="M27.94,40.74q1,2.63,1.9,5.25l.3-.1-1.89-5.27a2.85,2.85,0,0,1-.31.12"/></clipPath><linearGradient id="Sfumatura_senza_nome_112-60" x1="-546.4" y1="1324.9" x2="-545.4" y2="1324.9" gradientTransform="matrix(3.49, 0, 0, -3.49, 1931.91, 4661.7)" xlink:href="#Sfumatura_senza_nome_112"/><clipPath id="clip-path-61" transform="translate(104.63 53.03)"><path class="cls-1" d="M64.79,185.5a4.8,4.8,0,0,0,.23.67c.13.26.42.47.47.73.14.81.53.77,1.29.3l-1.58-1.91-.41.21"/></clipPath><linearGradient id="Sfumatura_senza_nome_112-61" x1="-546.4" y1="1324.84" x2="-545.4" y2="1324.84" gradientTransform="matrix(1.47, 0, 0, -1.47, 867.95, 2133.49)" xlink:href="#Sfumatura_senza_nome_112"/><clipPath id="clip-path-62" transform="translate(104.63 53.03)"><path class="cls-1" d="M86.57,76.63c.49-1.3-.17-2.26-.35-3.26a3.86,3.86,0,0,0,.35,3.26"/></clipPath><linearGradient id="Sfumatura_senza_nome_112-62" x1="-546.4" y1="1324.88" x2="-545.4" y2="1324.88" gradientTransform="matrix(2.47, 0, 0, -2.47, 1435.19, 3348.37)" xlink:href="#Sfumatura_senza_nome_112"/><clipPath id="clip-path-63" transform="translate(104.63 53.03)"><path class="cls-1" d="M134.48,169.59l.3.23,2.69-3.36-.31-.26-2.68,3.39"/></clipPath><linearGradient id="Sfumatura_senza_nome_112-63" x1="-546.4" y1="1324.9" x2="-545.4" y2="1324.9" gradientTransform="matrix(4.33, 0, 0, -4.33, 2498.39, 5901.7)" xlink:href="#Sfumatura_senza_nome_112"/><clipPath id="clip-path-64" transform="translate(104.63 53.03)"><path class="cls-1" d="M17,131.09l1.87,2.75c.16-.1.31-.21.46-.32l-2-2.67-.32.24"/></clipPath><linearGradient id="Sfumatura_senza_nome_112-64" x1="-546.4" y1="1324.88" x2="-545.4" y2="1324.88" gradientTransform="matrix(1.56, 0, 0, -1.56, 872.42, 2205.71)" xlink:href="#Sfumatura_senza_nome_112"/><clipPath id="clip-path-65" transform="translate(104.63 53.03)"><path class="cls-1" d="M89.56,86.4c0,1.51.11,3,.16,4.53l.36,0-.21-4.5h-.31"/></clipPath><linearGradient id="Sfumatura_senza_nome_112-65" x1="-546.4" y1="1324.89" x2="-545.4" y2="1324.89" gradientTransform="matrix(3.81, 0, 0, -3.81, 2171.01, 5139.83)" xlink:href="#Sfumatura_senza_nome_112"/><clipPath id="clip-path-66" transform="translate(104.63 53.03)"><path class="cls-1" d="M77.26,71.59,77.77,76l.37-.05c-.19-1.46-.39-2.93-.58-4.39l-.3,0"/></clipPath><linearGradient id="Sfumatura_senza_nome_112-66" x1="-546.4" y1="1324.89" x2="-545.4" y2="1324.89" gradientTransform="matrix(3.52, 0, 0, -3.52, 1998.96, 4736.8)" xlink:href="#Sfumatura_senza_nome_112"/><clipPath id="clip-path-67" transform="translate(104.63 53.03)"><path class="cls-1" d="M58.4,108.82,60,113.45l.37-.14-1.64-4.59-.29.1"/></clipPath><linearGradient id="Sfumatura_senza_nome_112-67" x1="-546.4" y1="1324.89" x2="-545.4" y2="1324.89" gradientTransform="matrix(3.14, 0, 0, -3.14, 1773.77, 4272.09)" xlink:href="#Sfumatura_senza_nome_112"/><clipPath id="clip-path-68" transform="translate(104.63 53.03)"><path class="cls-1" d="M122.78,86.5l.5.09c.17-1,.34-2,.51-3l-.43,0c-.2,1-.39,2-.58,3"/></clipPath><linearGradient id="Sfumatura_senza_nome_112-68" x1="-546.4" y1="1324.91" x2="-545.4" y2="1324.91" gradientTransform="matrix(2.99, 0, 0, -2.99, 1755.38, 4046.18)" xlink:href="#Sfumatura_senza_nome_112"/><clipPath id="clip-path-69" transform="translate(104.63 53.03)"><path class="cls-1" d="M141.53,153.71l.24.15,1.8-2.73-.26-.15c-.6.91-1.19,1.82-1.78,2.73"/></clipPath><linearGradient id="Sfumatura_senza_nome_112-69" x1="-546.4" y1="1324.89" x2="-545.4" y2="1324.89" gradientTransform="matrix(3.29, 0, 0, -3.29, 1935.93, 4504.89)" xlink:href="#Sfumatura_senza_nome_112"/><clipPath id="clip-path-70" transform="translate(104.63 53.03)"><path class="cls-1" d="M139.79,151.84a3.79,3.79,0,0,0,.34.2l1.77-3-.37-.22-1.74,3.06"/></clipPath><linearGradient id="Sfumatura_senza_nome_112-70" x1="-546.4" y1="1324.89" x2="-545.4" y2="1324.89" gradientTransform="matrix(3.55, 0, 0, -3.55, 2076.82, 4848.98)" xlink:href="#Sfumatura_senza_nome_112"/><clipPath id="clip-path-71" transform="translate(104.63 53.03)"><path class="cls-1" d="M52.5,130.74c.32,1,.64,2,1,3.06l.41-.14c-.34-1-.69-2-1-3l-.33.12"/></clipPath><linearGradient id="Sfumatura_senza_nome_112-71" x1="-546.4" y1="1324.9" x2="-545.4" y2="1324.9" gradientTransform="matrix(2.25, 0, 0, -2.25, 1280.09, 3109.99)" xlink:href="#Sfumatura_senza_nome_112"/><clipPath id="clip-path-72" transform="translate(104.63 53.03)"><path class="cls-1" d="M84.76,118.72c0,1.33.08,2.67.13,4l.35,0-.12-4h-.36"/></clipPath><linearGradient id="Sfumatura_senza_nome_112-72" x1="-546.4" y1="1324.9" x2="-545.4" y2="1324.9" gradientTransform="matrix(3.41, 0, 0, -3.41, 1946.35, 4638.16)" xlink:href="#Sfumatura_senza_nome_112"/><clipPath id="clip-path-73" transform="translate(104.63 53.03)"><path class="cls-1" d="M128.28,74.47l.39.09a3.59,3.59,0,0,0,.5-2.6l-.3-.06c-.2.85-.39,1.71-.59,2.57"/></clipPath><linearGradient id="Sfumatura_senza_nome_112-73" x1="-546.4" y1="1324.89" x2="-545.4" y2="1324.89" gradientTransform="matrix(2.57, 0, 0, -2.57, 1530.62, 3475.35)" xlink:href="#Sfumatura_senza_nome_112"/><clipPath id="clip-path-74" transform="translate(104.63 53.03)"><path class="cls-1" d="M128.57,195.86l.24.24,2.9-2.9-.24-.24c-1,1-1.94,1.93-2.9,2.9"/></clipPath><linearGradient id="Sfumatura_senza_nome_112-74" x1="-546.4" y1="1324.9" x2="-545.4" y2="1324.9" gradientTransform="matrix(4.1, 0, 0, -4.1, 2367.3, 5624.14)" xlink:href="#Sfumatura_senza_nome_112"/><clipPath id="clip-path-75" transform="translate(104.63 53.03)"><path class="cls-1" d="M67.59,191.55,70,194.23l.31-.29-2.45-2.59-.22.2"/></clipPath><linearGradient id="Sfumatura_senza_nome_112-75" x1="-546.4" y1="1324.88" x2="-545.4" y2="1324.88" gradientTransform="matrix(1.13, 0, 0, -1.13, 688.12, 1695.56)" xlink:href="#Sfumatura_senza_nome_112"/><clipPath id="clip-path-76" transform="translate(104.63 53.03)"><path class="cls-1" d="M57.32,147.71l1.54,2.55.32-.19-1.43-2.62-.43.26"/></clipPath><linearGradient id="Sfumatura_senza_nome_112-76" x1="-546.4" y1="1324.91" x2="-545.4" y2="1324.91" gradientTransform="matrix(1.67, 0, 0, -1.67, 967.45, 2355.54)" xlink:href="#Sfumatura_senza_nome_112"/><clipPath id="clip-path-77" transform="translate(104.63 53.03)"><path class="cls-1" d="M120.35,113.37l.38.06a7.5,7.5,0,0,0,.51-2.82l-.38-.06c-.17.94-.33,1.88-.51,2.82"/></clipPath><linearGradient id="Sfumatura_senza_nome_112-77" x1="-546.4" y1="1324.89" x2="-545.4" y2="1324.89" gradientTransform="matrix(2.77, 0, 0, -2.77, 1633.73, 3783.92)" xlink:href="#Sfumatura_senza_nome_112"/><clipPath id="clip-path-78" transform="translate(104.63 53.03)"><path class="cls-1" d="M107.27,81.25c.6-.58.61-.73.11-2-.7,1-.72,1.41-.11,2"/></clipPath><linearGradient id="Sfumatura_senza_nome_112-78" x1="-546.4" y1="1324.94" x2="-545.4" y2="1324.94" gradientTransform="matrix(1.68, 0, 0, -1.68, 1021.82, 2299.94)" xlink:href="#Sfumatura_senza_nome_112"/><clipPath id="clip-path-79" transform="translate(104.63 53.03)"><path class="cls-1" d="M59.53,100.64l.91,2.86.4-.13c-.31-1-.63-1.89-1-2.85l-.36.12"/></clipPath><linearGradient id="Sfumatura_senza_nome_112-79" x1="-546.4" y1="1324.89" x2="-545.4" y2="1324.89" gradientTransform="matrix(2.12, 0, 0, -2.12, 1217.03, 2909.64)" xlink:href="#Sfumatura_senza_nome_112"/><clipPath id="clip-path-80" transform="translate(104.63 53.03)"><path class="cls-1" d="M76.31,42c.06.92.12,1.83.19,2.75l.55,0c-.16-.92-.31-1.83-.47-2.74l-.27,0"/></clipPath><linearGradient id="Sfumatura_senza_nome_112-80" x1="-546.4" y1="1324.9" x2="-545.4" y2="1324.9" gradientTransform="matrix(2.33, 0, 0, -2.33, 1345.92, 3124.01)" xlink:href="#Sfumatura_senza_nome_112"/><clipPath id="clip-path-81" transform="translate(104.63 53.03)"><path class="cls-1" d="M35,125.25l1.17,2.61.39-.18-1.23-2.58-.33.15"/></clipPath><linearGradient id="Sfumatura_senza_nome_112-81" x1="-546.4" y1="1324.89" x2="-545.4" y2="1324.89" gradientTransform="matrix(1.78, 0, 0, -1.78, 1005.2, 2479.32)" xlink:href="#Sfumatura_senza_nome_112"/><clipPath id="clip-path-82" transform="translate(104.63 53.03)"><path class="cls-1" d="M63.89,55.72,64.28,58l.38-.07a2.27,2.27,0,0,0-.5-2.3l-.27,0"/></clipPath><linearGradient id="Sfumatura_senza_nome_112-82" x1="-546.4" y1="1324.84" x2="-545.4" y2="1324.84" gradientTransform="matrix(1.87, 0, 0, -1.87, 1086.82, 2538.32)" xlink:href="#Sfumatura_senza_nome_112"/><clipPath id="clip-path-83" transform="translate(104.63 53.03)"><path class="cls-1" d="M90,100.41c.18,0,.49-.06.53-.17.2-.59.19-1.15-.89-1.34l.36,1.51"/></clipPath><linearGradient id="Sfumatura_senza_nome_112-83" x1="-546.4" y1="1324.79" x2="-545.4" y2="1324.79" gradientTransform="matrix(1.23, 0, 0, -1.23, 760.21, 1726.05)" xlink:href="#Sfumatura_senza_nome_112"/><clipPath id="clip-path-84" transform="translate(104.63 53.03)"><path class="cls-1" d="M59.19,150.83c.44,1.12.89,2.23,1.34,3.34l.3-.13c-.46-1.11-.91-2.21-1.36-3.32l-.28.11"/></clipPath><linearGradient id="Sfumatura_senza_nome_112-84" x1="-546.4" y1="1324.89" x2="-545.4" y2="1324.89" gradientTransform="matrix(2.22, 0, 0, -2.22, 1274.42, 3099.81)" xlink:href="#Sfumatura_senza_nome_112"/><clipPath id="clip-path-85" transform="translate(104.63 53.03)"><path class="cls-1" d="M60.82,187.08l1,3.41.33-.1c-.33-1.13-.66-2.27-1-3.41l-.32.1"/></clipPath><linearGradient id="Sfumatura_senza_nome_112-85" x1="-546.4" y1="1324.9" x2="-545.4" y2="1324.9" gradientTransform="matrix(2.49, 0, 0, -2.49, 1421.14, 3488.69)" xlink:href="#Sfumatura_senza_nome_112"/><clipPath id="clip-path-86" transform="translate(104.63 53.03)"><path class="cls-1" d="M50.75,154.48a.69.69,0,0,0-.21.54c.19.67.44,1.32.66,2l.29-.07c-.11-.36-.26-.71-.34-1.08a3.22,3.22,0,0,1,0-.76c0-.18.07-.36.1-.54-.13,0-.31-.09-.41-.09s-.06,0-.08,0"/></clipPath><linearGradient id="Sfumatura_senza_nome_112-86" x1="-546.4" y1="1324.94" x2="-545.4" y2="1324.94" gradientTransform="matrix(2.03, 0, 0, -2.03, 1158.56, 2843.79)" xlink:href="#Sfumatura_senza_nome_112"/><clipPath id="clip-path-87" transform="translate(104.63 53.03)"><path class="cls-1" d="M128.33,154.62l.32.14c.42-.94.83-1.88,1.24-2.82l-.34-.15c-.4.94-.81,1.89-1.22,2.83"/></clipPath><linearGradient id="Sfumatura_senza_nome_112-87" x1="-546.4" y1="1324.89" x2="-545.4" y2="1324.89" gradientTransform="matrix(3.09, 0, 0, -3.09, 1818.49, 4253.46)" xlink:href="#Sfumatura_senza_nome_112"/><clipPath id="clip-path-88" transform="translate(104.63 53.03)"><path class="cls-1" d="M82.43,83.71c0,.72.07,1.44.11,2.16l.48,0c0-.71-.11-1.43-.17-2.15l-.42,0"/></clipPath><linearGradient id="Sfumatura_senza_nome_112-88" x1="-546.4" y1="1324.9" x2="-545.4" y2="1324.9" gradientTransform="matrix(1.97, 0, 0, -1.97, 1155.56, 2688.64)" xlink:href="#Sfumatura_senza_nome_112"/><clipPath id="clip-path-89" transform="translate(104.63 53.03)"><path class="cls-1" d="M87.06,102.89c-.15-1-.27-1.77-.42-2.73-.63.75-.47,1.62.42,2.73"/></clipPath><linearGradient id="Sfumatura_senza_nome_112-89" x1="-546.4" y1="1325.02" x2="-545.4" y2="1325.02" gradientTransform="matrix(1.99, 0, 0, -1.99, 1171.56, 2734.76)" xlink:href="#Sfumatura_senza_nome_112"/><clipPath id="clip-path-90" transform="translate(104.63 53.03)"><path class="cls-1" d="M89.52,16.05l.26,0V14c-.8.93-.8,1.29-.26,2"/></clipPath><linearGradient id="Sfumatura_senza_nome_112-90" x1="-546.4" y1="1325.07" x2="-545.4" y2="1325.07" gradientTransform="matrix(1.8, 0, 0, -1.8, 1073.4, 2403.13)" xlink:href="#Sfumatura_senza_nome_112"/><clipPath id="clip-path-91" transform="translate(104.63 53.03)"><path class="cls-1" d="M25.78,100.25l.93,2,.42-.2-1-2-.36.17"/></clipPath><linearGradient id="Sfumatura_senza_nome_112-91" x1="-546.4" y1="1324.89" x2="-545.4" y2="1324.89" gradientTransform="matrix(1.46, 0, 0, -1.46, 822.62, 2033.52)" xlink:href="#Sfumatura_senza_nome_112"/><clipPath id="clip-path-92" transform="translate(104.63 53.03)"><path class="cls-1" d="M69.24,125.52l.81,2.5.13-.05-.6-2.55-.34.1"/></clipPath><linearGradient id="Sfumatura_senza_nome_112-92" x1="-546.4" y1="1324.9" x2="-545.4" y2="1324.9" gradientTransform="matrix(1.86, 0, 0, -1.86, 1085.62, 2592.14)" xlink:href="#Sfumatura_senza_nome_112"/><clipPath id="clip-path-93" transform="translate(104.63 53.03)"><path class="cls-1" d="M89.13,105.76l.12,2.49a3,3,0,0,1,.42,0c0-.83-.09-1.66-.13-2.49l-.41,0"/></clipPath><linearGradient id="Sfumatura_senza_nome_112-93" x1="-546.4" y1="1324.89" x2="-545.4" y2="1324.89" gradientTransform="matrix(2.22, 0, 0, -2.22, 1301.91, 3049.85)" xlink:href="#Sfumatura_senza_nome_112"/><clipPath id="clip-path-94" transform="translate(104.63 53.03)"><path class="cls-1" d="M27.1,212.67l-1.22-2c-.18,1.25.13,1.77,1.22,2"/></clipPath><linearGradient id="Sfumatura_senza_nome_112-94" x1="-546.4" y1="1324.96" x2="-545.4" y2="1324.96" gradientTransform="matrix(1.16, 0, 0, -1.16, 657.72, 1744.13)" xlink:href="#Sfumatura_senza_nome_112"/><clipPath id="clip-path-95" transform="translate(104.63 53.03)"><path class="cls-1" d="M121.06,67.82l.48.1c.13-.71.28-1.41.41-2.12l-.45-.14c-.15.72-.29,1.44-.44,2.16"/></clipPath><linearGradient id="Sfumatura_senza_nome_112-95" x1="-546.4" y1="1324.9" x2="-545.4" y2="1324.9" gradientTransform="matrix(2.16, 0, 0, -2.16, 1302.84, 2933.95)" xlink:href="#Sfumatura_senza_nome_112"/><clipPath id="clip-path-96" transform="translate(104.63 53.03)"><path class="cls-1" d="M122.48,198.81l.25.18,2-2.64-.25-.18c-.65.88-1.29,1.76-2,2.64"/></clipPath><linearGradient id="Sfumatura_senza_nome_112-96" x1="-546.4" y1="1324.9" x2="-545.4" y2="1324.9" gradientTransform="matrix(3.28, 0, 0, -3.28, 1916.4, 4548.97)" xlink:href="#Sfumatura_senza_nome_112"/><clipPath id="clip-path-97" transform="translate(104.63 53.03)"><path class="cls-1" d="M44.13,68.92a5.52,5.52,0,0,0,.09,1.15c0,.16.33.27.51.39.1-.2.32-.45.27-.6a7.76,7.76,0,0,0-.57-1.06l-.3.12"/></clipPath><linearGradient id="Sfumatura_senza_nome_112-97" x1="-546.4" y1="1324.82" x2="-545.4" y2="1324.82" gradientTransform="matrix(1.22, 0, 0, -1.22, 710.99, 1687.01)" xlink:href="#Sfumatura_senza_nome_112"/><clipPath id="clip-path-98" transform="translate(104.63 53.03)"><path class="cls-1" d="M46.72,135.83l.58,1.87.22-.08c-.16-.64-.31-1.28-.46-1.91l-.34.12"/></clipPath><linearGradient id="Sfumatura_senza_nome_112-98" x1="-546.4" y1="1324.9" x2="-545.4" y2="1324.9" gradientTransform="matrix(1.5, 0, 0, -1.5, 863.36, 2117.58)" xlink:href="#Sfumatura_senza_nome_112"/><clipPath id="clip-path-99" transform="translate(104.63 53.03)"><path class="cls-1" d="M29.71,30l.54,1.7.34-.09A1.35,1.35,0,0,0,30,29.9l-.26.1"/></clipPath><linearGradient id="Sfumatura_senza_nome_112-99" x1="-546.4" y1="1324.8" x2="-545.4" y2="1324.8" gradientTransform="matrix(1.31, 0, 0, -1.31, 743.21, 1761.19)" xlink:href="#Sfumatura_senza_nome_112"/><clipPath id="clip-path-100" transform="translate(104.63 53.03)"><path class="cls-1" d="M100.88,260.42c0,.09.3.23.46.35.18-.28.37-.55.64-.95l-.75-.36a6.91,6.91,0,0,0-.35,1"/></clipPath><linearGradient id="Sfumatura_senza_nome_112-100" x1="-546.4" y1="1324.8" x2="-545.4" y2="1324.8" gradientTransform="matrix(1.16, 0, 0, -1.16, 736.88, 1802.25)" xlink:href="#Sfumatura_senza_nome_112"/><clipPath id="clip-path-101" transform="translate(104.63 53.03)"><path class="cls-1" d="M51.91,92.87c.19.68.39,1.35.59,2l.43-.13-.61-2-.41.12"/></clipPath><linearGradient id="Sfumatura_senza_nome_112-101" x1="-546.4" y1="1324.9" x2="-545.4" y2="1324.9" gradientTransform="matrix(1.66, 0, 0, -1.66, 956.02, 2286.89)" xlink:href="#Sfumatura_senza_nome_112"/><clipPath id="clip-path-102" transform="translate(104.63 53.03)"><path class="cls-1" d="M84.62,107.27c.07.81.13,1.63.2,2.45l.36,0L85,107.24l-.35,0"/></clipPath><linearGradient id="Sfumatura_senza_nome_112-102" x1="-546.4" y1="1324.9" x2="-545.4" y2="1324.9" gradientTransform="matrix(2.11, 0, 0, -2.11, 1239.08, 2909.65)" xlink:href="#Sfumatura_senza_nome_112"/><clipPath id="clip-path-103" transform="translate(104.63 53.03)"><path class="cls-1" d="M57.21,112.5l.88,2.13.28-.12-.81-2.15-.35.14"/></clipPath><linearGradient id="Sfumatura_senza_nome_112-103" x1="-546.4" y1="1324.9" x2="-545.4" y2="1324.9" gradientTransform="matrix(1.55, 0, 0, -1.55, 906.57, 2173.28)" xlink:href="#Sfumatura_senza_nome_112"/><clipPath id="clip-path-104" transform="translate(104.63 53.03)"><path class="cls-1" d="M88.61,109.35c0,.84.07,1.69.11,2.53l.35,0c-.06-.84-.12-1.68-.19-2.52l-.27,0"/></clipPath><linearGradient id="Sfumatura_senza_nome_112-104" x1="-546.4" y1="1324.89" x2="-545.4" y2="1324.89" gradientTransform="matrix(2.19, 0, 0, -2.19, 1283.49, 3010.11)" xlink:href="#Sfumatura_senza_nome_112"/><clipPath id="clip-path-105" transform="translate(104.63 53.03)"><path class="cls-1" d="M40.07,173.85c.28.67.56,1.34.85,2l.39-.14c-.3-.68-.6-1.35-.89-2l-.35.15"/></clipPath><linearGradient id="Sfumatura_senza_nome_112-105" x1="-546.4" y1="1324.9" x2="-545.4" y2="1324.9" gradientTransform="matrix(1.49, 0, 0, -1.49, 854.72, 2150.48)" xlink:href="#Sfumatura_senza_nome_112"/><clipPath id="clip-path-106" transform="translate(104.63 53.03)"><path class="cls-1" d="M119.7,116.3c.11,0,.21,0,.32.06.16-.83.33-1.67.49-2.51-.11,0-.23,0-.35-.06-.15.83-.31,1.67-.46,2.51"/></clipPath><linearGradient id="Sfumatura_senza_nome_112-106" x1="-546.4" y1="1324.89" x2="-545.4" y2="1324.89" gradientTransform="matrix(2.48, 0, 0, -2.48, 1471.2, 3394.33)" xlink:href="#Sfumatura_senza_nome_112"/><clipPath id="clip-path-107" transform="translate(104.63 53.03)"><path class="cls-1" d="M119.29,114.35l.31.08c.21-.9.41-1.81.62-2.72l-.31-.07c-.21.91-.41,1.81-.62,2.71"/></clipPath><linearGradient id="Sfumatura_senza_nome_112-107" x1="-546.4" y1="1324.9" x2="-545.4" y2="1324.9" gradientTransform="matrix(2.69, 0, 0, -2.69, 1590.89, 3683.38)" xlink:href="#Sfumatura_senza_nome_112"/><clipPath id="clip-path-108" transform="translate(104.63 53.03)"><path class="cls-1" d="M112.94,71.63l.38,0c.05-.76.11-1.53.16-2.3l-.3,0-.24,2.3"/></clipPath><linearGradient id="Sfumatura_senza_nome_112-108" x1="-546.4" y1="1324.91" x2="-545.4" y2="1324.91" gradientTransform="matrix(2.17, 0, 0, -2.17, 1299.07, 2948.69)" xlink:href="#Sfumatura_senza_nome_112"/><clipPath id="clip-path-109" transform="translate(104.63 53.03)"><path class="cls-1" d="M36.36,21.75,37,24l.23-.07-.54-2.27-.35.11"/></clipPath><linearGradient id="Sfumatura_senza_nome_112-109" x1="-546.4" y1="1324.9" x2="-545.4" y2="1324.9" gradientTransform="matrix(1.74, 0, 0, -1.74, 988.11, 2331.7)" xlink:href="#Sfumatura_senza_nome_112"/><clipPath id="clip-path-110" transform="translate(104.63 53.03)"><path class="cls-1" d="M137.05,119.17l.28.11,1-2.36-.31-.15c-.31.8-.61,1.6-.93,2.4"/></clipPath><linearGradient id="Sfumatura_senza_nome_112-110" x1="-546.4" y1="1324.89" x2="-545.4" y2="1324.89" gradientTransform="matrix(2.56, 0, 0, -2.56, 1534.66, 3508.53)" xlink:href="#Sfumatura_senza_nome_112"/><clipPath id="clip-path-111" transform="translate(104.63 53.03)"><path class="cls-1" d="M125.12,125.23a9.28,9.28,0,0,1-.64,3c-.23.77-.45,1.56-.68,2.33,1.84-2.57,1.8-5.69,2.92-8.47l-.45-.16c-.41,1.1-1.16,2.2-1.15,3.3"/></clipPath><linearGradient id="Sfumatura_senza_nome_112-111" x1="-546.4" y1="1324.87" x2="-545.4" y2="1324.87" gradientTransform="matrix(8.62, 0, 0, -8.62, 4829, 11542.3)" xlink:href="#Sfumatura_senza_nome_112"/></defs><title>Risorsa 14</title><g id="Livello_2" data-name="Livello 2"><g id="Logo"><g id="Logo_-_Hyperink" data-name="Logo - Hyperink"><rect class="cls-2" x="152.4" y="281.95" width="10.32" height="10.32"/><polyline class="cls-3" points="172.17 333.84 156.15 333.84 156.15 312.29 177.71 312.29 177.71 328.99"/><polyline class="cls-4" points="200.66 377.7 200.66 359.7 259.1 359.7 259.1 418.14 200.66 418.14 200.66 402.12"/><rect class="cls-2" x="264.19" y="167.04" width="5.52" height="5.52"/><rect class="cls-5" x="193.88" y="354.02" width="4.04" height="4.03"/><rect class="cls-5" x="261.17" y="304.55" width="4.03" height="4.04"/><rect class="cls-2" x="104.63" y="298.54" width="5.16" height="5.16"/><rect class="cls-5" x="129.16" y="236.86" width="5.16" height="5.16"/><rect class="cls-2" x="269.13" y="347.91" width="2.58" height="2.58"/><g id="Testo"><path d="M34.5,339c0-.49,0-.83,0-1.29H30.74c0,.46,0,.8,0,1.29v3.71a7.74,7.74,0,0,1-1.4.11,8.24,8.24,0,0,1-1.4-.11v-12a9.41,9.41,0,0,1,1.4-.11,8.76,8.76,0,0,1,1.4.11v3.34c0,.49,0,.83,0,1.3h3.78c0-.47,0-.81,0-1.3v-3.34a9,9,0,0,1,1.4-.11,9.15,9.15,0,0,1,1.41.11v12a7.63,7.63,0,0,1-1.37.11,8.38,8.38,0,0,1-1.44-.11Z" transform="translate(104.63 53.03)"/><path d="M51.16,330.74a5.54,5.54,0,0,1,1.13-.11,4.19,4.19,0,0,1,1.37.22l.12.13-3.4,8v3.68a7.66,7.66,0,0,1-1.38.11,8.46,8.46,0,0,1-1.42-.11V339l-3.38-7.88a3.52,3.52,0,0,1,1.7-.47c.79,0,1.16.33,1.47,1.12l.84,2.09a17.6,17.6,0,0,1,.79,2.5h.11A23.48,23.48,0,0,1,50,333.7Z" transform="translate(104.63 53.03)"/><path d="M64.85,339H63.46v3.74a7.7,7.7,0,0,1-1.39.11,8.27,8.27,0,0,1-1.41-.11V330.83l.12-.12c1.51,0,2.74-.08,4.07-.08,2.48,0,4.29,1.34,4.29,4.17S67.33,339,64.85,339m-1.39-2.11,1.16,0c1.39,0,1.67-1.18,1.67-2s-.28-2-1.67-2c-.36,0-.69,0-1.16,0Z" transform="translate(104.63 53.03)"/><path d="M84.62,341.41a1.59,1.59,0,0,1-1.79,1.35H78.18a1.52,1.52,0,0,1-1.62-1.64V330.86l.13-.12h7.54a5.16,5.16,0,0,1,.11,1.1,3.69,3.69,0,0,1-.25,1.25H79.31c0,.47,0,.8,0,1.26v1.22H83.2a4.11,4.11,0,0,1,0,2.27H79.33v1.33c0,.46,0,.79,0,1.27h0c.4,0,.81,0,1.3,0h4.06a7.55,7.55,0,0,1,0,1" transform="translate(104.63 53.03)"/><path d="M98.66,337.64a2.43,2.43,0,0,1,1.35,1.61l.52,1.49a2.77,2.77,0,0,0,.88,1.3,2.44,2.44,0,0,1-1.85.82c-1,0-1.35-.54-1.73-1.61l-.63-1.84a1.39,1.39,0,0,0-1.48-1.09H95v4.38a8.84,8.84,0,0,1-2.78,0V330.83l.12-.12c1.5,0,2.87-.08,4.2-.08,2.44,0,4.25,1.16,4.25,3.81a3.41,3.41,0,0,1-2.13,3.2M95,336.17l1.3,0c1.33,0,1.64-.81,1.64-1.7s-.31-1.69-1.64-1.69H95Z" transform="translate(104.63 53.03)"/><path d="M109.06,330.74a4,4,0,0,1,.65-.05,4.61,4.61,0,0,1,.68.05v12a4.53,4.53,0,0,1-.68.06,3.9,3.9,0,0,1-.65-.06Z" transform="translate(104.63 53.03)"/><path d="M127.83,330.78V342.7c-.23,0-.67.06-.82.06s-.62,0-.84-.06l-4.26-7.93c-.45-.86-.82-1.63-1.19-2.42h0c0,1.09.11,2.56.11,3.78v6.57a5.5,5.5,0,0,1-.63.06,4.79,4.79,0,0,1-.62-.06v-12c.21,0,.65-.05.79-.05s.61,0,.84.05l4.25,7.94c.46.85.85,1.71,1.23,2.47h.06c-.08-1.29-.13-2.79-.13-4v-5.59c0-.59.13-.87.7-.87h.46Z" transform="translate(104.63 53.03)"/><path d="M144.05,342.79c-.58,0-.75-.3-1-.88L142,339.06c-.55-1.44-1.17-1.93-2.33-1.93-.2,0-.68,0-1.41,0v5.53a4.32,4.32,0,0,1-.69.06,3.87,3.87,0,0,1-.64-.06v-12a4,4,0,0,1,.64-.05,4.44,4.44,0,0,1,.69.05V336l1.27,0c.3,0,.42-.14.6-.42l2.58-4.17c.26-.42.41-.64.94-.64l.72,0,.1.14-2.94,4.76a2.67,2.67,0,0,1-.54.65c1.17.18,1.68.9,2.24,2.24l1.07,2.74a2.45,2.45,0,0,0,.71,1.06,1.18,1.18,0,0,1-.92.46" transform="translate(104.63 53.03)"/></g><g class="cls-6"><rect class="cls-7" x="-61.5" y="12.98" width="296.27" height="259.53" transform="translate(24.64 184.86) rotate(-55)"/></g><g class="cls-8"><rect class="cls-9" x="109.85" y="70.54" width="38.16" height="31.23" transform="translate(89.04 195.38) rotate(-55)"/></g><g class="cls-10"><rect class="cls-11" x="60.22" y="9.13" width="32.66" height="25.18" transform="translate(119.48 125) rotate(-55)"/></g><g class="cls-12"><rect class="cls-13" x="14.02" y="78.92" width="29.92" height="26.02" transform="translate(41.68 115.97) rotate(-55)"/></g><g class="cls-14"><rect class="cls-15" x="115.14" y="203.46" width="11.89" height="10.1" transform="translate(-14.54 241.13) rotate(-55)"/></g><g class="cls-16"><rect class="cls-17" x="136.35" y="126.07" width="18.68" height="17.46" transform="translate(56.33 229.85) rotate(-55)"/></g><g class="cls-18"><rect class="cls-19" x="112.79" y="156.92" width="30.24" height="27.46" transform="translate(19.39 230.57) rotate(-55)"/></g><g class="cls-20"><rect class="cls-21" x="100.22" y="269.02" width="8.69" height="8.23" transform="translate(-74.52 255.15) rotate(-55)"/></g><g class="cls-22"><rect class="cls-23" x="46.19" y="151.49" width="17.83" height="15.74" transform="translate(-2.41 166.12) rotate(-55)"/></g><g class="cls-24"><rect class="cls-25" x="28.67" y="51.67" width="10.43" height="8.92" transform="translate(73.1 104.72) rotate(-55)"/></g><g class="cls-26"><rect class="cls-27" x="38.09" y="5.79" width="17.15" height="13.67" transform="translate(114.19 96.64) rotate(-55)"/></g><g class="cls-28"><rect class="cls-29" x="64.6" y="246.27" width="6.46" height="5.69" transform="translate(-70.51 214.81) rotate(-55)"/></g><g class="cls-30"><rect class="cls-31" x="84.71" y="89.4" width="9.42" height="7.29" transform="translate(66.55 165.95) rotate(-55)"/></g><g class="cls-32"><rect class="cls-33" x="107.92" y="117.11" width="11.46" height="9.02" transform="translate(53.47 197.98) rotate(-55)"/></g><g class="cls-34"><rect class="cls-35" x="58.27" y="121.15" width="13.09" height="11.07" transform="translate(28.5 160.14) rotate(-55)"/></g><g class="cls-36"><rect class="cls-37" x="129.93" y="159.37" width="11.88" height="10.9" transform="translate(27.55 234.61) rotate(-55)"/></g><g class="cls-38"><rect class="cls-39" x="50.53" y="30.99" width="13.96" height="11.32" transform="translate(99.14 115.77) rotate(-55)"/></g><g class="cls-40"><rect class="cls-41" x="55.79" y="-0.86" width="4.6" height="4.76" transform="translate(128.16 101.26) rotate(-55)"/></g><g class="cls-42"><rect class="cls-43" x="45.04" y="202.23" width="4.82" height="5.25" transform="translate(-42.94 179.25) rotate(-55)"/></g><g class="cls-44"><rect class="cls-45" x="70.5" y="278.54" width="5.01" height="4.6" transform="translate(-94.29 232.58) rotate(-55)"/></g><g class="cls-46"><rect class="cls-47" x="136.67" y="127.14" width="11.41" height="10.17" transform="translate(57.03 226.03) rotate(-55)"/></g><g class="cls-48"><rect class="cls-49" x="98.87" y="269.77" width="4.96" height="4.77" transform="translate(-75.09 252.1) rotate(-55)"/></g><g class="cls-50"><rect class="cls-51" x="37.28" y="31.91" width="6.05" height="5.37" transform="translate(93.48 100.79) rotate(-55)"/></g><g class="cls-52"><rect class="cls-53" x="71.99" y="219.6" width="6.27" height="5.07" transform="translate(-45.3 209.29) rotate(-55)"/></g><g class="cls-54"><rect class="cls-55" x="109.49" y="88.2" width="10.31" height="8.11" transform="matrix(0.57, -0.82, 0.82, 0.57, 77.95, 186.28)"/></g><g class="cls-56"><rect class="cls-57" x="73.27" y="218.64" width="5.6" height="4.83" transform="translate(-44 209.6) rotate(-55)"/></g><g class="cls-58"><rect class="cls-59" x="127.03" y="146.93" width="9.15" height="8.19" transform="translate(37.04 225.23) rotate(-55)"/></g><g class="cls-60"><rect class="cls-61" x="49.58" y="148.34" width="12.03" height="9.92" transform="translate(2.76 163.94) rotate(-55)"/></g><g class="cls-62"><rect class="cls-63" x="50.78" y="168.76" width="11.75" height="9.86" transform="translate(-13.49 173.5) rotate(-55)"/></g><g class="cls-64"><rect class="cls-65" x="144.83" y="145.24" width="7.55" height="7.09" transform="translate(46.12 238.2) rotate(-55)"/></g><g class="cls-66"><rect class="cls-67" x="16.64" y="28.8" width="5.77" height="5.05" transform="translate(87.3 82.38) rotate(-55)"/></g><g class="cls-68"><rect class="cls-69" x="75.25" y="214.44" width="5.38" height="4.34" transform="matrix(0.57, -0.82, 0.82, 0.57, -39.56, 209.24)"/></g><g class="cls-70"><rect class="cls-71" x="68.75" y="129.99" width="5.28" height="4.38" transform="translate(26.8 167.87) rotate(-55)"/></g><g class="cls-72"><rect class="cls-73" x="65.57" y="194.73" width="6.25" height="5.35" transform="matrix(0.57, -0.82, 0.82, 0.57, -27.78, 193.47)"/></g><g class="cls-74"><rect class="cls-75" x="12.09" y="74.08" width="7.02" height="6.37" transform="translate(47.99 98.75) rotate(-55)"/></g><g class="cls-76"><rect class="cls-77" x="104.31" y="99.78" width="4.78" height="3.67" transform="translate(66.89 183.76) rotate(-55)"/></g><g class="cls-78"><rect class="cls-79" x="69.93" y="8.53" width="3.97" height="3.46" transform="translate(126.9 116.31) rotate(-55)"/></g><g class="cls-80"><rect class="cls-81" x="58.09" y="207.76" width="3.39" height="3.04" transform="translate(-41.31 191.24) rotate(-55)"/></g><g class="cls-82"><rect class="cls-83" x="134.37" y="130.5" width="5.53" height="4.88" transform="translate(54.21 222.05) rotate(-55)"/></g><g class="cls-84"><rect class="cls-85" x="66.99" y="187.49" width="5.21" height="4.68" transform="translate(-21.19 190.99) rotate(-55)"/></g><g class="cls-86"><rect class="cls-87" x="58.5" y="158.54" width="7.75" height="6.86" transform="translate(-1.45 173.19) rotate(-55)"/></g><g class="cls-88"><rect class="cls-89" x="127.72" y="198.95" width="3.71" height="3.21" transform="translate(-4.4 244.69) rotate(-55)"/></g><g class="cls-90"><rect class="cls-91" x="112.33" y="106.48" width="6.95" height="5.57" transform="translate(64.5 194.48) rotate(-55)"/></g><g class="cls-92"><rect class="cls-93" x="62.07" y="94.08" width="3.94" height="3.36" transform="translate(53.5 146.32) rotate(-55)"/></g><g class="cls-94"><rect class="cls-95" x="170.54" y="271.34" width="2.6" height="2.66" transform="translate(-45.44 310.06) rotate(-55)"/></g><g class="cls-96"><rect class="cls-97" x="115.38" y="116.51" width="6.04" height="4.96" transform="translate(57.65 200.76) rotate(-55)"/></g><g class="cls-98"><rect class="cls-99" x="108.49" y="227.15" width="3.1" height="2.83" transform="translate(-35.67 240.63) rotate(-55)"/></g><g class="cls-100"><rect class="cls-101" x="120.96" y="165.57" width="4.9" height="4.56" transform="translate(19.77 225.69) rotate(-55)"/></g><g class="cls-102"><rect class="cls-103" x="1.81" y="67.39" width="3.38" height="3.13" transform="translate(49.64 85.3) rotate(-55)"/></g><g class="cls-104"><rect class="cls-105" x="119.04" y="239.21" width="4.74" height="5.04" transform="translate(-41.6 255.56) rotate(-55)"/></g><g class="cls-106"><rect class="cls-107" x="82.1" y="112.65" width="4.69" height="3.69" transform="translate(46.85 171.02) rotate(-55)"/></g><g class="cls-108"><rect class="cls-109" x="81.54" y="282.07" width="2.72" height="2.57" transform="translate(-92.13 241.77) rotate(-55)"/></g><g class="cls-110"><rect class="cls-111" x="21.93" y="55.58" width="3.3" height="3.01" transform="translate(67.93 96.69) rotate(-55)"/></g><g class="cls-112"><rect class="cls-113" x="93.47" y="81.01" width="4.42" height="3.3" transform="translate(77.72 166.65) rotate(-55)"/></g><g class="cls-114"><rect class="cls-115" x="49.68" y="110.95" width="5.29" height="4.53" transform="translate(34.2 144.17) rotate(-55)"/></g><g class="cls-116"><rect class="cls-117" x="102.16" y="246.29" width="2.58" height="2.25" transform="matrix(0.57, -0.82, 0.82, 0.57, -53.93, 243.27)"/></g><g class="cls-118"><rect class="cls-119" x="60.1" y="10.96" width="2.94" height="2.64" transform="translate(120.82 108.7) rotate(-55)"/></g><g class="cls-120"><rect class="cls-121" x="113.02" y="80.03" width="3.12" height="2.6" transform="translate(86.87 181.56) rotate(-55)"/></g><g class="cls-122"><rect class="cls-123" x="60.12" y="155.63" width="3.99" height="3.55" transform="matrix(0.57, -0.82, 0.82, 0.57, 2.18, 171.03)"/></g><g class="cls-124"><rect class="cls-125" x="26.21" y="40.87" width="5.66" height="4.88" transform="translate(81.54 95.28) rotate(-55)"/></g><g class="cls-126"><rect class="cls-127" x="64.22" y="185" width="3.12" height="3.01" transform="translate(-20.09 186.44) rotate(-55)"/></g><g class="cls-128"><rect class="cls-129" x="84.77" y="73.57" width="3.37" height="2.86" transform="translate(80.06 155.83) rotate(-55)"/></g><g class="cls-130"><rect class="cls-131" x="133.64" y="165.75" width="4.68" height="4.53" transform="translate(24.99 236.06) rotate(-55)"/></g><g class="cls-132"><rect class="cls-133" x="16.27" y="130.53" width="3.79" height="3.63" transform="translate(3.96 124.34) rotate(-55)"/></g><g class="cls-134"><rect class="cls-135" x="87.81" y="87.14" width="4.02" height="3.04" transform="translate(70.31 164.41) rotate(-55)"/></g><g class="cls-136"><rect class="cls-137" x="75.63" y="72.15" width="4.15" height="3.27" transform="translate(77.32 148.14) rotate(-55)"/></g><g class="cls-138"><rect class="cls-139" x="56.88" y="108.94" width="4.98" height="4.29" transform="translate(38.95 149.03) rotate(-55)"/></g><g class="cls-140"><rect class="cls-141" x="121.73" y="83.75" width="3.11" height="2.6" transform="translate(87.54 190.28) rotate(-55)"/></g><g class="cls-142"><rect class="cls-143" x="140.79" y="150.76" width="3.53" height="3.32" transform="translate(40.57 234.79) rotate(-55)"/></g><g class="cls-144"><rect class="cls-145" x="138.9" y="148.61" width="3.88" height="3.6" transform="translate(41.48 232.54) rotate(-55)"/></g><g class="cls-146"><rect class="cls-147" x="51.49" y="130.74" width="3.38" height="2.94" transform="translate(19.01 152.97) rotate(-55)"/></g><g class="cls-148"><rect class="cls-149" x="83.22" y="119.37" width="3.56" height="2.69" transform="translate(41.99 174.13) rotate(-55)"/></g><g class="cls-150"><rect class="cls-151" x="127.41" y="72.04" width="2.76" height="2.36" transform="translate(99.57 189.75) rotate(-55)"/></g><g class="cls-152"><rect class="cls-153" x="127.95" y="192.34" width="4.37" height="4.38" transform="translate(0.78 242.58) rotate(-55)"/></g><g class="cls-154"><rect class="cls-155" x="66.98" y="190.87" width="3.89" height="3.84" transform="translate(-23.9 191.69) rotate(-55)"/></g><g class="cls-156"><rect class="cls-157" x="56.56" y="147.28" width="3.37" height="3.14" transform="translate(7.54 164.22) rotate(-55)"/></g><g class="cls-158"><rect class="cls-159" x="119.36" y="110.8" width="2.87" height="2.38" transform="translate(64.4 199.73) rotate(-55)"/></g><g class="cls-160"><rect class="cls-161" x="106.11" y="79.2" width="2.32" height="2.14" transform="translate(84.62 175.13) rotate(-55)"/></g><g class="cls-162"><rect class="cls-163" x="58.59" y="100.62" width="3.19" height="2.78" transform="translate(46.73 145.82) rotate(-55)"/></g><g class="cls-164"><rect class="cls-165" x="75.32" y="42.27" width="2.7" height="2.2" transform="translate(101.8 134.33) rotate(-55)"/></g><g class="cls-166"><rect class="cls-167" x="34.19" y="125.05" width="3.16" height="2.86" transform="translate(16.28 136.26) rotate(-55)"/></g><g class="cls-168"><rect class="cls-169" x="63.14" y="55.75" width="2.53" height="2.2" transform="translate(85.52 130.03) rotate(-55)"/></g><g class="cls-170"><rect class="cls-171" x="89.22" y="98.78" width="1.86" height="1.76" transform="translate(61.44 169.37) rotate(-55)"/></g><g class="cls-172"><rect class="cls-173" x="58.12" y="150.78" width="3.77" height="3.32" transform="translate(5.35 167.19) rotate(-55)"/></g><g class="cls-174"><rect class="cls-175" x="59.66" y="187.19" width="3.64" height="3.1" transform="translate(-23.76 183.87) rotate(-55)"/></g><g class="cls-176"><rect class="cls-177" x="49.67" y="154.59" width="2.65" height="2.27" transform="translate(-1.19 161.21) rotate(-55)"/></g><g class="cls-178"><rect class="cls-179" x="127.45" y="151.78" width="3.33" height="2.98" transform="translate(34.13 224.15) rotate(-55)"/></g><g class="cls-180"><rect class="cls-181" x="81.67" y="83.91" width="2.13" height="1.73" transform="translate(70.47 156.94) rotate(-55)"/></g><g class="cls-182"><rect class="cls-183" x="85.12" y="100.32" width="2.83" height="2.42" transform="matrix(0.57, -0.82, 0.82, 0.57, 58.37, 167.21)"/></g><g class="cls-184"><rect class="cls-185" x="88.32" y="14.13" width="2.11" height="1.82" transform="translate(130.42 132.65) rotate(-55)"/></g><g class="cls-186"><rect class="cls-187" x="25.18" y="99.99" width="2.56" height="2.36" transform="translate(33.04 117.84) rotate(-55)"/></g><g class="cls-188"><rect class="cls-189" x="68.38" y="125.58" width="2.67" height="2.26" transform="translate(30.56 164.16) rotate(-55)"/></g><g class="cls-190"><rect class="cls-191" x="88.22" y="106.06" width="2.37" height="1.89" transform="translate(55.11 171.88) rotate(-55)"/></g><g class="cls-192"><rect class="cls-193" x="25.16" y="210.48" width="2.49" height="2.33" transform="translate(-57.48 164.91) rotate(-55)"/></g><g class="cls-194"><rect class="cls-195" x="120.32" y="65.78" width="2.36" height="2.02" transform="matrix(0.57, -0.82, 0.82, 0.57, 101.74, 181.04)"/></g><g class="cls-196"><rect class="cls-197" x="121.8" y="195.87" width="3.57" height="3.42" transform="translate(-4.52 238.52) rotate(-55)"/></g><g class="cls-198"><rect class="cls-199" x="43.63" y="68.77" width="1.9" height="1.71" transform="translate(66.61 119.24) rotate(-55)"/></g><g class="cls-200"><rect class="cls-201" x="46.08" y="135.81" width="2.09" height="1.79" transform="matrix(0.57, -0.82, 0.82, 0.57, 12.75, 149.91)"/></g><g class="cls-202"><rect class="cls-203" x="29.23" y="29.79" width="2.16" height="2.01" transform="translate(92.32 90.99) rotate(-55)"/></g><g class="cls-204"><rect class="cls-205" x="100.57" y="259.28" width="1.71" height="1.66" transform="translate(-65.19 247.02) rotate(-55)"/></g><g class="cls-206"><rect class="cls-207" x="51.25" y="92.79" width="2.35" height="2.07" transform="translate(50.13 135.97) rotate(-55)"/></g><g class="cls-208"><rect class="cls-209" x="83.72" y="107.54" width="2.35" height="1.88" transform="translate(51.97 168.83) rotate(-55)"/></g><g class="cls-210"><rect class="cls-211" x="56.53" y="112.37" width="2.52" height="2.25" transform="translate(36.31 148.76) rotate(-55)"/></g><g class="cls-212"><rect class="cls-213" x="87.66" y="109.69" width="2.36" height="1.84" transform="matrix(0.57, -0.82, 0.82, 0.57, 51.91, 172.97)"/></g><g class="cls-214"><rect class="cls-215" x="39.45" y="173.65" width="2.49" height="2.26" transform="translate(-21.19 160.89) rotate(-55)"/></g><g class="cls-216"><rect class="cls-217" x="118.82" y="114" width="2.58" height="2.15" transform="translate(61.58 200.48) rotate(-55)"/></g><g class="cls-218"><rect class="cls-219" x="118.35" y="111.86" width="2.82" height="2.36" transform="translate(63.1 199.32) rotate(-55)"/></g><g class="cls-220"><rect class="cls-221" x="112.1" y="69.61" width="2.21" height="1.77" transform="translate(95.16 175.82) rotate(-55)"/></g><g class="cls-222"><rect class="cls-223" x="35.59" y="21.77" width="2.43" height="2.07" transform="translate(101.64 92.9) rotate(-55)"/></g><g class="cls-224"><rect class="cls-225" x="136.29" y="116.8" width="2.76" height="2.45" transform="translate(66.66 216.13) rotate(-55)"/></g><g class="cls-226"><rect class="cls-227" x="120.89" y="122.57" width="8.75" height="7.35" transform="translate(54.63 209.47) rotate(-55)"/></g><g class="cls-226"><rect class="cls-227" x="120.89" y="122.57" width="8.75" height="7.35" transform="translate(54.63 209.47) rotate(-55)"/></g></g></g></g></svg>