<svg xmlns="http://www.w3.org/2000/svg" viewBox="0 0 178.94 91.85"><defs><style>.cls-1{fill:none;stroke:#4646ff;stroke-miterlimit:10;stroke-width:3.05px;}.cls-2{fill:#61ff72;}.cls-3{fill:#4646ff;}</style></defs><title>Risorsa 9</title><g id="Livello_2" data-name="Livello 2"><g id="Livello_1-2" data-name="Livello 1"><g id="Contenuto"><g id="Logo_Hyperink" data-name="Logo Hyperink"><polyline class="cls-1" points="87.57 38.32 87.57 15.16 162.73 15.16 162.73 90.33 87.57 90.33 87.57 69.72"/><rect class="cls-2" x="78.84" y="7.86" width="5.19" height="5.19"/><rect class="cls-3" x="175.62" width="3.32" height="3.32"/><g id="Testo_Logo" data-name="Testo Logo"><path d="M8.42,56.73c0-.63,0-1.06,0-1.67l-1.12,0H4.71l-1.13,0c0,.61,0,1,0,1.67V61.5a9.59,9.59,0,0,1-1.8.14A10.1,10.1,0,0,1,0,61.5V46.12A11.14,11.14,0,0,1,1.8,46a10.51,10.51,0,0,1,1.8.14v4.3c0,.63,0,1.06,0,1.66H8.44c0-.6,0-1,0-1.66v-4.3a10.81,10.81,0,0,1,1.8-.14,10.85,10.85,0,0,1,1.81.14V61.5a9.37,9.37,0,0,1-1.76.14,10.3,10.3,0,0,1-1.85-.14Z"/><path d="M29.85,46.12A6.68,6.68,0,0,1,31.31,46a5.31,5.31,0,0,1,1.75.27l.16.18L28.85,56.77V61.5a9.51,9.51,0,0,1-1.78.14,10.38,10.38,0,0,1-1.82-.14V56.68L20.9,46.54a4.59,4.59,0,0,1,2.18-.6c1,0,1.49.43,1.9,1.44l1.08,2.68a21.9,21.9,0,0,1,1,3.22h.14a30.59,30.59,0,0,1,1.12-3.35Z"/><path d="M47.46,56.68H45.68V61.5a10.66,10.66,0,0,1-1.8.14,11.25,11.25,0,0,1-1.81-.14V46.23l.16-.16c1.94,0,3.51-.09,5.23-.09C50.65,46,53,47.69,53,51.34s-2.32,5.34-5.51,5.34M45.68,54l1.49,0c1.78,0,2.13-1.51,2.13-2.59s-.35-2.59-2.13-2.59c-.48,0-.89,0-1.49,0Z"/><path d="M72.89,59.83a2,2,0,0,1-2.3,1.74h-6a1.93,1.93,0,0,1-2.07-2.1V46.28l.15-.16h9.71a6.89,6.89,0,0,1,.13,1.41,4.94,4.94,0,0,1-.31,1.61H66.06c0,.6,0,1,0,1.62v1.57c.59,0,1.22,0,1.53,0h3.45a5.22,5.22,0,0,1,0,2.93h-5V57c0,.59,0,1,0,1.63v0c.52,0,1-.05,1.66-.05H73a10.27,10.27,0,0,1-.06,1.28"/><path d="M91,55a3.14,3.14,0,0,1,1.73,2.07L93.35,59a3.58,3.58,0,0,0,1.13,1.67A3.15,3.15,0,0,1,92.1,61.7c-1.31,0-1.74-.69-2.22-2.07l-.81-2.36a1.79,1.79,0,0,0-1.91-1.4h-.92V61.5a11.51,11.51,0,0,1-3.58,0V46.23l.16-.16c1.93,0,3.69-.09,5.4-.09,3.13,0,5.47,1.49,5.47,4.89A4.4,4.4,0,0,1,91,55M86.24,53.1l1.66,0c1.72,0,2.12-1,2.12-2.19s-.4-2.16-2.12-2.16c-.45,0-1,0-1.66,0Z"/><path d="M104.32,46.12a4.12,4.12,0,0,1,.84-.07,4.58,4.58,0,0,1,.87.07V61.5a5.57,5.57,0,0,1-.87.07,5,5,0,0,1-.84-.07Z"/><path d="M128.47,46.16V61.5c-.3,0-.86.07-1.06.07a10.82,10.82,0,0,1-1.08-.07l-5.48-10.2c-.58-1.1-1-2.1-1.53-3.11h-.07c0,1.4.14,3.29.14,4.87V61.5a6.49,6.49,0,0,1-.81.07,5.77,5.77,0,0,1-.79-.07V46.12a7.8,7.8,0,0,1,1-.07,8.25,8.25,0,0,1,1.08.07l5.48,10.21c.58,1.1,1.08,2.2,1.58,3.17H127c-.1-1.65-.17-3.58-.17-5.14V47.17c0-.76.17-1.12.91-1.12h.59Z"/><path d="M149.33,61.62c-.75,0-1-.39-1.25-1.13l-1.44-3.67c-.72-1.85-1.51-2.48-3-2.48-.26,0-.87,0-1.81,0V61.5a5.44,5.44,0,0,1-.89.07,5.15,5.15,0,0,1-.83-.07V46.12a4.21,4.21,0,0,1,.83-.07,4.52,4.52,0,0,1,.89.07v6.73l1.64,0c.38,0,.53-.18.76-.55l3.32-5.35c.33-.54.53-.84,1.21-.84.31,0,.58,0,.92,0l.13.18L146,52.42a3.86,3.86,0,0,1-.7.84c1.51.22,2.16,1.15,2.88,2.88l1.37,3.52a3.17,3.17,0,0,0,.92,1.37,1.53,1.53,0,0,1-1.18.59"/></g></g></g></g></g></svg>